<svg width="24" height="24" viewBox="0 0 24 24" fill="none" xmlns="http://www.w3.org/2000/svg">
<path d="M8.34058 2.00475C8.28925 2.01245 8.23826 2.02985 8.19136 2.05865C8.00256 2.17385 7.94335 2.42025 8.05855 2.60865L8.7148 3.6813C7.53467 4.47363 6.69507 5.73407 6.46792 7.20003H16.732C16.5051 5.73407 15.6652 4.47363 14.4851 3.6813L15.1414 2.60865C15.2566 2.42025 15.1974 2.17385 15.0086 2.05865C14.8198 1.94346 14.5738 2.00307 14.4586 2.19147L13.789 3.28599C13.1238 2.9757 12.3831 2.80006 11.6 2.80006C10.8168 2.80006 10.0762 2.9757 9.41089 3.28599L8.74136 2.19147C8.65466 2.05017 8.49455 1.98163 8.34058 2.00475ZM4.79995 4.00005C3.91755 4.00005 3.19995 4.71765 3.19995 5.60004C3.19995 6.48244 3.91755 7.20003 4.79995 7.20003H5.65933C5.82333 5.97844 6.35538 4.87485 7.14058 4.00005H4.79995ZM9.39995 4.80005C9.73115 4.80005 9.99995 5.06884 9.99995 5.40004C9.99995 5.73124 9.73115 6.00004 9.39995 6.00004C9.06875 6.00004 8.79995 5.73124 8.79995 5.40004C8.79995 5.06884 9.06875 4.80005 9.39995 4.80005ZM13.8 4.80005C14.1312 4.80005 14.4 5.06884 14.4 5.40004C14.4 5.73124 14.1312 6.00004 13.8 6.00004C13.4688 6.00004 13.2 5.73124 13.2 5.40004C13.2 5.06884 13.4688 4.80005 13.8 4.80005ZM3.19995 7.38441V17.6C3.19995 18.7028 4.09715 19.6 5.19995 19.6H6.91167L6.7398 19.9648C6.4242 20.6356 6.66124 21.445 7.27964 21.807C7.49524 21.933 7.74023 22 7.98823 22C8.53583 22 9.03867 21.6826 9.27027 21.1906L10.0148 19.6H13.1851L13.9281 21.1882C14.1609 21.6822 14.6641 22 15.2117 22C15.4597 22 15.7047 21.933 15.9203 21.807C16.5387 21.445 16.7761 20.6356 16.4601 19.9648L16.2882 19.6H17.2V11.6C17.2 11.3792 17.3788 11.2 17.6 11.2H19.2C20.0824 11.2 20.8 10.4824 20.8 9.60002C20.8 8.71763 20.0824 8.00003 19.2 8.00003H17.6H6.39995H4.79995C4.18475 8.00003 3.62515 7.76601 3.19995 7.38441ZM11.6 10C11.8212 10 12 10.1792 12 10.4V11.257C12.6884 11.4358 13.2 12.0568 13.2 12.8C13.2 13.2392 13.0219 13.6374 12.7343 13.9266L15.7367 20.3054C15.8723 20.5934 15.7904 20.9567 15.5164 21.1171C15.4196 21.1739 15.3145 21.2 15.2117 21.2C14.9865 21.2 14.7555 21.0664 14.6531 20.8492L14.0687 19.6L12.4523 16.1453C12.1139 15.4221 11.086 15.4221 10.7476 16.1453L9.1312 19.6L8.54683 20.8492C8.44443 21.0664 8.21343 21.2 7.98823 21.2C7.88543 21.2 7.78035 21.1739 7.68355 21.1171C7.40915 20.9567 7.32803 20.5938 7.46323 20.3062L10.4648 13.9266C10.1776 13.637 9.99995 13.2392 9.99995 12.8C9.99995 12.0568 10.5116 11.4358 11.2 11.257V10.4C11.2 10.1792 11.3788 10 11.6 10ZM20.8 11.3844C20.3748 11.766 19.8152 12 19.2 12H18V20V21.6C18 21.8208 18.1788 22 18.4 22H18.8C19.9028 22 20.8 21.1028 20.8 20V11.3844ZM11.6 12C11.3878 12 11.1843 12.0843 11.0343 12.2343C10.8842 12.3843 10.8 12.5878 10.8 12.8C10.8 13.0122 10.8842 13.2157 11.0343 13.3657C11.1843 13.5157 11.3878 13.6 11.6 13.6C11.8121 13.6 12.0156 13.5157 12.1656 13.3657C12.3157 13.2157 12.4 13.0122 12.4 12.8C12.4 12.5878 12.3157 12.3843 12.1656 12.2343C12.0156 12.0843 11.8121 12 11.6 12Z" fill="black"/>
</svg>
