<?xml version="1.0" encoding="UTF-8" standalone="no"?>
<svg
   width="24"
   height="24"
   viewBox="0 0 24 24"
   fill="none"
   version="1.1"
   id="svg10"
   sodipodi:docname="avito.svg"
   inkscape:version="1.1 (c68e22c387, 2021-05-23)"
   xmlns:inkscape="http://www.inkscape.org/namespaces/inkscape"
   xmlns:sodipodi="http://sodipodi.sourceforge.net/DTD/sodipodi-0.dtd"
   xmlns="http://www.w3.org/2000/svg"
   xmlns:svg="http://www.w3.org/2000/svg">
  <defs
     id="defs14" />
  <sodipodi:namedview
     id="namedview12"
     pagecolor="#ffffff"
     bordercolor="#666666"
     borderopacity="1.0"
     inkscape:pageshadow="2"
     inkscape:pageopacity="0.0"
     inkscape:pagecheckerboard="0"
     showgrid="false"
     inkscape:zoom="11.96189"
     inkscape:cx="11.996432"
     inkscape:cy="11.996432"
     inkscape:window-width="1920"
     inkscape:window-height="1001"
     inkscape:window-x="-9"
     inkscape:window-y="-9"
     inkscape:window-maximized="1"
     inkscape:current-layer="svg10" />
  <path
     id="circle8"
     style="fill:#000000"
     d="M 13.56683,14.8271 A 6.1728702,6.1728702 0 0 1 7.39396,20.99997 6.1728702,6.1728702 0 0 1 1.2210898,14.8271 6.1728702,6.1728702 0 0 1 7.39396,8.6542296 6.1728702,6.1728702 0 0 1 13.56683,14.8271 Z m 8.368539,-7.8064601 a 5.21767,5.21767 0 0 1 -5.21767,5.2176701 5.21767,5.21767 0 0 1 -5.21767,-5.2176701 5.21767,5.21767 0 0 1 5.21767,-5.21767 5.21767,5.21767 0 0 1 5.21767,5.21767 z M 22.2085,16.493601 a 4,4 0 0 1 -4,4 4,4 0 0 1 -4,-4 4,4 0 0 1 4,-4 4,4 0 0 1 4,4 z M 11,5.5 A 2.5,2.5 0 0 1 8.5,8 2.5,2.5 0 0 1 6,5.5 2.5,2.5 0 0 1 8.5,3 2.5,2.5 0 0 1 11,5.5 Z" />
</svg>
