<svg width="24" height="24" viewBox="0 0 24 24" fill="none" xmlns="http://www.w3.org/2000/svg">
<path d="M7.74568 22.4804C7.37755 22.4804 7.06468 22.3516 6.80708 22.094C6.54946 21.8364 6.42065 21.5236 6.42065 21.1554V4.84455C6.42065 4.47643 6.54946 4.16356 6.80708 3.90595C7.06468 3.64835 7.37755 3.51955 7.74568 3.51955H9.675V1.51955H14.3251V3.51955H16.2544C16.6225 3.51955 16.9354 3.64835 17.193 3.90595C17.4506 4.16356 17.5794 4.47643 17.5794 4.84455V21.1554C17.5794 21.5236 17.4506 21.8364 17.193 22.094C16.9354 22.3516 16.6225 22.4804 16.2544 22.4804H7.74568Z" fill="#1C1B1F"/>
</svg>
