<svg width="24" height="24" viewBox="0 0 24 24" fill="none" xmlns="http://www.w3.org/2000/svg">
<path d="M8.34781 21C8.03168 21 7.76301 20.8894 7.5418 20.6682C7.32057 20.447 7.20996 20.1783 7.20996 19.8622V5.85532C7.20996 5.5392 7.32057 5.27053 7.5418 5.0493C7.76301 4.82809 8.03168 4.71748 8.34781 4.71748H10.0046V3H13.9978V4.71748H15.6546C15.9707 4.71748 16.2394 4.82809 16.4606 5.0493C16.6818 5.27053 16.7924 5.5392 16.7924 5.85532V19.8622C16.7924 20.1783 16.6818 20.447 16.4606 20.6682C16.2394 20.8894 15.9707 21 15.6546 21H8.34781Z" fill="#1C1B1F"/>
</svg>
