<svg width="24" height="24" viewBox="0 0 24 24" fill="none" xmlns="http://www.w3.org/2000/svg">
<path d="M2.80793 15.096C2.46126 15.096 2.14393 15.0187 1.85593 14.864C1.57326 14.7093 1.35459 14.4907 1.19993 14.208L1.30393 14.08V15H0.575928V8.944H1.31993V11.616L1.20793 11.432C1.36793 11.176 1.58659 10.9733 1.86393 10.824C2.14126 10.6693 2.45859 10.592 2.81593 10.592C3.22126 10.592 3.58393 10.6907 3.90393 10.888C4.22926 11.0853 4.48526 11.3547 4.67193 11.696C4.85859 12.032 4.95193 12.416 4.95193 12.848C4.95193 13.2693 4.85859 13.6507 4.67193 13.992C4.48526 14.3333 4.22926 14.6027 3.90393 14.8C3.58393 14.9973 3.21859 15.096 2.80793 15.096ZM2.75193 14.376C3.02393 14.376 3.26659 14.3093 3.47993 14.176C3.69326 14.0427 3.85859 13.8613 3.97593 13.632C4.09859 13.3973 4.15993 13.136 4.15993 12.848C4.15993 12.5493 4.09859 12.288 3.97593 12.064C3.85859 11.8347 3.69326 11.6533 3.47993 11.52C3.26659 11.3813 3.02393 11.312 2.75193 11.312C2.47993 11.312 2.23459 11.3787 2.01593 11.512C1.80259 11.6453 1.63193 11.8293 1.50393 12.064C1.38126 12.2933 1.31993 12.5547 1.31993 12.848C1.31993 13.136 1.38126 13.3973 1.50393 13.632C1.63193 13.8613 1.80259 14.0427 2.01593 14.176C2.23459 14.3093 2.47993 14.376 2.75193 14.376Z" fill="black"/>
<path d="M5.92749 15V8.944H6.67149V15H5.92749Z" fill="black"/>
<path d="M7.82593 15V10.688H8.56993V15H7.82593ZM7.82593 10V9.04H8.56993V10H7.82593Z" fill="black"/>
<path d="M9.72437 15V10.688H10.4524V11.528L10.3324 11.456C10.439 11.184 10.6097 10.9733 10.8444 10.824C11.0844 10.6693 11.3644 10.592 11.6844 10.592C11.9937 10.592 12.2684 10.6613 12.5084 10.8C12.7537 10.9387 12.9457 11.1307 13.0844 11.376C13.2284 11.6213 13.3004 11.8987 13.3004 12.208V15H12.5484V12.448C12.5484 12.208 12.5057 12.0053 12.4204 11.84C12.335 11.6747 12.2124 11.5467 12.0524 11.456C11.8977 11.36 11.719 11.312 11.5164 11.312C11.3137 11.312 11.1324 11.36 10.9724 11.456C10.8177 11.5467 10.695 11.6773 10.6044 11.848C10.5137 12.0133 10.4684 12.2133 10.4684 12.448V15H9.72437Z" fill="black"/>
<path d="M14.365 15V8.944H15.109V13.096L14.805 13.024L17.093 10.688H18.045L16.389 12.424L18.157 15H17.277L15.661 12.664L16.125 12.64L14.869 13.952L15.109 13.408V15H14.365Z" fill="black"/>
<path d="M18.7379 15V10.648H19.7859V15H18.7379ZM18.7379 10.16V9.04H19.7859V10.16H18.7379Z" fill="black"/>
<path d="M22.7376 15.048C22.2469 15.048 21.8656 14.9147 21.5936 14.648C21.3269 14.376 21.1936 13.9947 21.1936 13.504V11.584H20.4416V10.648H20.5216C20.7349 10.648 20.9002 10.592 21.0176 10.48C21.1349 10.368 21.1936 10.2053 21.1936 9.992V9.656H22.2416V10.648H23.2416V11.584H22.2416V13.448C22.2416 13.592 22.2656 13.7147 22.3136 13.816C22.3669 13.9173 22.4469 13.9947 22.5536 14.048C22.6656 14.1013 22.8069 14.128 22.9776 14.128C23.0149 14.128 23.0576 14.1253 23.1056 14.12C23.1589 14.1147 23.2096 14.1093 23.2576 14.104V15C23.1829 15.0107 23.0976 15.0213 23.0016 15.032C22.9056 15.0427 22.8176 15.048 22.7376 15.048Z" fill="black"/>
</svg>
