<svg width="24" height="24" viewBox="0 0 24 24" fill="none" xmlns="http://www.w3.org/2000/svg">
<path d="M21.8519 12.5486L17.4014 20.235C17.2119 20.5624 16.8602 20.7811 16.452 20.7811H7.55586C7.14773 20.7811 6.79694 20.5624 6.60648 20.2311L2.14722 12.5486C1.95093 12.2095 1.95093 11.7916 2.14722 11.4525L6.59773 3.76611C6.78722 3.4435 7.14385 3.22 7.54711 3.22H16.4579C16.866 3.22 17.2168 3.44253 17.4072 3.77L21.8529 11.4515C22.0492 11.7906 22.0492 12.2095 21.8519 12.5486ZM10.6401 16.8942H13.3687C13.9741 16.8942 14.4649 16.4034 14.4649 15.7981C14.4649 15.1927 13.9741 14.7019 13.3687 14.7019H10.6401C10.0347 14.7019 9.54402 15.1927 9.54402 15.7981C9.54402 16.4034 10.0347 16.8942 10.6401 16.8942ZM14.4503 7.13412H9.55859C8.95223 7.13412 8.46054 7.62582 8.46054 8.23218C8.46054 8.83854 8.95223 9.33023 9.55859 9.33023H14.4503C15.0566 9.33023 15.5483 8.83854 15.5483 8.23218C15.5483 7.62582 15.0566 7.13412 14.4503 7.13412ZM16.4384 10.9161H7.56558C6.95922 10.9161 6.46752 11.4078 6.46752 12.0141C6.46752 12.6205 6.95922 13.1122 7.56558 13.1122H16.4384C17.0448 13.1122 17.5365 12.6205 17.5365 12.0141C17.5365 11.4078 17.0448 10.9161 16.4384 10.9161Z" fill="black"/>
</svg>
