<?xml version="1.0" encoding="UTF-8" standalone="no"?>
<svg
   width="24"
   height="24"
   viewBox="0 0 24 24"
   fill="none"
   version="1.1"
   id="svg26"
   sodipodi:docname="burger_king.svg"
   inkscape:version="1.1 (c68e22c387, 2021-05-23)"
   xmlns:inkscape="http://www.inkscape.org/namespaces/inkscape"
   xmlns:sodipodi="http://sodipodi.sourceforge.net/DTD/sodipodi-0.dtd"
   xmlns="http://www.w3.org/2000/svg"
   xmlns:svg="http://www.w3.org/2000/svg">
  <defs
     id="defs30" />
  <sodipodi:namedview
     id="namedview28"
     pagecolor="#ffffff"
     bordercolor="#666666"
     borderopacity="1.0"
     inkscape:pageshadow="2"
     inkscape:pageopacity="0.0"
     inkscape:pagecheckerboard="0"
     showgrid="false"
     inkscape:zoom="16.916667"
     inkscape:cx="12.029557"
     inkscape:cy="12.029557"
     inkscape:window-width="1920"
     inkscape:window-height="1001"
     inkscape:window-x="-9"
     inkscape:window-y="-9"
     inkscape:window-maximized="1"
     inkscape:current-layer="svg26" />
  <path
     id="path24"
     style="fill:#000000;stroke:none"
     d="m 20.8707,11.1624 c -0.1978,-0.2504 -0.32,-0.4131 -0.3956,-0.6169 -0.0176,-0.0463 -0.0057,-0.0871 0.0466,-0.1278 0.1802,-0.1397 0.3896,-0.44791 0.3896,-0.93658 0,-0.73901 -0.6108,-1.15781 -1.3496,-1.15781 h -0.6572 c -0.4598,0 -0.6808,0.26766 -0.6808,0.62837 v 2.59462 c 0,0.3488 0.2037,0.6281 0.5761,0.6281 0.3724,0 0.5757,-0.2792 0.5757,-0.6281 v -0.6168 c 0,-0.0756 0.0352,-0.1107 0.0931,-0.1107 0.07,0 0.0931,0.0408 0.1047,0.1107 0.0523,0.2968 0.1921,0.6979 0.3492,0.9017 0.1978,0.2617 0.384,0.3432 0.57,0.3432 0.3026,0 0.5644,-0.2384 0.5644,-0.5353 -10e-5,-0.1978 -0.0817,-0.3431 -0.1862,-0.4767 z M 19.5386,9.95228 H 19.457 c -0.0986,0 -0.1454,-0.05828 -0.1454,-0.13385 V 9.4228 c 0,-0.07557 0.0467,-0.13366 0.1454,-0.13366 h 0.0816 c 0.2441,0 0.3197,0.17447 0.3197,0.32561 0,0.14566 -0.0756,0.33753 -0.3197,0.33753 z m -7.6907,1.21012 c -0.1686,-0.2213 -0.32,-0.4131 -0.3955,-0.6169 -0.0176,-0.0463 -0.0058,-0.0871 0.0467,-0.1278 0.1802,-0.1397 0.3895,-0.44791 0.3895,-0.93658 0,-0.73901 -0.6105,-1.15781 -1.3496,-1.15781 H 9.88176 c -0.45983,0 -0.68073,0.26766 -0.68073,0.62837 v 2.59462 c 0,0.3488 0.20369,0.6281 0.57602,0.6281 0.37235,0 0.57575,-0.2792 0.57575,-0.6281 v -0.6168 c 0,-0.0756 0.0351,-0.1107 0.0931,-0.1107 0.0699,0 0.0932,0.0408 0.1047,0.1107 0.0524,0.2968 0.1921,0.6979 0.3491,0.9017 0.1978,0.2617 0.384,0.3432 0.5701,0.3432 0.3026,0 0.5643,-0.2384 0.5643,-0.5353 0,-0.1978 -0.0815,-0.3431 -0.1862,-0.4767 z M 10.5158,9.95228 h -0.0815 c -0.0987,0 -0.1454,-0.05828 -0.1454,-0.13385 V 9.4228 c 0,-0.07557 0.0467,-0.13366 0.1454,-0.13366 h 0.0815 c 0.2443,0 0.3198,0.17447 0.3198,0.32561 0,0.14566 -0.0755,0.33753 -0.3198,0.33753 z M 5.29754,10.1676 c -0.02888,-0.0235 -0.05802,-0.0467 -0.05802,-0.07 0,-0.0291 0.01752,-0.0407 0.04651,-0.0755 C 5.39655,9.89389 5.50696,9.6905 5.50696,9.3937 5.50696,8.69572 5.03591,8.32342 4.30272,8.32342 H 3.61074 c -0.45957,0 -0.68081,0.26766 -0.68081,0.62834 v 2.56544 c 0,0.3606 0.22124,0.6281 0.68081,0.6281 H 4.4309 c 0.77363,0 1.2449,-0.5177 1.2449,-1.1634 0,-0.5178 -0.30828,-0.7563 -0.37826,-0.8143 z M 3.95386,9.32409 c 0,-0.07579 0.04639,-0.13381 0.14544,-0.13381 h 0.07557 c 0.25033,0 0.3259,0.17424 0.3259,0.32568 0,0.1394 -0.07557,0.33723 -0.3259,0.33723 H 4.0993 c -0.09901,0 -0.14544,-0.05801 -0.14544,-0.13351 z M 4.20401,11.2727 H 4.0993 c -0.09901,0 -0.14544,-0.058 -0.14544,-0.1338 v -0.4536 c 0,-0.0758 0.04639,-0.1338 0.14544,-0.1338 h 0.10471 c 0.27925,0 0.36082,0.1862 0.36082,0.3547 -4e-5,0.1513 -0.08157,0.3665 -0.36082,0.3665 z m 6.03839,2.3386 c 0,-0.6109 -0.35479,-1.0995 -1.00645,-1.0995 -0.65155,0 -1.00645,0.4886 -1.00645,1.0995 v 3.444 c 0,0.6106 0.3549,1.0994 1.00645,1.0994 0.65166,0 1.00645,-0.4888 1.00645,-1.0994 z m 4.7294,-5.00867 c 0.1339,0.10464 0.221,0.25601 0.221,0.4538 0,0.26766 -0.2094,0.52344 -0.5177,0.52344 -0.2675,0 -0.3314,-0.19783 -0.7156,-0.19783 -0.3141,0 -0.7213,0.23267 -0.7213,0.87266 0,0.5761 0.2968,0.8842 0.7332,0.8842 0.1394,0 0.2617,-0.0697 0.2617,-0.1745 0,-0.0812 -0.0699,-0.1164 -0.1805,-0.1164 -0.215,0 -0.5002,-0.157 -0.5002,-0.4827 0,-0.36674 0.2675,-0.52939 0.6109,-0.52939 h 0.1861 c 0.6516,0 0.9773,0.37229 0.9773,0.91329 0,0.8495 -0.5758,1.4311 -1.4891,1.4311 -0.867,0 -1.7451,-0.6108 -1.7451,-1.9256 0,-1.37289 0.8782,-1.96616 1.78,-1.96616 0.512,4e-5 0.8552,0.13389 1.0993,0.31409 z m 2.2863,2.08837 c 0.2792,0 0.5005,-0.1687 0.5005,-0.4654 0,-0.2965 -0.2212,-0.46519 -0.5005,-0.46519 h -0.4012 c -0.0991,0 -0.1458,-0.05832 -0.1458,-0.13389 V 9.53348 c 0,-0.0758 0.0467,-0.13382 0.1458,-0.13382 h 0.5233 c 0.3257,0 0.5817,-0.19209 0.5817,-0.54102 0,-0.34324 -0.256,-0.53533 -0.5817,-0.53533 h -1.0994 c -0.4596,0 -0.6809,0.26766 -0.6809,0.62845 v 2.56544 c 0,0.3604 0.2213,0.6281 0.6809,0.6281 h 1.0994 c 0.3257,0 0.5817,-0.1918 0.5817,-0.541 0,-0.3432 -0.256,-0.5351 -0.5817,-0.5351 h -0.5233 c -0.0991,0 -0.1458,-0.0582 -0.1458,-0.1338 v -0.1106 c 0,-0.0756 0.0467,-0.1338 0.1458,-0.1338 z m -9.87217,1.4834 c 0.94251,0 1.44296,-0.5642 1.44296,-1.274 V 8.94017 c 0,-0.3492 -0.20369,-0.62849 -0.57602,-0.62849 -0.37238,0 -0.57583,0.27929 -0.57583,0.62849 v 1.89623 c 0,0.1397 -0.08146,0.3025 -0.29111,0.3025 -0.20938,0 -0.27921,-0.1628 -0.27921,-0.3025 V 8.94017 c 0,-0.3492 -0.20939,-0.62849 -0.58176,-0.62849 -0.37207,0 -0.57576,0.27929 -0.57576,0.62849 v 1.96023 c 0,0.7098 0.49453,1.274 1.43673,1.274 z M 20.5681,7.63691 c 0.3375,0 0.4887,-0.17454 0.4887,-0.48859 C 21.0568,5.28682 18.2005,2 11.9933,2 5.72816,2 2.92993,5.28678 2.92993,7.14832 c 0,0.31405 0.1514,0.48859 0.48864,0.48859 z M 3.41857,18.7422 c -0.33731,0 -0.48856,0.163 -0.48856,0.4478 0,0.5004 0.45964,1.1987 1.36708,1.7105 C 5.80973,21.7555 8.40397,22 11.9933,22 c 3.5894,0 6.184,-0.2445 7.6963,-1.0995 0.9077,-0.5118 1.3673,-1.2101 1.3673,-1.7105 0,-0.2848 -0.1512,-0.4478 -0.4888,-0.4478 z m 1.41947,-1.6173 v -0.8262 c 0,-0.0696 0.02907,-0.1219 0.09898,-0.1219 0.09308,0 0.11626,0.0932 0.13947,0.1395 0.13393,0.3201 0.52344,1.0005 0.88423,1.4021 0.24448,0.2675 0.54691,0.4362 0.86693,0.4362 0.54099,0 0.99464,-0.4711 0.99464,-0.9773 0,-0.3141 -0.13363,-0.5468 -0.38974,-0.826 C 7.10668,15.9964 6.72294,15.531 6.5832,15.3158 6.53085,15.2344 6.52522,15.1819 6.52522,15.1588 c 0,-0.0642 0.03481,-0.1106 0.10464,-0.1745 0.16295,-0.1514 0.5642,-0.5294 0.78548,-0.8726 0.16861,-0.2618 0.23829,-0.5003 0.23829,-0.6981 0,-0.5062 -0.45957,-0.9017 -0.95983,-0.9017 -0.31994,0 -0.62245,0.1802 -0.82621,0.5118 -0.27328,0.4422 -0.59897,0.9541 -0.80842,1.1578 -0.05228,0.0524 -0.08161,0.064 -0.12215,0.064 -0.06995,0 -0.09898,-0.0468 -0.09898,-0.1223 v -0.5817 c 0,-0.5701 -0.3373,-1.0296 -0.94813,-1.0296 -0.61656,0 -0.94816,0.4596 -0.94816,1.0296 v 3.5835 c 0,0.5701 0.3316,1.0296 0.94816,1.0296 0.61086,0 0.94813,-0.4595 0.94813,-1.0297 z m 7.92906,-1.239 c 0,-0.1046 0.0348,-0.1514 0.0988,-0.1514 0.0466,0 0.0815,0.0291 0.1221,0.1106 l 0.8087,1.5707 c 0.3083,0.5991 0.64,0.7387 0.9949,0.7387 0.6108,0 0.948,-0.4595 0.948,-1.0353 v -3.595 c 0,-0.5645 -0.3256,-1.0124 -0.9249,-1.0124 -0.5992,0 -0.925,0.4479 -0.925,1.0124 v 1.2565 c 0,0.1046 -0.0347,0.1511 -0.099,0.1511 -0.0464,0 -0.0812,-0.0291 -0.1219,-0.1106 l -0.8086,-1.5706 c -0.3084,-0.5991 -0.6282,-0.7388 -0.9949,-0.7388 -0.6106,0 -0.9481,0.4594 -0.9481,1.0356 v 3.595 c 0,0.5642 0.3257,1.0121 0.925,1.0121 0.5992,0 0.9249,-0.4478 0.9249,-1.0121 z m 7.7486,-2.9203 c 0.2037,0.1514 0.3317,0.3724 0.3317,0.6573 0,0.384 -0.3144,0.7622 -0.7795,0.7622 -0.4015,0 -0.4946,-0.291 -1.0704,-0.291 -0.4713,0 -1.0821,0.3374 -1.0821,1.2623 0,0.8318 0.4481,1.2798 1.1053,1.2798 0.1978,0 0.384,-0.0988 0.384,-0.2502 0,-0.1219 -0.1107,-0.1686 -0.2676,-0.1686 -0.32,0 -0.7504,-0.227 -0.7504,-0.7039 0,-0.5235 0.3955,-0.762 0.9073,-0.762 h 0.2853 c 0.9829,0 1.4716,0.5409 1.4716,1.3205 0,1.2333 -0.8667,2.0768 -2.2338,2.0768 -1.3031,0 -2.6235,-0.8901 -2.6235,-2.7924 0,-1.9894 1.3204,-2.8447 2.676,-2.8447 0.756,10e-5 1.2914,0.1921 1.6461,0.4539 z" />
</svg>
