<svg width="24" height="24" viewBox="0 0 24 24" fill="none" xmlns="http://www.w3.org/2000/svg">
<circle opacity="0.5" cx="12" cy="12" r="9" stroke="black" stroke-width="2"/>
<path d="M18.364 18.364C17.3259 19.4021 16.0496 20.1705 14.6464 20.6021C13.2432 21.0338 11.7557 21.1157 10.3136 20.8406C8.87147 20.5655 7.51857 19.9418 6.37282 19.0239C5.22707 18.106 4.32326 16.9217 3.74021 15.5743C3.15716 14.227 2.91256 12.7574 3.02774 11.2939C3.14293 9.83029 3.6144 8.41712 4.40105 7.17756C5.1877 5.938 6.26563 4.9097 7.54087 4.18232C8.81611 3.45493 10.2499 3.05056 11.7173 3.00444" stroke="black" stroke-width="2" stroke-linecap="round"/>
<path d="M15.7855 15.5355C15.0863 16.2348 14.1954 16.711 13.2255 16.9039C12.2555 17.0969 11.2502 16.9978 10.3366 16.6194C9.42295 16.241 8.64206 15.6001 8.09265 14.7779C7.54324 13.9556 7.25 12.9889 7.25 12C7.25 11.0111 7.54324 10.0444 8.09265 9.22215C8.64206 8.3999 9.42295 7.75904 10.3366 7.3806C11.2502 7.00216 12.2555 6.90315 13.2255 7.09607C14.1954 7.289 15.0863 7.7652 15.7855 8.46447" stroke="black" stroke-width="2" stroke-linecap="round" stroke-linejoin="round"/>
</svg>
