<svg width="24" height="24" viewBox="0 0 24 24" fill="none" xmlns="http://www.w3.org/2000/svg">
<circle opacity="0.5" cx="12" cy="12" r="9.25" stroke="black" stroke-width="1.5"/>
<path d="M18.5407 18.5407C17.4738 19.6077 16.1621 20.3974 14.7199 20.8411C13.2777 21.2848 11.7489 21.3689 10.2667 21.0862C8.78457 20.8034 7.39408 20.1624 6.21651 19.219C5.03893 18.2756 4.11002 17.0584 3.51077 15.6736C2.91152 14.2888 2.66013 12.7785 2.77851 11.2743C2.8969 9.77002 3.38147 8.31759 4.18997 7.0436C4.99847 5.76961 6.10635 4.71275 7.41701 3.96516C8.72767 3.21757 10.2013 2.80196 11.7095 2.75456" stroke="black" stroke-width="1.5" stroke-linecap="round"/>
<path d="M15.7855 15.5355C15.0863 16.2348 14.1954 16.711 13.2255 16.9039C12.2555 17.0969 11.2502 16.9978 10.3366 16.6194C9.42295 16.241 8.64206 15.6001 8.09265 14.7779C7.54324 13.9556 7.25 12.9889 7.25 12C7.25 11.0111 7.54324 10.0444 8.09265 9.22215C8.64206 8.3999 9.42295 7.75904 10.3366 7.3806C11.2502 7.00216 12.2555 6.90315 13.2255 7.09607C14.1954 7.289 15.0863 7.7652 15.7855 8.46447" stroke="black" stroke-width="2" stroke-linecap="round" stroke-linejoin="round"/>
</svg>
