<?xml version="1.0" encoding="UTF-8" standalone="no"?>
<svg
   width="24"
   height="24"
   viewBox="0 0 24 24"
   fill="none"
   version="1.1"
   id="svg12"
   sodipodi:docname="chrome_remote_desktop.svg"
   inkscape:version="1.1 (c68e22c387, 2021-05-23)"
   xmlns:inkscape="http://www.inkscape.org/namespaces/inkscape"
   xmlns:sodipodi="http://sodipodi.sourceforge.net/DTD/sodipodi-0.dtd"
   xmlns="http://www.w3.org/2000/svg"
   xmlns:svg="http://www.w3.org/2000/svg">
  <defs
     id="defs16" />
  <sodipodi:namedview
     id="namedview14"
     pagecolor="#ffffff"
     bordercolor="#666666"
     borderopacity="1.0"
     inkscape:pageshadow="2"
     inkscape:pageopacity="0.0"
     inkscape:pagecheckerboard="0"
     showgrid="false"
     inkscape:zoom="23.923779"
     inkscape:cx="12.017332"
     inkscape:cy="11.975533"
     inkscape:window-width="1920"
     inkscape:window-height="1001"
     inkscape:window-x="-9"
     inkscape:window-y="-9"
     inkscape:window-maximized="1"
     inkscape:current-layer="svg12" />
  <path
     id="path8"
     style="fill:#000000;stroke:none"
     d="m 15.9167,18.5 c 0,0.1459 -0.0058,0.2904 -0.0171,0.4333 H 13.7207 C 13.74,18.7914 13.75,18.6467 13.75,18.5 c 0,-0.8342 -0.3142,-1.5925 -0.8342,-2.1667 h 2.5459 c 0.2925,0.6663 0.455,1.3975 0.455,2.1667 z M 7.00092,18.9333 5.52208,16.3713 C 5.24042,17.0267 5.08333,17.7471 5.08333,18.5 c 0,0.1459 0.00577,0.2904 0.01707,0.4333 z M 12.6667,18.5 c 0,0.1484 -0.015,0.2933 -0.0434,0.4333 H 8.37667 C 8.34825,18.7933 8.33333,18.6484 8.33333,18.5 c 0,-1.1966 0.97005,-2.1667 2.16667,-2.1667 1.1966,0 2.1667,0.9701 2.1667,2.1667 z m 2.1612,-3.25 H 10.5 c -1.44083,0 -2.65958,0.9371 -3.0875,2.2371 L 6.145,15.2879 c 0.98583,-1.3325 2.5675,-2.2046 4.355,-2.2046 1.7712,0 3.3367,0.8559 4.3279,2.1667 z" />
  <path
     fill-rule="evenodd"
     clip-rule="evenodd"
     d="M19.2727 20.3636V16.7273H21.0909C21.593 16.7273 22 16.3203 22 15.8182V4C22 3.49793 21.593 3.09091 21.0909 3.09091H5.63636C5.13429 3.09091 4.72727 3.49793 4.72727 4V7.63637H2.90909C2.40701 7.63637 2 8.04338 2 8.54546V20.3636C2 20.8657 2.40701 21.2727 2.90909 21.2727H18.3636C18.8657 21.2727 19.2727 20.8657 19.2727 20.3636ZM6.09091 7.63637V4.45455H20.6364V15.3636H19.2727V8.54546C19.2727 8.04338 18.8657 7.63637 18.3636 7.63637H6.09091ZM3.36364 9V19.9091H17.9091V9H3.36364Z"
     fill="#FFF1C0"
     id="path10"
     style="fill:#000000;stroke:none" />
</svg>
