<?xml version="1.0" encoding="UTF-8" standalone="no"?>
<svg
   width="24"
   height="24"
   viewBox="0 0 24 24"
   fill="none"
   version="1.1"
   id="svg4"
   sodipodi:docname="clock.svg"
   inkscape:version="1.1 (c68e22c387, 2021-05-23)"
   xmlns:inkscape="http://www.inkscape.org/namespaces/inkscape"
   xmlns:sodipodi="http://sodipodi.sourceforge.net/DTD/sodipodi-0.dtd"
   xmlns="http://www.w3.org/2000/svg"
   xmlns:svg="http://www.w3.org/2000/svg">
  <defs
     id="defs8" />
  <sodipodi:namedview
     id="namedview6"
     pagecolor="#ffffff"
     bordercolor="#666666"
     borderopacity="1.0"
     inkscape:pageshadow="2"
     inkscape:pageopacity="0.0"
     inkscape:pagecheckerboard="0"
     showgrid="false"
     inkscape:zoom="33.833333"
     inkscape:cx="11.985222"
     inkscape:cy="12.014778"
     inkscape:window-width="1920"
     inkscape:window-height="1001"
     inkscape:window-x="-9"
     inkscape:window-y="-9"
     inkscape:window-maximized="1"
     inkscape:current-layer="svg4" />
  <path
     id="path2"
     style="stroke:none;fill:#000000"
     d="m 14.6,16 c 0.3866,0.3866 1.0134,0.3866 1.4,0 v 0 c 0.3866,-0.3866 0.3866,-1.0134 0,-1.4 l -3,-3 V 8 C 13,7.44771 12.5523,7 12,7 v 0 c -0.5523,0 -1,0.44772 -1,1 v 4.4 z M 12,22 C 10.6167,22 9.31667,21.7373 8.1,21.212 6.88333,20.6873 5.825,19.975 4.925,19.075 4.025,18.175 3.31267,17.1167 2.788,15.9 2.26267,14.6833 2,13.3833 2,12 2,10.6167 2.26267,9.31667 2.788,8.1 3.31267,6.88333 4.025,5.825 4.925,4.925 5.825,4.025 6.88333,3.31233 8.1,2.787 9.31667,2.26233 10.6167,2 12,2 c 1.3833,0 2.6833,0.26233 3.9,0.787 1.2167,0.52533 2.275,1.238 3.175,2.138 0.9,0.9 1.6123,1.95833 2.137,3.175 C 21.7373,9.31667 22,10.6167 22,12 c 0,1.3833 -0.2627,2.6833 -0.788,3.9 -0.5247,1.2167 -1.237,2.275 -2.137,3.175 -0.9,0.9 -1.9583,1.6123 -3.175,2.137 C 14.6833,21.7373 13.3833,22 12,22 Z" />
</svg>
