<svg width="192" height="192" viewBox="0 0 192 192" fill="none" xmlns="http://www.w3.org/2000/svg">
<path d="M24 91.1072L91.3005 24L92.3946 45.9064L45.8702 92.2972L24 91.1072Z" fill="black"/>
<path d="M100.7 24.0505L168 91.1577L146.031 92.2467L99.5062 45.8579L100.7 24.0505Z" fill="black"/>
<path d="M167.949 100.893L100.649 168L99.5568 146.094L146.079 99.7028L167.949 100.893Z" fill="black"/>
<path d="M93.0565 56.7441L57.0039 92.6932L78.5432 93.8171L93.9189 78.4855L93.0565 56.7441Z" fill="black"/>
<path d="M56.8715 99.1865L92.9241 135.136L94.0513 113.658L78.6755 98.3265L56.8715 99.1865Z" fill="black"/>
<path d="M98.9591 135.268L135.012 99.3185L113.474 98.1945L98.0986 113.526L98.9591 135.268Z" fill="black"/>
</svg>
