<?xml version="1.0" encoding="UTF-8" standalone="no"?>
<svg
   width="24"
   height="24"
   viewBox="0 0 24 24"
   fill="none"
   version="1.1"
   id="svg8"
   sodipodi:docname="dialer.svg"
   inkscape:version="1.1 (c68e22c387, 2021-05-23)"
   xmlns:inkscape="http://www.inkscape.org/namespaces/inkscape"
   xmlns:sodipodi="http://sodipodi.sourceforge.net/DTD/sodipodi-0.dtd"
   xmlns="http://www.w3.org/2000/svg"
   xmlns:svg="http://www.w3.org/2000/svg">
  <defs
     id="defs12" />
  <sodipodi:namedview
     id="namedview10"
     pagecolor="#ffffff"
     bordercolor="#666666"
     borderopacity="1.0"
     inkscape:pageshadow="2"
     inkscape:pageopacity="0.0"
     inkscape:pagecheckerboard="0"
     showgrid="false"
     inkscape:zoom="33.833333"
     inkscape:cx="11.985222"
     inkscape:cy="12.014778"
     inkscape:window-width="1920"
     inkscape:window-height="1001"
     inkscape:window-x="-9"
     inkscape:window-y="-9"
     inkscape:window-maximized="1"
     inkscape:current-layer="svg8" />
  <path
     id="path6"
     d="M 12.152,18.4537 C 10.7291,17.128 9.32507,15.7259 8.14034,13.8038 7.49176,12.7516 6.99955,11.7035 6.53203,10.6778 L 4.76561,4.69922 4.76392,4.71355 4.76182,4.68925 C 2.89086,7.68128 3.22751,11.9816 5.74561,16.0668 c 2.72807,4.426 7.36479,6.686 11.12769,5.7171 -0.0042,-0.0015 -0.0084,-0.003 -0.0127,-0.0045 z m 5.5529,-3.2881 2.2625,2.5469 c 0.6419,0.7257 0.5994,1.8413 -0.1162,2.515 l -0.0632,0.0632 c -0.0262,0.0209 -0.0525,0.0393 -0.0787,0.0578 -0.0263,0.0184 -0.0525,0.0368 -0.0788,0.0578 -0.6212,0.4312 -1.5262,0.5575 -2.1887,0.1262 -0.0053,-0.0053 -0.0106,-0.0079 -0.0159,-0.0106 -0.0054,-0.0027 -0.0107,-0.0053 -0.016,-0.0106 -1.5994,-1.1994 -2.5356,-1.9044 -4.4087,-3.4407 0.7781,-0.705 2.2093,-2.0418 2.2093,-2.0418 0.7263,-0.6525 1.8419,-0.5994 2.4944,0.1368 z M 6.27682,4.37938 C 6.09745,3.60062 6.5187,2.78 7.13933,2.33812 l 0.2525,-0.13687 c 0.8525,-0.4525 1.905,-0.11563 2.3575,0.74687 l 1.58877,3.03126 c 0.4525,0.8625 0.1369,1.94625 -0.7263,2.40938 0,0 -1.7256,0.905 -2.64122,1.4 C 7.18183,7.47313 6.84495,6.34751 6.28683,4.41125 6.27683,4.40063 6.27682,4.39 6.27682,4.37938 Z"
     style="fill:#000000;stroke:none" />
</svg>
