<?xml version="1.0" encoding="UTF-8" standalone="no"?>
<svg
   width="24"
   height="24"
   viewBox="0 0 24 24"
   fill="none"
   version="1.1"
   id="svg10"
   sodipodi:docname="digital_wellbeing.svg"
   inkscape:version="1.1 (c68e22c387, 2021-05-23)"
   xmlns:inkscape="http://www.inkscape.org/namespaces/inkscape"
   xmlns:sodipodi="http://sodipodi.sourceforge.net/DTD/sodipodi-0.dtd"
   xmlns="http://www.w3.org/2000/svg"
   xmlns:svg="http://www.w3.org/2000/svg">
  <defs
     id="defs14" />
  <sodipodi:namedview
     id="namedview12"
     pagecolor="#ffffff"
     bordercolor="#666666"
     borderopacity="1.0"
     inkscape:pageshadow="2"
     inkscape:pageopacity="0.0"
     inkscape:pagecheckerboard="0"
     showgrid="false"
     inkscape:zoom="33.833333"
     inkscape:cx="11.985222"
     inkscape:cy="12.014778"
     inkscape:window-width="1920"
     inkscape:window-height="1001"
     inkscape:window-x="-9"
     inkscape:window-y="-9"
     inkscape:window-maximized="1"
     inkscape:current-layer="svg10" />
  <path
     id="path8"
     d="m 7.79059,17.7497 4.24471,-4.2447 4.2443,4.2443 -4.2447,4.2516 z m 4.95261,-6.3653 4.9495,4.9495 0.3526,-0.3532 c 1.3659,-1.3681 1.3659,-3.5858 -10e-5,-4.9539 -1.3248,-1.32683 -3.4478,-1.36775 -4.8217,-0.1227 z m -1.415,-7e-4 -4.95068,4.9507 -0.35305,-0.3537 c -1.36596,-1.3681 -1.36596,-3.5857 0,-4.9539 1.33414,-1.3363 3.47799,-1.36828 4.85093,-0.096 z M 15.5,5.5 A 3.5,3.5 0 0 1 12,9 3.5,3.5 0 0 1 8.5,5.5 3.5,3.5 0 0 1 12,2 3.5,3.5 0 0 1 15.5,5.5 Z"
     style="fill:#000000;stroke:none" />
</svg>
