<svg width="24" height="24" viewBox="0 0 24 24" fill="none" xmlns="http://www.w3.org/2000/svg">
<g clip-path="url(#clip0_807_2)">
<path d="M11.4972 15.8931V18.4994H1V5.5H11.4972V9.17748H7.16274V10.1729H11.4972V14.8989C11.1037 14.8738 10.7049 14.8285 10.3007 14.7617C8.57496 14.476 7.39821 13.8927 7.38629 13.8868L6.9386 14.7754C6.99046 14.8016 8.23696 15.4231 10.1022 15.7374C10.564 15.8151 11.0297 15.867 11.4972 15.8931ZM18.6447 10.1723V9.17688H23V5.5H12.4915V14.9168C13.9514 14.8756 15.3279 14.5321 16.6018 13.8873L17.0507 14.7754C15.6563 15.481 14.11 15.8621 12.4915 15.908V18.5H22.9994V10.1723H18.6447Z" fill="black"/>
</g>
<defs>
<clipPath id="clip0_807_2">
<rect width="22" height="13" fill="white" transform="translate(1 5.5)"/>
</clipPath>
</defs>
</svg>
