<?xml version="1.0" encoding="UTF-8" standalone="no"?>
<svg
   width="24"
   height="24"
   viewBox="0 0 24 24"
   fill="none"
   version="1.1"
   id="svg4"
   sodipodi:docname="facebook.svg"
   inkscape:version="1.1 (c68e22c387, 2021-05-23)"
   xmlns:inkscape="http://www.inkscape.org/namespaces/inkscape"
   xmlns:sodipodi="http://sodipodi.sourceforge.net/DTD/sodipodi-0.dtd"
   xmlns="http://www.w3.org/2000/svg"
   xmlns:svg="http://www.w3.org/2000/svg">
  <defs
     id="defs8" />
  <sodipodi:namedview
     id="namedview6"
     pagecolor="#ffffff"
     bordercolor="#666666"
     borderopacity="1.0"
     inkscape:pageshadow="2"
     inkscape:pageopacity="0.0"
     inkscape:pagecheckerboard="0"
     showgrid="false"
     inkscape:zoom="33.833333"
     inkscape:cx="11.985222"
     inkscape:cy="12.014778"
     inkscape:window-width="1920"
     inkscape:window-height="1001"
     inkscape:window-x="-9"
     inkscape:window-y="-9"
     inkscape:window-maximized="1"
     inkscape:current-layer="svg4" />
  <path
     d="M2.06641 11.9891C2.06641 16.9281 5.65354 21.0348 10.3444 21.8672L10.3444 14.7638H7.861V11.9891H10.3444V9.76929C10.3444 7.27202 11.9448 5.88464 14.2075 5.88464C14.9249 5.88464 15.6975 5.99563 16.4149 6.10662V8.65939H15.1456C13.9315 8.65939 13.6556 9.26983 13.6556 10.0468V11.9891H16.3046L15.8631 14.7638H13.6556L13.6556 21.8672C18.3465 21.0348 21.9336 16.9281 21.9336 11.9891C21.9336 6.49509 17.4635 2 12 2C6.53652 2 2.06641 6.49509 2.06641 11.9891Z"
     fill="#FFF1C0"
     id="path2"
     style="fill:#000000;stroke:none" />
</svg>
