<?xml version="1.0" encoding="UTF-8" standalone="no"?>
<svg
   height="24"
   viewBox="0 -960 960 960"
   width="24"
   version="1.1"
   id="svg134"
   sodipodi:docname="feedback.svg"
   inkscape:version="1.2.1 (9c6d41e, 2022-07-14)"
   xmlns:inkscape="http://www.inkscape.org/namespaces/inkscape"
   xmlns:sodipodi="http://sodipodi.sourceforge.net/DTD/sodipodi-0.dtd"
   xmlns="http://www.w3.org/2000/svg"
   xmlns:svg="http://www.w3.org/2000/svg">
  <defs
     id="defs138" />
  <sodipodi:namedview
     id="namedview136"
     pagecolor="#ffffff"
     bordercolor="#000000"
     borderopacity="0.25"
     inkscape:showpageshadow="2"
     inkscape:pageopacity="0.0"
     inkscape:pagecheckerboard="0"
     inkscape:deskcolor="#d1d1d1"
     showgrid="false"
     inkscape:zoom="9.8333333"
     inkscape:cx="12.050847"
     inkscape:cy="12.050847"
     inkscape:window-width="1440"
     inkscape:window-height="847"
     inkscape:window-x="0"
     inkscape:window-y="25"
     inkscape:window-maximized="1"
     inkscape:current-layer="svg134" />
  <path
     id="path132"
     d="m 718.461,-252.002 80.076,80.076 q 17.077,17.076 39.269,7.67 22.193,-9.406 22.193,-33.593 v -581.843 q 0,-30.308 -21,-51.308 -21,-21 -51.308,-21 H 172.309 q -30.308,0 -51.308,21 -21,21 -21,51.308 v 455.382 q 0,30.308 21,51.308 21,21 51.308,21 z M 480,-363.54 q -13.731,0 -23.019,-9.289 -9.288,-9.288 -9.288,-23.018 0,-13.731 9.288,-23.019 9.288,-9.289 23.019,-9.289 13.731,0 23.019,9.289 9.288,9.288 9.288,23.019 0,13.73 -9.288,23.018 -9.288,9.289 -23.019,9.289 z m -0.013,-139.23 q -12.756,0 -21.371,-8.624 -8.615,-8.625 -8.615,-21.375 v -181.54 q 0,-12.75 8.628,-21.374 8.629,-8.625 21.384,-8.625 12.756,0 21.371,8.625 8.615,8.624 8.615,21.374 v 181.54 q 0,12.75 -8.628,21.375 -8.629,8.624 -21.384,8.624 z" />
</svg>
