<svg width="192" height="192" viewBox="0 0 192 192" fill="none" xmlns="http://www.w3.org/2000/svg">
<path d="M70.8 24C58.8707 24 49.2 33.6707 49.2 45.6C49.2 57.5293 58.8707 67.2 70.8 67.2H121.2C133.13 67.2 142.8 57.5293 142.8 45.6C142.8 33.6707 133.13 24 121.2 24H70.8Z" fill="black"/>
<path d="M121.2 74.4C109.27 74.4 99.6 84.0703 99.6 96C99.6 107.93 109.27 117.6 121.2 117.6C133.13 117.6 142.8 107.93 142.8 96C142.8 84.0703 133.13 74.4 121.2 74.4Z" fill="black"/>
<path d="M49.2 96C49.2 84.0703 58.8707 74.4 70.8 74.4H92.4V117.6H70.8C58.8707 117.6 49.2 107.93 49.2 96Z" fill="black"/>
<path d="M70.8 124.8C58.8707 124.8 49.2 134.47 49.2 146.4C49.2 158.33 58.8707 168 70.8 168C82.7297 168 92.4 158.33 92.4 146.4V124.8H70.8Z" fill="black"/>
</svg>
