<?xml version="1.0" encoding="UTF-8" standalone="no"?>
<svg
   width="24"
   height="24"
   viewBox="0 0 24 24"
   fill="none"
   version="1.1"
   id="svg6"
   sodipodi:docname="firefox_beta.svg"
   inkscape:version="1.1 (c68e22c387, 2021-05-23)"
   xmlns:inkscape="http://www.inkscape.org/namespaces/inkscape"
   xmlns:sodipodi="http://sodipodi.sourceforge.net/DTD/sodipodi-0.dtd"
   xmlns="http://www.w3.org/2000/svg"
   xmlns:svg="http://www.w3.org/2000/svg">
  <defs
     id="defs10" />
  <sodipodi:namedview
     id="namedview8"
     pagecolor="#ffffff"
     bordercolor="#666666"
     borderopacity="1.0"
     inkscape:pageshadow="2"
     inkscape:pageopacity="0.0"
     inkscape:pagecheckerboard="0"
     showgrid="false"
     inkscape:zoom="33.833333"
     inkscape:cx="11.985222"
     inkscape:cy="12.014778"
     inkscape:window-width="1920"
     inkscape:window-height="1001"
     inkscape:window-x="-9"
     inkscape:window-y="-9"
     inkscape:window-maximized="1"
     inkscape:current-layer="svg6" />
  <path
     id="path4"
     style="fill:#000000;stroke:none"
     d="M 20.3516,8.3722 C 19.9599,7.40981 19.1666,6.37073 18.5437,6.04237 19.0507,7.0575 19.3442,8.0762 19.4563,8.83629 L 19.458,8.85161 C 18.8495,7.30229 17.9882,6.30502 17.0926,5.26793 16.4883,4.56824 15.8683,3.85042 15.2998,2.93272 L 15.2982,2.93009 C 15.2275,2.81573 15.1566,2.70111 15.0875,2.58029 15.0521,2.51813 15.019,2.45459 14.9883,2.38983 14.9298,2.27426 14.8847,2.15214 14.8539,2.02591 14.8541,2.01993 14.8521,2.01408 14.8483,2.00951 14.8445,2.00495 14.8392,2.00199 14.8334,2.00124 c -0.0055,-0.00165 -0.0114,-0.00165 -0.0169,0 L 14.812,2.00373 14.8084,2.0057 14.8054,2.00737 14.8092,2.0022 C 12.8053,3.20121 11.9747,4.69842 11.7611,6.03445 11.142,6.07038 10.5355,6.22848 9.97519,6.5 l 0.45361,0.87959 c 0.4331,-0.20876 0.6921,-0.22561 1.1206,-0.2535 0.0551,-0.00358 0.113,-0.00735 0.1745,-0.01174 l 0.0163,-0.00114 c 0.0121,-8.4e-4 0.0243,-0.00168 0.0364,-0.00269 0.0741,-0.0046 0.1482,-0.0073 0.2224,-0.00808 0.4376,-0.00312 0.8732,0.05852 1.2934,0.18299 0.0147,0.00438 0.0291,0.00917 0.0435,0.01396 l 0.0295,0.00964 c 0.0698,0.0218 0.1391,0.04532 0.2077,0.07056 0.0503,0.01907 0.1002,0.03905 0.1497,0.05991 0.0403,0.01662 0.0806,0.03326 0.1203,0.05099 0.0619,0.02802 0.1231,0.05749 0.1837,0.08837 l 0.0022,0.0011 c 0.0271,0.01373 0.0542,0.02744 0.0809,0.04169 0.0592,0.03171 0.1176,0.06475 0.1754,0.0991 0.0372,0.02208 0.0741,0.04476 0.1107,0.06803 0.6528,0.41256 1.1945,0.98502 1.576,1.66548 -0.4812,-0.34534 -1.3429,-0.68639 -2.173,-0.5389 3.2415,1.65544 2.3713,7.35594 -2.1204,7.14074 -0.4,-0.0167 -0.7953,-0.0945 -1.1727,-0.231 -0.0893,-0.0343 -0.1775,-0.0711 -0.2647,-0.1106 -0.0509,-0.0237 -0.1017,-0.0476 -0.1519,-0.0741 -1.10062,-0.5811 -2.0094,-1.6791 -2.12295,-3.0126 0,0 0.41599,-1.5834 2.97875,-1.5834 0.277,0 1.069,-0.7897 1.0837,-1.0187 C 12.0277,10.0012 11.8588,9.91638 11.6106,9.79177 11.1009,9.53583 10.2567,9.11203 9.84548,8.69812 l -0.09692,-0.09759 -3e-5,-3e-5 C 9.48649,8.33657 9.34922,8.19831 9.2262,8.09176 9.15165,8.02746 9.07372,7.96736 8.99277,7.91171 8.78733,7.17759 8.77859,6.40058 8.96745,5.66182 8.04169,6.09247 7.32158,6.77315 6.79812,7.37415 H 6.79395 C 6.43665,6.9119 6.46189,5.38705 6.48225,5.06868 6.47798,5.04891 6.21574,5.20773 6.18135,5.23164 5.86611,5.46153 5.57139,5.71945 5.30063,6.00237 4.99253,6.32153 4.71101,6.66638 4.45901,7.03333 3.87952,7.8723 3.46855,8.82024 3.24986,9.82243 L 3.24935,9.82477 C 3.24194,9.85856 3.16188,10.2236 3.10286,10.6708 3.09249,10.7429 3.08288,10.815 3.07403,10.8873 3.0531,11.0266 3.03683,11.1784 3.02078,11.4147 l -0.00107,0.0159 -7.3e-4,0.0113 c -0.00669,0.1021 -0.01271,0.2042 -0.01804,0.3063 0,0.0079 -2.4e-4,0.0157 -4.7e-4,0.0235 C 3.00023,11.7795 3,11.7873 3,11.7952 c 0,4.7343 3.49945,8.6338 8.0003,9.1474 L 11,19.9405 C 10.9999,17.7644 12.7644,16 14.9404,16 h 4.7263 0.0255 0.3384 c 0.4123,-0.8187 0.708,-1.7088 0.8646,-2.6472 0.0109,-0.0839 0.0202,-0.1681 0.0295,-0.2526 l 0.0115,-0.1025 C 21.1153,11.419 20.9163,9.75976 20.3516,8.3722 Z M 14.9404,17 c -1.6237,0 -2.9405,1.3167 -2.9404,2.9404 0,0.4787 5e-4,0.9574 5e-4,1.436 0,0.2209 0.179,0.3999 0.3999,0.3999 h 6.8588 c 1.6238,0 2.9399,-1.3164 2.9399,-2.9404 v -1.436 C 22.1991,17.179 22.0201,17 21.7992,17 c -2.2243,0 -4.5935,0 -6.8588,0 z m -1.1733,1.4004 h 0.8242 c 0.4422,0 0.6904,0.1991 0.6904,0.5566 0.0033,0.082 -0.0165,0.1633 -0.057,0.2347 -0.0406,0.0714 -0.1003,0.13 -0.1725,0.1691 0.1665,0.0848 0.2593,0.2349 0.2593,0.4424 0,0.393 -0.2728,0.5894 -0.7148,0.5894 h -0.8296 z m 1.913,0 h 1.3394 v 0.3628 h -0.9546 v 0.4477 h 0.9546 v 0.3628 h -0.9546 v 0.4531 h 0.9546 v 0.3658 h -1.3394 z m 1.67,0 h 1.4814 v 0.3545 h -0.5483 v 1.6377 h -0.3794 v -1.6377 h -0.5537 z m 2.1337,0 h 0.3789 l 0.753,1.9922 h -0.3956 l -0.1308,-0.3633 h -0.832 l -0.1314,0.3633 h -0.3955 z m -5.3373,0.3413 v 0.4609 h 0.4585 c 0.2047,0 0.2919,-0.1008 0.2919,-0.2373 0,-0.1392 -0.0956,-0.2236 -0.2973,-0.2236 z m 5.5282,0.147 -0.2895,0.7915 h 0.5762 z m -5.5282,0.6606 v 0.4966 h 0.4555 c 0.2103,0 0.3194,-0.0955 0.3194,-0.251 0,-0.1552 -0.0925,-0.2456 -0.3355,-0.2456 z" />
</svg>
