<?xml version="1.0" encoding="UTF-8" standalone="no"?>
<svg
   width="24"
   height="24"
   viewBox="0 0 24 24"
   fill="none"
   version="1.1"
   id="svg4"
   sodipodi:docname="firefox.svg"
   inkscape:version="1.1 (c68e22c387, 2021-05-23)"
   xmlns:inkscape="http://www.inkscape.org/namespaces/inkscape"
   xmlns:sodipodi="http://sodipodi.sourceforge.net/DTD/sodipodi-0.dtd"
   xmlns="http://www.w3.org/2000/svg"
   xmlns:svg="http://www.w3.org/2000/svg">
  <defs
     id="defs8" />
  <sodipodi:namedview
     id="namedview6"
     pagecolor="#ffffff"
     bordercolor="#666666"
     borderopacity="1.0"
     inkscape:pageshadow="2"
     inkscape:pageopacity="0.0"
     inkscape:pagecheckerboard="0"
     showgrid="false"
     inkscape:zoom="33.833333"
     inkscape:cx="11.985222"
     inkscape:cy="12.014778"
     inkscape:window-width="1920"
     inkscape:window-height="1001"
     inkscape:window-x="-9"
     inkscape:window-y="-9"
     inkscape:window-maximized="1"
     inkscape:current-layer="svg4" />
  <path
     id="path2"
     style="fill:#000000;stroke:none"
     d="m 18.5437,6.04237 c 0.6229,0.32836 1.4162,1.36744 1.8079,2.32983 0.5647,1.38756 0.7637,3.0468 0.5846,4.6255 -0.0135,0.1188 -0.0257,0.2373 -0.041,0.3551 C 20.1706,17.6946 16.4696,21 12.0122,21 7.035,21 3,16.8789 3,11.7952 3,11.7795 3.00094,11.7639 3.00094,11.7482 3.00627,11.6461 3.01229,11.544 3.01898,11.4419 3.01961,11.4328 3.02006,11.4238 3.02078,11.4147 3.03683,11.1784 3.0531,11.0266 3.07403,10.8873 3.08288,10.815 3.09249,10.7429 3.10286,10.6708 3.16399,10.2076 3.24769,9.83258 3.24986,9.82243 3.46855,8.82024 3.87952,7.8723 4.45901,7.03333 4.71101,6.66638 4.99253,6.32153 5.30063,6.00237 5.57139,5.71945 5.86611,5.46153 6.18135,5.23164 6.21574,5.20773 6.47798,5.04891 6.48225,5.06868 6.46189,5.38705 6.43665,6.9119 6.79395,7.37415 H 6.79812 C 7.32158,6.77315 8.04169,6.09247 8.96745,5.66182 8.77859,6.40058 8.78733,7.17759 8.99277,7.91171 9.07372,7.96736 9.15165,8.02746 9.2262,8.09176 9.36357,8.21074 9.51871,8.36925 9.84548,8.69812 10.457,9.31356 12.0255,9.95087 12.0288,10.0257 c -0.0147,0.229 -0.8067,1.0187 -1.0837,1.0187 -2.56276,0 -2.97875,1.5834 -2.97875,1.5834 0.11355,1.3335 1.02233,2.4315 2.12295,3.0126 0.0502,0.0265 0.101,0.0504 0.1519,0.0741 0.0872,0.0395 0.1754,0.0763 0.2647,0.1106 0.3774,0.1365 0.7727,0.2143 1.1727,0.231 4.4917,0.2152 5.3619,-5.4853 2.1204,-7.14074 0.8301,-0.14749 1.6918,0.19356 2.173,0.5389 C 15.5905,8.7738 15.0488,8.20134 14.396,7.78878 14.3594,7.76551 14.3225,7.74283 14.2853,7.72075 14.2275,7.6864 14.1691,7.65336 14.1099,7.62165 14.0832,7.6074 14.0561,7.59369 14.029,7.57996 L 14.0268,7.57886 C 13.9662,7.54798 13.905,7.51851 13.8431,7.49049 13.8034,7.47276 13.7631,7.45614 13.7229,7.43952 l -10e-5,-2e-5 C 13.6733,7.41864 13.6234,7.39866 13.5731,7.37959 13.5045,7.35435 13.4352,7.33083 13.3654,7.30903 13.341,7.30129 13.317,7.29279 13.2924,7.28543 12.8722,7.16096 12.4366,7.09932 11.999,7.10244 11.9248,7.10322 11.8507,7.10592 11.7766,7.11052 11.759,7.11198 11.7414,7.11309 11.7239,7.11435 11.1847,7.15282 10.9176,7.14397 10.4288,7.37959 L 9.97519,6.5 C 10.5355,6.22848 11.142,6.07038 11.7611,6.03445 11.9747,4.69842 12.8053,3.20121 14.8092,2.0022 L 14.8054,2.00737 C 14.8075,2.00638 14.81,2.0045 14.812,2.00373 l 0.0045,-0.00249 c 0.0055,-0.00165 0.0114,-0.00165 0.0169,0 0.0058,7.5e-4 0.0111,0.00371 0.0149,0.00827 0.0038,0.00457 0.0058,0.01042 0.0056,0.0164 0.0308,0.12623 0.0759,0.24835 0.1344,0.36392 0.0307,0.06476 0.0638,0.1283 0.0992,0.19046 0.0691,0.12082 0.14,0.23544 0.2107,0.3498 l 0.0016,0.00263 C 16.711,5.21064 18.439,6.257 19.458,8.85161 L 19.4563,8.83629 C 19.3442,8.0762 19.0507,7.0575 18.5437,6.04237 Z" />
</svg>
