<?xml version="1.0" encoding="UTF-8" standalone="no"?>
<svg
   width="24"
   height="24"
   viewBox="0 0 24 24"
   fill="none"
   version="1.1"
   id="svg4"
   sodipodi:docname="foxmmm.svg"
   inkscape:version="1.1 (c68e22c387, 2021-05-23)"
   xmlns:inkscape="http://www.inkscape.org/namespaces/inkscape"
   xmlns:sodipodi="http://sodipodi.sourceforge.net/DTD/sodipodi-0.dtd"
   xmlns="http://www.w3.org/2000/svg"
   xmlns:svg="http://www.w3.org/2000/svg">
  <defs
     id="defs8" />
  <sodipodi:namedview
     id="namedview6"
     pagecolor="#ffffff"
     bordercolor="#666666"
     borderopacity="1.0"
     inkscape:pageshadow="2"
     inkscape:pageopacity="0.0"
     inkscape:pagecheckerboard="0"
     showgrid="false"
     inkscape:zoom="16.916667"
     inkscape:cx="12.029557"
     inkscape:cy="12.029557"
     inkscape:window-width="1920"
     inkscape:window-height="1001"
     inkscape:window-x="-9"
     inkscape:window-y="-9"
     inkscape:window-maximized="1"
     inkscape:current-layer="svg4" />
  <path
     d="M8.8 21H5C4.45 21 3.979 20.8043 3.587 20.413C3.19567 20.021 3 19.55 3 19V15.2C3.8 15.2 4.5 14.946 5.1 14.438C5.7 13.9293 6 13.2833 6 12.5C6 11.7167 5.7 11.0707 5.1 10.562C4.5 10.054 3.8 9.8 3 9.8V6C3 5.45 3.19567 4.97933 3.587 4.588C3.979 4.196 4.45 4 5 4H9C9 3.3 9.24167 2.70833 9.725 2.225C10.2083 1.74167 10.8 1.5 11.5 1.5C12.2 1.5 12.7917 1.74167 13.275 2.225C13.7583 2.70833 14 3.3 14 4H18C18.55 4 19.021 4.196 19.413 4.588C19.8043 4.97933 20 5.45 20 6V10C20.7 10 21.2917 10.2417 21.775 10.725C22.2583 11.2083 22.5 11.8 22.5 12.5C22.5 13.2 22.2583 13.7917 21.775 14.275C21.2917 14.7583 20.7 15 20 15V19C20 19.55 19.8043 20.021 19.413 20.413C19.021 20.8043 18.55 21 18 21H14.2C14.2 20.1667 13.9377 19.4583 13.413 18.875C12.8877 18.2917 12.25 18 11.5 18C10.75 18 10.1127 18.2917 9.588 18.875C9.06267 19.4583 8.8 20.1667 8.8 21Z"
     fill="#FFF1C0"
     id="path2"
     style="fill:#000000;stroke:none" />
</svg>
