<?xml version="1.0" encoding="UTF-8" standalone="no"?>
<svg
   width="24"
   height="24"
   viewBox="0 0 24 24"
   fill="none"
   version="1.1"
   id="svg4"
   sodipodi:docname="franco_kernel_manager.svg"
   inkscape:version="1.1 (c68e22c387, 2021-05-23)"
   xmlns:inkscape="http://www.inkscape.org/namespaces/inkscape"
   xmlns:sodipodi="http://sodipodi.sourceforge.net/DTD/sodipodi-0.dtd"
   xmlns="http://www.w3.org/2000/svg"
   xmlns:svg="http://www.w3.org/2000/svg">
  <defs
     id="defs8" />
  <sodipodi:namedview
     id="namedview6"
     pagecolor="#ffffff"
     bordercolor="#666666"
     borderopacity="1.0"
     inkscape:pageshadow="2"
     inkscape:pageopacity="0.0"
     inkscape:pagecheckerboard="0"
     showgrid="false"
     inkscape:zoom="33.833333"
     inkscape:cx="11.985222"
     inkscape:cy="12.014778"
     inkscape:window-width="1920"
     inkscape:window-height="1001"
     inkscape:window-x="-9"
     inkscape:window-y="-9"
     inkscape:window-maximized="1"
     inkscape:current-layer="svg4" />
  <path
     fill-rule="evenodd"
     clip-rule="evenodd"
     d="M4.44913 5.80313C4.54292 5.33606 4.95317 5 5.42956 5H20.7792C21.4106 5 21.8839 5.57787 21.7596 6.19687L19.5508 17.1969C19.457 17.6639 19.0468 18 18.5704 18H3.22074C2.58938 18 2.11601 17.4221 2.24031 16.8031L4.44913 5.80313ZM6.5 15H3.99998L6.51133 8H12L11.4511 9.5H8.38625L7.89103 11H9.93893L9.50981 12.5H7.44983L6.5 15ZM13.625 15H11L13.1 8H15.725L14.675 10.5L17.6652 8H20L17.1353 10.69L18.3501 15H15.6134L15.2 12L14.0557 13.148L13.625 15Z"
     fill="#FFF1C0"
     id="path2"
     style="fill:#000000;stroke:none" />
</svg>
