<?xml version="1.0" encoding="UTF-8" standalone="no"?>
<svg
   width="24"
   height="24"
   viewBox="0 0 24 24"
   fill="none"
   version="1.1"
   id="svg4"
   sodipodi:docname="github.svg"
   inkscape:version="1.1 (c68e22c387, 2021-05-23)"
   xmlns:inkscape="http://www.inkscape.org/namespaces/inkscape"
   xmlns:sodipodi="http://sodipodi.sourceforge.net/DTD/sodipodi-0.dtd"
   xmlns="http://www.w3.org/2000/svg"
   xmlns:svg="http://www.w3.org/2000/svg">
  <defs
     id="defs8" />
  <sodipodi:namedview
     id="namedview6"
     pagecolor="#ffffff"
     bordercolor="#666666"
     borderopacity="1.0"
     inkscape:pageshadow="2"
     inkscape:pageopacity="0.0"
     inkscape:pagecheckerboard="0"
     showgrid="false"
     inkscape:zoom="16.916667"
     inkscape:cx="12.029557"
     inkscape:cy="12.029557"
     inkscape:window-width="1920"
     inkscape:window-height="1001"
     inkscape:window-x="-9"
     inkscape:window-y="-9"
     inkscape:window-maximized="1"
     inkscape:current-layer="svg4" />
  <path
     id="path2"
     d="M 12,2 C 10.6868,2 9.38642,2.25866 8.17317,2.7612 6.95991,3.26375 5.85752,4.00035 4.92893,4.92893 3.05357,6.8043 2,9.34784 2,12 c 0,4.42 2.87,8.17 6.84,9.5 0.5,0.08 0.66,-0.23 0.66,-0.5 0,-0.23 0,-0.86 0,-1.69 C 6.73,19.91 6.14,17.97 6.14,17.97 5.68,16.81 5.03,16.5 5.03,16.5 4.12,15.88 5.1,15.9 5.1,15.9 c 1,0.07 1.53,1.03 1.53,1.03 C 7.5,18.45 8.97,18 9.54,17.76 9.63,17.11 9.89,16.67 10.17,16.42 7.95,16.17 5.62,15.31 5.62,11.5 5.62,10.39 6,9.5 6.65,8.79 6.55,8.54 6.2,7.5 6.75,6.15 c 0,0 0.84,-0.27 2.75,1.02 0.79,-0.22 1.65,-0.33 2.5,-0.33 0.85,0 1.71,0.11 2.5,0.33 1.91,-1.29 2.75,-1.02 2.75,-1.02 0.55,1.35 0.2,2.39 0.1,2.64 0.65,0.71 1.03,1.6 1.03,2.71 0,3.82 -2.34,4.66 -4.57,4.91 0.36,0.31 0.69,0.92 0.69,1.85 0,1.34 0,2.42 0,2.74 0,0.27 0.16,0.59 0.67,0.5 C 19.14,20.16 22,16.42 22,12 22,10.6868 21.7413,9.38642 21.2388,8.17317 20.7362,6.95991 19.9997,5.85752 19.0711,4.92893 18.1425,4.00035 17.0401,3.26375 15.8268,2.7612 14.6136,2.25866 13.3132,2 12,2 Z"
     style="fill:#000000;stroke:none" />
</svg>
