<?xml version="1.0" encoding="UTF-8" standalone="no"?>
<svg
   width="24"
   height="24"
   viewBox="0 0 24 24"
   fill="none"
   version="1.1"
   id="svg8"
   sodipodi:docname="gmail.svg"
   inkscape:version="1.1 (c68e22c387, 2021-05-23)"
   xmlns:inkscape="http://www.inkscape.org/namespaces/inkscape"
   xmlns:sodipodi="http://sodipodi.sourceforge.net/DTD/sodipodi-0.dtd"
   xmlns="http://www.w3.org/2000/svg"
   xmlns:svg="http://www.w3.org/2000/svg">
  <defs
     id="defs12" />
  <sodipodi:namedview
     id="namedview10"
     pagecolor="#ffffff"
     bordercolor="#666666"
     borderopacity="1.0"
     inkscape:pageshadow="2"
     inkscape:pageopacity="0.0"
     inkscape:pagecheckerboard="0"
     showgrid="false"
     inkscape:zoom="23.923779"
     inkscape:cx="12.017332"
     inkscape:cy="11.975533"
     inkscape:window-width="1920"
     inkscape:window-height="1001"
     inkscape:window-x="-9"
     inkscape:window-y="-9"
     inkscape:window-maximized="1"
     inkscape:current-layer="svg8" />
  <path
     id="path6"
     d="m 6.57166,13.7035 v 5.8962 H 3.36282 c -0.36471,0 -0.71448,-0.1463 -0.97236,-0.4066 C 2.13257,18.9327 1.9877,18.5795 1.9877,18.2113 v -7.9338 z m 10.85664,0 v 5.8962 h 3.2089 c 0.3647,0 0.7145,-0.1463 0.9723,-0.4066 0.2579,-0.2604 0.4028,-0.6136 0.4028,-0.9818 V 10.2775 Z M 5.2643,4.81179 C 3.91406,3.8036 1.98767,4.76287 1.98767,6.44227 v 1.81119 l 4.55111,3.39684 5.45702,4.0892 5.4654,-4.0892 4.5511,-3.39684 V 6.44227 c 0,-1.6794 -1.9264,-2.63867 -3.2766,-1.63048 l -6.7356,5.02746 z"
     style="fill:#000000;stroke:none" />
</svg>
