<?xml version="1.0" encoding="UTF-8" standalone="no"?>
<svg
   width="24"
   height="24"
   viewBox="0 0 24 24"
   fill="none"
   version="1.1"
   id="svg6"
   sodipodi:docname="google_messages.svg"
   inkscape:version="1.1 (c68e22c387, 2021-05-23)"
   xmlns:inkscape="http://www.inkscape.org/namespaces/inkscape"
   xmlns:sodipodi="http://sodipodi.sourceforge.net/DTD/sodipodi-0.dtd"
   xmlns="http://www.w3.org/2000/svg"
   xmlns:svg="http://www.w3.org/2000/svg">
  <defs
     id="defs10" />
  <sodipodi:namedview
     id="namedview8"
     pagecolor="#ffffff"
     bordercolor="#666666"
     borderopacity="1.0"
     inkscape:pageshadow="2"
     inkscape:pageopacity="0.0"
     inkscape:pagecheckerboard="0"
     showgrid="false"
     inkscape:zoom="16.916667"
     inkscape:cx="12.029557"
     inkscape:cy="12.029557"
     inkscape:window-width="1920"
     inkscape:window-height="1001"
     inkscape:window-x="-9"
     inkscape:window-y="-9"
     inkscape:window-maximized="1"
     inkscape:current-layer="svg6" />
  <path
     id="path4"
     d="M 2.52098,11 C 2.59518,6.81067 5.83125,3.44594 9.82268,3.44594 h 6.00212 c 1.1428,0 2.2183,0.27757 3.1752,0.76686 C 17.8854,2.85498 16.241,2 14.4073,2 H 8.07179 C 4.71356,2 2,4.86152 2,8.40285 2,9.32612 2.18778,10.2068 2.52098,11 Z M 20.3001,6.68744 C 19.2271,5.61046 17.7716,4.93851 16.1508,4.93851 H 9.95756 c -3.28281,0 -5.93543,2.74083 -5.93543,6.13139 0,0.5869 0.08235,1.1627 0.23691,1.7169 0.27869,0.9703 0.78475,1.8766 1.49729,2.6021 L 11.764,21.7337 C 11.8875,21.8718 12.0218,22 12.2796,22 c 0.2482,0 0.5162,-0.1282 0.5162,-0.4691 v -4.3295 h 3.2619 c 3.2518,0 5.9766,-2.6656 6.0285,-6.0248 0.0311,-1.75942 -0.6606,-3.34807 -1.7861,-4.48916 z"
     style="fill:#000000;stroke:none" />
</svg>
