<?xml version="1.0" encoding="UTF-8" standalone="no"?>
<svg
   width="24"
   height="24"
   viewBox="0 0 24 24"
   fill="none"
   version="1.1"
   id="svg12"
   sodipodi:docname="google_chrome_canary.svg"
   inkscape:version="1.1 (c68e22c387, 2021-05-23)"
   xmlns:inkscape="http://www.inkscape.org/namespaces/inkscape"
   xmlns:sodipodi="http://sodipodi.sourceforge.net/DTD/sodipodi-0.dtd"
   xmlns="http://www.w3.org/2000/svg"
   xmlns:svg="http://www.w3.org/2000/svg">
  <defs
     id="defs16" />
  <sodipodi:namedview
     id="namedview14"
     pagecolor="#ffffff"
     bordercolor="#666666"
     borderopacity="1.0"
     inkscape:pageshadow="2"
     inkscape:pageopacity="0.0"
     inkscape:pagecheckerboard="0"
     showgrid="false"
     inkscape:zoom="23.923779"
     inkscape:cx="12.017332"
     inkscape:cy="11.975533"
     inkscape:window-width="1920"
     inkscape:window-height="1001"
     inkscape:window-x="-9"
     inkscape:window-y="-9"
     inkscape:window-maximized="1"
     inkscape:current-layer="svg12" />
  <path
     id="path10"
     style="fill:#000000;stroke:none"
     d="M 5.41583,11.2272 3.16522,7.32846 C 2.52322,8.53902 2.13798,9.86624 2.03081,11.2272 Z m 4.55744,5.698 c 1.08153,0.4477 2.28163,0.5239 3.41093,0.2164 l -2.7553,4.7711 C 9.03628,21.693 7.51986,21.0919 6.20863,20.161 4.8974,19.2302 3.83029,17.9968 3.09794,16.5649 2.49506,15.3875 2.13374,14.1047 2.0307,12.7919 h 4.28832 l 1.08406,1.8779 0.00501,-0.0028 c 0.58166,1.016 1.48361,1.81 2.56518,2.2582 z M 17.1278,10.5639 C 16.8827,9.69572 16.419,8.89998 15.7759,8.25601 h 5.5085 c 0.605,1.48862 0.8419,3.10129 0.6901,4.70159 -0.1513,1.5993 -0.6868,3.1391 -1.5598,4.4881 -0.8736,1.3491 -2.0597,2.4674 -3.4571,3.2603 -1.398,0.793 -2.9667,1.2367 -4.5727,1.294 l 4.2318,-7.3296 -0.0061,-0.0034 c 0.2263,-0.3897 0.4003,-0.804 0.5203,-1.2324 L 20,12 Z m -1.3647,1.4456 c 0,2.0731 -1.6804,3.7536 -3.7535,3.7536 -2.07303,0 -3.7535,-1.6805 -3.7535,-3.7536 0,-2.07302 1.68047,-3.75349 3.7535,-3.75349 2.0731,0 3.7535,1.68047 3.7535,3.75349 z M 13,12 c 0.5523,0 1,-0.4477 1,-1 0,-0.5523 -0.4477,-1 -1,-1 -0.5523,0 -1,0.4477 -1,1 0,0.5523 0.4477,1 1,1 z M 6.87871,10.6332 C 7.18066,9.50328 7.8474,8.50457 8.77549,7.79168 9.70303,7.07934 10.8397,6.69287 12.0096,6.69176 h 8.4691 C 19.6262,5.32881 18.4579,4.19163 17.0716,3.37698 15.6859,2.56233 14.1233,2.09467 12.5179,2.01292 10.9125,1.93118 9.311,2.23813 7.84907,2.90821 6.3877,3.57772 5.10928,4.59034 4.12335,5.85986 Z" />
</svg>
