<?xml version="1.0" encoding="UTF-8" standalone="no"?>
<svg
   width="24"
   height="24"
   viewBox="0 0 24 24"
   fill="none"
   version="1.1"
   id="svg10"
   sodipodi:docname="google_contacts.svg"
   inkscape:version="1.1 (c68e22c387, 2021-05-23)"
   xmlns:inkscape="http://www.inkscape.org/namespaces/inkscape"
   xmlns:sodipodi="http://sodipodi.sourceforge.net/DTD/sodipodi-0.dtd"
   xmlns="http://www.w3.org/2000/svg"
   xmlns:svg="http://www.w3.org/2000/svg">
  <defs
     id="defs14" />
  <sodipodi:namedview
     id="namedview12"
     pagecolor="#ffffff"
     bordercolor="#666666"
     borderopacity="1.0"
     inkscape:pageshadow="2"
     inkscape:pageopacity="0.0"
     inkscape:pagecheckerboard="0"
     showgrid="false"
     inkscape:zoom="16.916667"
     inkscape:cx="12.029557"
     inkscape:cy="12.029557"
     inkscape:window-width="1920"
     inkscape:window-height="1001"
     inkscape:window-x="-9"
     inkscape:window-y="-9"
     inkscape:window-maximized="1"
     inkscape:current-layer="svg10" />
  <path
     d="M7 17C7 14.2386 9.23858 12 12 12H16C18.2091 12 20 13.7909 20 16V18C20 20.2091 18.2091 22 16 22H8C7.44772 22 7 21.5523 7 21V17Z"
     fill="#FFF1C0"
     id="path4"
     style="fill:#000000;stroke:none" />
  <path
     id="path8"
     style="fill:#000000;stroke:none"
     d="m 8,22 h 8 c 2.2091,0 4,-1.7909 4,-4 v -2 c 0,-2.2091 -1.7909,-4 -4,-4 h -4 c -2.76142,0 -5,2.2386 -5,5 v 4 c 0,0.5523 0.44772,1 1,1 z M 7.62704,12.1909 C 5.53317,12.7875 4,14.7147 4,17 v 4 c 0,0.5523 0.44772,1 1,1 H 5.70802 C 5.57422,21.6938 5.5,21.3556 5.5,21 v -4 c 0,-1.9059 0.82027,-3.6202 2.12704,-4.8091 z M 16,6 a 4,4 0 0 1 -4,4 4,4 0 0 1 -4,-4 4,4 0 0 1 4,-4 4,4 0 0 1 4,4 z" />
</svg>
