<?xml version="1.0" encoding="UTF-8" standalone="no"?>
<svg
   width="24"
   height="24"
   viewBox="0 0 24 24"
   fill="none"
   version="1.1"
   id="svg8"
   sodipodi:docname="google_meet.svg"
   inkscape:version="1.1 (c68e22c387, 2021-05-23)"
   xmlns:inkscape="http://www.inkscape.org/namespaces/inkscape"
   xmlns:sodipodi="http://sodipodi.sourceforge.net/DTD/sodipodi-0.dtd"
   xmlns="http://www.w3.org/2000/svg"
   xmlns:svg="http://www.w3.org/2000/svg">
  <defs
     id="defs12" />
  <sodipodi:namedview
     id="namedview10"
     pagecolor="#ffffff"
     bordercolor="#666666"
     borderopacity="1.0"
     inkscape:pageshadow="2"
     inkscape:pageopacity="0.0"
     inkscape:pagecheckerboard="0"
     showgrid="false"
     inkscape:zoom="33.833333"
     inkscape:cx="11.985222"
     inkscape:cy="12.014778"
     inkscape:window-width="1920"
     inkscape:window-height="1001"
     inkscape:window-x="-9"
     inkscape:window-y="-9"
     inkscape:window-maximized="1"
     inkscape:current-layer="svg8" />
  <path
     id="path6"
     d="m 22.0002,17.5181 c 0,0.6553 -0.7672,1.0105 -1.2669,0.5865 l -2.836,-2.4062 v 2.7119 c 0,0.8496 -0.6888,1.5384 -1.5384,1.5384 H 8.5 V 15 H 13 v -2.5437 l 4.8973,-4.15856 v 0.00405 l 2.836,-2.40625 C 21.233,5.47152 22.0002,5.8267 22.0002,6.48208 Z M 17.8973,6 V 5.58976 C 17.8973,4.7401 17.2085,4.0513 16.3589,4.0513 H 6.8718 L 1.99988,8.92304 v 9.48726 c 0,0.8496 0.68878,1.5384 1.53845,1.5384 H 7 V 10.5 H 2 V 9 h 11 v 1.1586 z M 16.3589,19.9487 H 9 V 15 h 4 v -2.5437 l 4.8973,-4.15855 v 0.00404 l 2.836,-2.40625 C 21.233,5.47152 22.0002,5.8267 22.0002,6.48208 V 17.5181 c 0,0.6553 -0.7672,1.0105 -1.2669,0.5865 l -2.836,-2.4062 v 2.7119 c 0,0.8496 -0.6888,1.5384 -1.5384,1.5384 z"
     style="fill:#000000;stroke:none" />
</svg>
