<svg width="24" height="24" viewBox="0 0 24 24" fill="none" xmlns="http://www.w3.org/2000/svg">
<path d="M3.30947 12.0666V16.1943H2V6.00068H5.47296C5.88751 5.99203 6.29967 6.06555 6.68565 6.21701C7.07164 6.36847 7.42381 6.59488 7.72184 6.88316C8.02287 7.15393 8.26246 7.48601 8.42449 7.85707C8.58652 8.22814 8.66725 8.62958 8.66124 9.03444C8.66986 9.44145 8.59038 9.84552 8.42823 10.219C8.26609 10.5924 8.02512 10.9263 7.72184 11.1979C7.11455 11.777 6.36492 12.0663 5.47296 12.0657L3.30947 12.0666ZM3.30947 7.25567V10.814H5.50549C5.74624 10.8212 5.98582 10.778 6.20893 10.6872C6.43203 10.5965 6.63373 10.4601 6.80114 10.287C6.96767 10.1251 7.10004 9.93142 7.19044 9.71747C7.28083 9.50352 7.3274 9.27361 7.3274 9.04135C7.3274 8.80909 7.28083 8.57918 7.19044 8.36523C7.10004 8.15128 6.96767 7.95763 6.80114 7.79572C6.63583 7.61891 6.43483 7.47925 6.21146 7.386C5.98809 7.29276 5.74745 7.24805 5.50549 7.25485L3.30947 7.25567Z" fill="black"/>
<path d="M11.6787 8.99214C12.6466 8.99214 13.4106 9.25078 13.9707 9.76807C14.5308 10.2854 14.8106 10.9946 14.8101 11.8958V16.1943H13.5575V15.2264H13.5006C12.9584 16.0235 12.2372 16.422 11.3371 16.422C10.5688 16.422 9.92598 16.1943 9.4087 15.7388C9.16045 15.5297 8.96198 15.2679 8.82775 14.9725C8.69352 14.677 8.62691 14.3553 8.63277 14.0308C8.63277 13.3091 8.90551 12.7351 9.45099 12.3089C9.99647 11.8827 10.7247 11.6691 11.6356 11.668C12.4132 11.668 13.0535 11.8104 13.5567 12.095V11.7957C13.5582 11.5745 13.5104 11.3557 13.4169 11.1553C13.3233 10.9548 13.1864 10.7777 13.0159 10.6367C12.6696 10.3243 12.2183 10.1538 11.7519 10.1593C11.0205 10.1593 10.4416 10.4678 10.0155 11.0849L8.86214 10.3586C9.49654 9.44761 10.4354 8.99214 11.6787 8.99214ZM9.98454 14.0592C9.98367 14.2259 10.0226 14.3903 10.0982 14.5389C10.1737 14.6874 10.2837 14.8158 10.4189 14.9132C10.7085 15.1411 11.0679 15.2617 11.4364 15.2548C11.9889 15.2539 12.5186 15.034 12.9093 14.6432C13.3431 14.2349 13.56 13.7559 13.56 13.206C13.1517 12.8807 12.5823 12.718 11.852 12.718C11.32 12.718 10.8765 12.8463 10.5213 13.1028C10.1627 13.363 9.98454 13.6794 9.98454 14.0592Z" fill="black"/>
<path d="M22 9.21988L17.6275 19.2687H16.2757L17.8983 15.7526L15.0232 9.21988H16.4465L18.5246 14.23H18.5531L20.5742 9.21988H22Z" fill="black"/>
</svg>
