<?xml version="1.0" encoding="UTF-8" standalone="no"?>
<svg
   width="24"
   height="24"
   viewBox="0 0 24 24"
   fill="none"
   version="1.1"
   id="svg8"
   sodipodi:docname="google_drive.svg"
   inkscape:version="1.1 (c68e22c387, 2021-05-23)"
   xmlns:inkscape="http://www.inkscape.org/namespaces/inkscape"
   xmlns:sodipodi="http://sodipodi.sourceforge.net/DTD/sodipodi-0.dtd"
   xmlns="http://www.w3.org/2000/svg"
   xmlns:svg="http://www.w3.org/2000/svg">
  <defs
     id="defs12" />
  <sodipodi:namedview
     id="namedview10"
     pagecolor="#ffffff"
     bordercolor="#666666"
     borderopacity="1.0"
     inkscape:pageshadow="2"
     inkscape:pageopacity="0.0"
     inkscape:pagecheckerboard="0"
     showgrid="false"
     inkscape:zoom="16.916667"
     inkscape:cx="12.029557"
     inkscape:cy="12.029557"
     inkscape:window-width="1920"
     inkscape:window-height="1001"
     inkscape:window-x="-9"
     inkscape:window-y="-9"
     inkscape:window-maximized="1"
     inkscape:current-layer="svg8" />
  <path
     id="path6"
     style="fill:#000000;stroke:none"
     d="M 2.83472,13.1548 7.53816,5.00709 10.8475,10.739 9.45389,13.1551 Z M 13.3972,15.1553 2,15.1547 c 0,0.3551 0.09164,0.7109 0.27491,1.0316 l 1.23712,2.1421 0.88201,1.5235 c 0.18328,0.3207 0.44674,0.5727 0.75602,0.756 0.30928,0.1833 0.66438,0.2749 1.03093,0.2749 H 16.704 Z m 5.4562,5.4505 c 0.3078,-0.1831 0.57,-0.4344 0.7525,-0.7539 l 0.3666,-0.63 1.7526,-3.0356 C 21.9083,15.8656 22,15.5105 22,15.1554 h -0.0115 c 0,-0.3551 -0.0916,-0.7102 -0.2749,-1.0309 L 18.8156,9.08439 15.9061,4.04429 C 15.7228,3.72356 15.4593,3.47156 15.15,3.28828 14.8408,3.105 14.4857,3.01337 14.1191,3.01337 H 9.88085 c -0.36498,0 -0.71862,0.10221 -1.02697,0.27271 z" />
</svg>
