<svg width="24" height="24" viewBox="0 0 24 24" fill="none" xmlns="http://www.w3.org/2000/svg">
<path d="M2.75 19V5C2.75 4.96072 2.76664 4.90483 2.82716 4.85036C2.89029 4.79355 2.99133 4.75 3.11111 4.75H20.8889C21.0087 4.75 21.1097 4.79355 21.1728 4.85036C21.2334 4.90483 21.25 4.96072 21.25 5V19C21.25 19.0212 21.2455 19.0444 21.2341 19.0691C21.2226 19.0941 21.2032 19.1223 21.1728 19.1496C21.1423 19.1771 21.1019 19.2026 21.0521 19.2211C21.0023 19.2397 20.9467 19.25 20.8889 19.25H3.11111C3.05335 19.25 2.99768 19.2397 2.94789 19.2211C2.89814 19.2026 2.85771 19.1771 2.82716 19.1496C2.79677 19.1223 2.77739 19.0941 2.76588 19.0691C2.75451 19.0444 2.75 19.0212 2.75 19Z" stroke="black" stroke-width="1.5"/>
<path d="M15 17.5H19V19H15V17.5Z" fill="black"/>
<path d="M12 12C12.3978 12 12.7794 11.842 13.0607 11.5607C13.342 11.2794 13.5 10.8978 13.5 10.5C13.5 10.1022 13.342 9.72064 13.0607 9.43934C12.7794 9.15804 12.3978 9 12 9C11.6022 9 11.2206 9.15804 10.9393 9.43934C10.658 9.72064 10.5 10.1022 10.5 10.5C10.5 10.8978 10.658 11.2794 10.9393 11.5607C11.2206 11.842 11.6022 12 12 12ZM12 12.75C10.999 12.75 9 13.252 9 14.25V15H15V14.25C15 13.252 13.001 12.75 12 12.75Z" fill="black"/>
<path d="M15.75 10.5C15.4516 10.5 15.1655 10.6185 14.9545 10.8295C14.7435 11.0405 14.625 11.3266 14.625 11.625C14.625 11.9234 14.7435 12.2095 14.9545 12.4205C15.1655 12.6315 15.4516 12.75 15.75 12.75C16.0484 12.75 16.3345 12.6315 16.5455 12.4205C16.7565 12.2095 16.875 11.9234 16.875 11.625C16.875 11.3266 16.7565 11.0405 16.5455 10.8295C16.3345 10.6185 16.0484 10.5 15.75 10.5ZM15.75 13.313C15.58 13.313 15.37 13.333 15.148 13.371C15.351 13.606 15.5 13.908 15.5 14.25V15H18V14.437C18 13.689 16.5 13.313 15.75 13.313ZM14.02 13.748C13.713 13.924 13.5 14.155 13.5 14.438V14.5H14.5V14.25C14.5 14.168 14.468 14.088 14.332 13.963C14.2364 13.8798 14.1318 13.8077 14.02 13.748ZM8.25 10.5C7.95163 10.5 7.66548 10.6185 7.4545 10.8295C7.24353 11.0405 7.125 11.3266 7.125 11.625C7.125 11.9234 7.24353 12.2095 7.4545 12.4205C7.66548 12.6315 7.95163 12.75 8.25 12.75C8.54837 12.75 8.83452 12.6315 9.0455 12.4205C9.25647 12.2095 9.375 11.9234 9.375 11.625C9.375 11.3266 9.25647 11.0405 9.0455 10.8295C8.83452 10.6185 8.54837 10.5 8.25 10.5ZM8.25 13.313C7.5 13.313 6 13.689 6 14.437V15H8.5V14.25C8.5 13.908 8.65 13.606 8.852 13.371C8.65334 13.3345 8.45197 13.3148 8.25 13.312V13.313ZM9.98 13.748C9.86822 13.8077 9.76356 13.8798 9.668 13.963C9.532 14.088 9.5 14.168 9.5 14.25V14.5H10.5V14.437C10.5 14.155 10.287 13.924 9.98 13.748Z" fill="black"/>
</svg>
