<?xml version="1.0" encoding="UTF-8" standalone="no"?>
<svg
   width="192"
   height="192"
   data-name="Layer 1"
   viewBox="0 0 192 192"
   version="1.1"
   id="svg10"
   sodipodi:docname="google_pixel_watch.svg"
   inkscape:version="1.1 (c68e22c387, 2021-05-23)"
   xmlns:inkscape="http://www.inkscape.org/namespaces/inkscape"
   xmlns:sodipodi="http://sodipodi.sourceforge.net/DTD/sodipodi-0.dtd"
   xmlns="http://www.w3.org/2000/svg"
   xmlns:svg="http://www.w3.org/2000/svg">
  <defs
     id="defs14" />
  <sodipodi:namedview
     id="namedview12"
     pagecolor="#ffffff"
     bordercolor="#666666"
     borderopacity="1.0"
     inkscape:pageshadow="2"
     inkscape:pageopacity="0.0"
     inkscape:pagecheckerboard="0"
     showgrid="false"
     inkscape:zoom="2.1145833"
     inkscape:cx="96.236455"
     inkscape:cy="96.236455"
     inkscape:window-width="1920"
     inkscape:window-height="1001"
     inkscape:window-x="-9"
     inkscape:window-y="-9"
     inkscape:window-maximized="1"
     inkscape:current-layer="svg10" />
  <path
     d="M0 0h192v192H0z"
     style="fill:none"
     id="path2" />
  <path
     id="path4"
     style="fill:#000000;fill-opacity:1;stroke:none;stroke-width:8.64865;stroke-miterlimit:10;stroke-dasharray:none"
     d="m 86.994508,16 c -5.189189,0.735135 -11.903547,2.595017 -16.000844,8.000423 -3.47027,4.562162 -2.939612,8.841976 -4.993666,15.998733 A 54.27027,54.27027 0 0 1 55.047718,60.032939 55.610811,55.610811 0 0 0 41.502532,96 c 0,21.51351 12.810388,35.29781 15.513091,38.08699 a 60.540541,60.540541 0 0 1 8.984375,17.91385 c 2.313513,7.63244 1.750423,11.67441 4.993666,15.99874 4,5.39459 10.714358,7.2761 16.000844,8.00042 h 18.000422 c 5.18919,-0.7027 11.95549,-2.54096 15.99873,-8.00042 3.26487,-4.4 2.70364,-8.43117 5.00634,-15.99874 a 60.032432,60.032432 0 0 1 9.14696,-18.07643 C 138.05507,130.91901 150.49747,117.2 150.49747,96 c 0,-18.237838 -10.43285,-31.589865 -14.21664,-35.827703 A 58.972973,58.972973 0 0 1 126,39.999156 C 123.97838,32.745102 124.4315,28.508531 120.99366,24.000423 116.88556,18.62745 110.22736,16.735135 104.99493,16 Z m 9.00549,36.497044 A 43.513514,43.513514 0 0 1 139.50295,96 43.502703,43.502703 0 1 1 95.999998,52.497044 Z" />
  <path
     d="m82 86 14 10m0 0 21-14"
     style="fill:none;stroke:#000;stroke-miterlimit:10;stroke-linecap:round;stroke-width:8px"
     id="path8" />
</svg>
