<?xml version="1.0" encoding="UTF-8" standalone="no"?>
<svg
   width="24"
   height="24"
   viewBox="0 0 24 24"
   fill="none"
   version="1.1"
   id="svg4"
   sodipodi:docname="google_fit.svg"
   inkscape:version="1.1 (c68e22c387, 2021-05-23)"
   xmlns:inkscape="http://www.inkscape.org/namespaces/inkscape"
   xmlns:sodipodi="http://sodipodi.sourceforge.net/DTD/sodipodi-0.dtd"
   xmlns="http://www.w3.org/2000/svg"
   xmlns:svg="http://www.w3.org/2000/svg">
  <defs
     id="defs8" />
  <sodipodi:namedview
     id="namedview6"
     pagecolor="#ffffff"
     bordercolor="#666666"
     borderopacity="1.0"
     inkscape:pageshadow="2"
     inkscape:pageopacity="0.0"
     inkscape:pagecheckerboard="0"
     showgrid="false"
     inkscape:zoom="16.916667"
     inkscape:cx="12.029557"
     inkscape:cy="12.029557"
     inkscape:window-width="1920"
     inkscape:window-height="1001"
     inkscape:window-x="-9"
     inkscape:window-y="-9"
     inkscape:window-maximized="1"
     inkscape:current-layer="svg4" />
  <path
     id="path2"
     style="fill:#000000;stroke:none"
     d="m 18.2959,7.12807 c -0.7476,-0.74762 -1.9598,-0.74762 -2.7074,0 L 9.29757,13.419 9.29948,13.4209 7.0698,15.6506 3.4843,12.0653 c -1.97907,-1.9791 -1.97907,-5.18778 0,-7.16685 1.97906,-1.97907 5.18774,-1.97907 7.1668,0 L 10.9332,5.18058 8.70357,7.41026 8.42143,7.12813 c -0.74762,-0.74764 -1.95984,-0.74764 -2.70746,0 -0.74768,0.74765 -0.74768,1.95983 0,2.70747 l 1.35379,1.3538 6.29104,-6.29099 c 1.979,-1.97907 5.1877,-1.97907 7.1668,-3e-5 1.9791,1.97906 1.9791,5.18782 0,7.16692 l -8.5205,8.5206 -3.87464,-3.8747 2.22964,-2.2297 1.645,1.645 6.2908,-6.29093 c 0.7477,-0.74764 0.7476,-1.95986 0,-2.7075 z" />
</svg>
