<?xml version="1.0" encoding="UTF-8" standalone="no"?>
<svg
   width="24"
   height="24"
   viewBox="0 0 24 24"
   fill="none"
   version="1.1"
   id="svg14"
   sodipodi:docname="google_chrome_beta.svg"
   inkscape:version="1.1 (c68e22c387, 2021-05-23)"
   xmlns:inkscape="http://www.inkscape.org/namespaces/inkscape"
   xmlns:sodipodi="http://sodipodi.sourceforge.net/DTD/sodipodi-0.dtd"
   xmlns="http://www.w3.org/2000/svg"
   xmlns:svg="http://www.w3.org/2000/svg">
  <defs
     id="defs18" />
  <sodipodi:namedview
     id="namedview16"
     pagecolor="#ffffff"
     bordercolor="#666666"
     borderopacity="1.0"
     inkscape:pageshadow="2"
     inkscape:pageopacity="0.0"
     inkscape:pagecheckerboard="0"
     showgrid="false"
     inkscape:zoom="33.833333"
     inkscape:cx="11.985222"
     inkscape:cy="12.014778"
     inkscape:window-width="1920"
     inkscape:window-height="1001"
     inkscape:window-x="-9"
     inkscape:window-y="-9"
     inkscape:window-maximized="1"
     inkscape:current-layer="svg14" />
  <path
     id="path12"
     d="M 22.0191,12 C 22.0172,10.7191 21.7688,9.44783 21.2844,8.25601 h -5.5085 c 0.8258,0.82689 1.3557,1.90399 1.507,3.06339 0.0294,0.2267 0.0441,0.454 0.0443,0.6806 z M 8.25611,12 C 8.26125,9.93133 9.93974,8.25601 12.0096,8.25601 c 2.0699,0 3.7484,1.67532 3.7535,3.74399 z M 2,12 2.00024,11.9389 C 2.01191,10.3307 2.41173,8.74924 3.16522,7.32846 L 5.86192,12 Z m 8.6363,9.8998 -0.0074,0.0129 C 9.03628,21.693 7.51986,21.0919 6.20863,20.161 4.8974,19.2302 3.83029,17.9968 3.09793,16.5649 2.61325,15.6183 2.2847,14.6037 2.12096,13.56 H 21.899 c -0.2163,1.3825 -0.7214,2.7069 -1.4843,3.8857 -0.8736,1.3491 -2.0597,2.4674 -3.4571,3.2603 -1.398,0.793 -2.9667,1.2367 -4.5727,1.294 l 0.008,-0.0138 c -0.1272,0.0048 -0.2549,0.0073 -0.3833,0.0073 -0.4659,0 -0.9243,-0.0319 -1.3733,-0.0937 z m 0.1749,-5.6348 v 3.78 h 0.615 V 19.01 l -0.055,-0.255 h 0.02 c 0.02,0.0267 0.0667,0.065 0.14,0.115 0.0734,0.0467 0.1684,0.0867 0.285,0.12 0.12,0.0367 0.2567,0.055 0.41,0.055 0.2,0 0.385,-0.0483 0.555,-0.145 0.17,-0.1 0.3067,-0.245 0.41,-0.435 0.1067,-0.19 0.16,-0.4217 0.16,-0.695 0,-0.1767 -0.035,-0.3283 -0.105,-0.455 -0.0666,-0.1267 -0.1516,-0.2267 -0.255,-0.3 -0.1,-0.0733 -0.1966,-0.1183 -0.29,-0.135 v -0.02 c 0.07,-0.0267 0.1384,-0.075 0.205,-0.145 0.07,-0.0733 0.1284,-0.1683 0.175,-0.285 0.0467,-0.12 0.07,-0.2583 0.07,-0.415 0,-0.1233 -0.0233,-0.245 -0.07,-0.365 -0.0433,-0.12 -0.1133,-0.2283 -0.21,-0.325 -0.0933,-0.1 -0.2116,-0.1783 -0.355,-0.235 -0.1433,-0.06 -0.315,-0.09 -0.515,-0.09 -0.27,0 -0.4933,0.0483 -0.67,0.145 -0.1766,0.0967 -0.3083,0.2383 -0.395,0.425 -0.0833,0.1867 -0.125,0.4183 -0.125,0.695 z m 1.625,2.155 c -0.0933,0.0467 -0.205,0.07 -0.335,0.07 -0.1633,0 -0.295,-0.0367 -0.395,-0.11 -0.1,-0.0767 -0.1733,-0.1783 -0.22,-0.305 -0.0433,-0.13 -0.065,-0.2783 -0.065,-0.445 v -1.37 c 0,-0.1333 0.0133,-0.2533 0.04,-0.36 0.03,-0.1067 0.0867,-0.19 0.17,-0.25 0.0833,-0.0633 0.2067,-0.095 0.37,-0.095 0.19,0 0.325,0.0517 0.405,0.155 0.08,0.1 0.12,0.23 0.12,0.39 0,0.1067 -0.0167,0.2 -0.05,0.28 -0.0333,0.08 -0.09,0.1417 -0.17,0.185 -0.08,0.04 -0.19,0.06 -0.33,0.06 h -0.275 v 0.595 h 0.39 c 0.2167,0 0.3767,0.055 0.48,0.165 0.1033,0.11 0.155,0.26 0.155,0.45 0,0.15 -0.025,0.2733 -0.075,0.37 -0.05,0.0967 -0.1217,0.1683 -0.215,0.215 z M 6.87871,10.6332 C 7.18066,9.50328 7.8474,8.50457 8.77549,7.79168 9.70302,7.07934 10.8396,6.69287 12.0096,6.69176 h 8.4691 C 19.6262,5.32881 18.4579,4.19163 17.0716,3.37698 15.6859,2.56233 14.1233,2.09467 12.5179,2.01292 10.9125,1.93118 9.31099,2.23813 7.84907,2.90821 6.38769,3.57772 5.10927,4.59034 4.12335,5.85986 Z"
     style="fill:#000000;stroke:none" />
</svg>
