<svg width="24" height="24" viewBox="0 0 24 24" fill="none" xmlns="http://www.w3.org/2000/svg">
<path d="M10.4696 16.3439C10.623 16.7258 11.1024 16.6102 10.92 16.1492C10.7343 15.6797 10.2726 14.266 10.1515 13.8106C9.98689 13.197 10.7004 13.3648 10.3388 13.766C10.0289 14.111 9.82221 14.2492 9.24913 14.9052C8.69541 15.5384 8.84555 16.3602 9.43802 16.5417C10.1064 16.7465 10.6956 16.0209 11.0604 15.4885C11.414 14.973 11.0717 14.6706 10.715 14.9754C10.4857 15.1713 10.221 15.4723 9.95297 15.6345C9.73503 15.7651 9.56389 15.6248 9.8545 15.2307C10.1919 14.7743 10.5696 14.3919 10.8505 13.9607C11.4237 13.0818 10.2904 12.5752 9.80282 13.1461C9.54129 13.4504 9.6075 13.7492 9.67853 14.0055C9.79317 14.4162 10.2194 15.7273 10.4696 16.3439ZM11.4414 5.50618C11.1961 5.44734 10.4841 5.82592 10.0466 5.90067C9.90781 5.92453 9.77542 6.06926 9.7286 6.17268C9.02795 7.75856 8.39998 9.27031 7.85594 10.6475C7.16015 10.7646 6.34653 10.9187 5.43603 11.1202C6.08822 9.47183 6.7469 7.84602 7.3894 6.28241C7.7058 5.51252 6.87282 5.43936 6.54993 6.21879C6.13018 7.23205 5.344 9.13049 4.47385 11.3432C3.83456 11.4977 3.15655 11.6742 2.44783 11.876C1.93284 12.0225 1.91187 12.1577 2.13465 12.462C2.25733 12.6314 2.5108 12.6143 2.62702 12.7351C2.9273 13.0479 3.10973 13.4222 3.64728 13.4789C3.16781 14.7426 2.68834 16.0459 2.25409 17.3007C1.98126 18.0884 2.75777 18.2495 3.05645 17.416C3.53752 16.0724 4.04442 14.7125 4.56585 13.3567C5.00011 13.2572 6.05105 13.0342 7.02127 12.8268C6.25123 14.9064 5.7443 16.4858 5.55222 17.2546C5.51672 17.4025 5.57644 17.4846 5.60872 17.5448C5.86862 17.9175 6.11562 17.9328 6.4498 18.3936C6.54022 18.5193 6.84373 18.587 6.94702 18.2776C7.66056 16.1539 8.3951 14.1613 9.07957 12.375C9.36369 12.3138 9.87544 12.1921 10.1886 11.7316C10.7456 10.9143 10.9054 11.0801 11.0394 10.8316C11.2073 10.5197 11.0959 10.2268 10.5018 10.2992C10.5018 10.2992 10.2774 10.3149 9.86254 10.3615C10.5212 8.69057 11.0975 7.27329 11.5124 6.19326C11.6545 5.8275 11.6723 5.56027 11.4414 5.50618ZM16.0553 5.89433C16.7817 5.54278 17.1417 5.58891 17.1498 5.94524C17.1595 6.40813 17.0901 7.02369 17.04 7.46908C16.7704 9.8899 16.32 11.868 16.2861 14.3536C17.4726 11.3269 18.4671 9.22326 19.7489 6.6324C20.1557 5.80684 20.4156 5.96115 20.7498 5.8148C22.051 5.24376 22.0994 5.5937 21.9298 6.29201C21.2987 8.87841 19.6827 17.0219 19.4357 18.2758C19.3646 18.6386 18.9643 18.4848 18.861 18.343C18.3977 17.7115 17.8746 17.7016 17.9327 17.2817C18.2233 15.191 19.2694 9.94573 19.5423 8.70979C18.1523 11.5176 16.7107 15.0277 15.9697 17.0179C15.8131 17.4406 15.5273 17.4096 15.3498 17.1003C15.0995 16.6659 14.6136 16.4442 14.5329 15.9309C14.2794 14.2989 14.8235 11.1882 14.8993 9.22023C14.1422 11.37 12.8717 15.5437 12.3147 17.4294C12.0855 18.2096 11.3203 18.0824 11.5237 17.3219C12.3696 14.1573 14.1923 8.56026 14.98 6.54809C15.1658 6.07405 15.6517 6.08995 16.0553 5.89433Z" fill="black"/>
</svg>
