<svg xmlns="http://www.w3.org/2000/svg" height="24" viewBox="0 96 960 960" width="24"><path d="M180.001 708.307V336q0-46.076 25-73.73 25-27.654 66.731-42.23 41.73-14.577 95.961-19.308 54.23-4.731 112.307-4.731 62.154 0 116.807 4.731 54.654 4.731 95.461 19.308 40.808 14.576 64.269 42.23 23.462 27.654 23.462 73.73v372.307q0 53.615-37.039 90.653-37.038 37.039-90.653 37.039l60 60v20h-56.921l-80-80H384.614l-80 80h-56.921v-20l60-60q-53.615 0-90.653-37.039-37.039-37.038-37.039-90.653ZM480 256q-111.77 0-163.078 14.039-51.307 14.038-65.846 36.731h460.309q-12.692-23.924-64.308-37.347Q595.462 256 480 256ZM240 516.001h210.001V366.769H240v149.232ZM652.307 576H240h480-67.693Zm-142.308-59.999H720V366.769H509.999v149.232ZM340 728.307q22.538 0 37.423-14.884 14.884-14.885 14.884-37.423 0-22.538-14.884-37.423-14.885-14.884-37.423-14.884-22.538 0-37.423 14.884-14.884 14.885-14.884 37.423 0 22.538 14.884 37.423 14.885 14.884 37.423 14.884Zm280 0q22.538 0 37.423-14.884 14.884-14.885 14.884-37.423 0-22.538-14.884-37.423-14.885-14.884-37.423-14.884-22.538 0-37.423 14.884-14.884 14.885-14.884 37.423 0 22.538 14.884 37.423 14.885 14.884 37.423 14.884ZM307.693 776h344.614Q681 776 700.5 756.5 720 737 720 708.307V576H240v132.307Q240 737 259.5 756.5 279 776 307.693 776ZM480 306.77h231.385-460.309H480Z"/></svg>