<svg width="24" height="24" viewBox="0 0 24 24" fill="none" xmlns="http://www.w3.org/2000/svg">
<path d="M1 20.5V3.5H5.1009V17.2442H12.5997V20.5H1Z" fill="black"/>
<path d="M15.171 20.5V9.17031H19.0376L19.1121 10.5141H19.1334C19.4104 10.0626 19.808 9.67652 20.3264 9.35604C20.8519 9.03556 21.4129 8.87532 22.0094 8.87532C22.2295 8.87532 22.4248 8.88989 22.5952 8.91902C22.7728 8.94816 22.9077 8.97729 23 9.00643V12.579C22.8012 12.5281 22.6201 12.4953 22.4568 12.4807C22.2934 12.4589 22.1124 12.4479 21.9135 12.4479C21.3312 12.4479 20.7844 12.6009 20.2732 12.9068C19.7619 13.2054 19.3926 13.5951 19.1654 14.0758V20.5H15.171Z" fill="black"/>
</svg>
