<svg width="24" height="24" viewBox="0 0 24 24" fill="none" xmlns="http://www.w3.org/2000/svg">
<path d="M7.59463 19.1951C7.59463 19.5634 7.52228 19.9282 7.3817 20.2685C7.24112 20.6088 7.03507 20.918 6.77532 21.1785C6.51556 21.4389 6.20719 21.6455 5.8678 21.7865C5.52842 21.9274 5.16466 22 4.79732 22C4.42997 22 4.06621 21.9274 3.72683 21.7865C3.38744 21.6455 3.07907 21.4389 2.81931 21.1785C2.55956 20.918 2.35351 20.6088 2.21293 20.2685C2.07235 19.9282 2 19.5634 2 19.1951C2 18.4512 2.29472 17.7378 2.81932 17.2117C3.34392 16.6857 4.05542 16.3902 4.79732 16.3902C5.53921 16.3902 6.25072 16.6857 6.77531 17.2117C7.29991 17.7378 7.59463 18.4512 7.59463 19.1951ZM14.7977 4.8049C14.7977 5.5488 14.503 6.26223 13.9784 6.78825C13.4538 7.31427 12.7423 7.60979 12.0004 7.60979C11.6331 7.60979 11.2693 7.53724 10.9299 7.39629C10.5905 7.25533 10.2822 7.04871 10.0224 6.78825C9.76267 6.52779 9.55662 6.21859 9.41604 5.87828C9.27546 5.53797 9.20311 5.17324 9.20311 4.8049C9.20311 4.43655 9.27546 4.07182 9.41604 3.73151C9.55662 3.39121 9.76267 3.082 10.0224 2.82154C10.2822 2.56108 10.5905 2.35447 10.9299 2.21351C11.2693 2.07255 11.6331 2 12.0004 2C12.7423 2 13.4538 2.29552 13.9784 2.82154C14.503 3.34756 14.7977 4.06099 14.7977 4.8049ZM7.59463 4.8049C7.59463 5.17324 7.52228 5.53797 7.3817 5.87828C7.24112 6.21859 7.03507 6.52779 6.77532 6.78825C6.51556 7.04871 6.20719 7.25533 5.8678 7.39629C5.52842 7.53724 5.16466 7.60979 4.79732 7.60979C4.42997 7.60979 4.06621 7.53724 3.72683 7.39629C3.38744 7.25533 3.07907 7.04871 2.81931 6.78825C2.55956 6.52779 2.35351 6.21859 2.21293 5.87828C2.07235 5.53797 2 5.17324 2 4.8049C2 4.43655 2.07235 4.07182 2.21293 3.73151C2.35351 3.39121 2.55956 3.082 2.81931 2.82154C3.07907 2.56108 3.38744 2.35447 3.72683 2.21351C4.06621 2.07255 4.42997 2 4.79732 2C5.16466 2 5.52842 2.07255 5.8678 2.21351C6.20719 2.35447 6.51556 2.56108 6.77532 2.82154C7.03507 3.082 7.24112 3.39121 7.3817 3.73151C7.52228 4.07182 7.59463 4.43655 7.59463 4.8049ZM14.7977 11.9996C14.7977 12.7435 14.503 13.4569 13.9784 13.9829C13.4538 14.509 12.7423 14.8045 12.0004 14.8045C11.6331 14.8045 11.2693 14.7319 10.9299 14.591C10.5905 14.45 10.2822 14.2434 10.0224 13.9829C9.76267 13.7225 9.55662 13.4133 9.41604 13.073C9.27546 12.7327 9.20311 12.3679 9.20311 11.9996C9.20311 11.2557 9.49782 10.5422 10.0224 10.0162C10.547 9.4902 11.2585 9.19468 12.0004 9.19468C12.7423 9.19468 13.4538 9.4902 13.9784 10.0162C14.503 10.5422 14.7977 11.2557 14.7977 11.9996ZM7.59463 11.9996C7.59463 12.3679 7.52228 12.7327 7.3817 13.073C7.24112 13.4133 7.03507 13.7225 6.77532 13.9829C6.51556 14.2434 6.20719 14.45 5.8678 14.591C5.52842 14.7319 5.16466 14.8045 4.79732 14.8045C4.42997 14.8045 4.06621 14.7319 3.72683 14.591C3.38744 14.45 3.07907 14.2434 2.81931 13.9829C2.55956 13.7225 2.35351 13.4133 2.21293 13.073C2.07235 12.7327 2 12.3679 2 11.9996C2 11.2557 2.29472 10.5422 2.81932 10.0162C3.34392 9.4902 4.05542 9.19468 4.79732 9.19468C5.53921 9.19468 6.25072 9.4902 6.77531 10.0162C7.29991 10.5422 7.59463 11.2557 7.59463 11.9996ZM22 11.9996C22 12.3679 21.9276 12.7327 21.7871 13.073C21.6465 13.4133 21.4404 13.7225 21.1807 13.9829C20.9209 14.2434 20.6126 14.45 20.2732 14.591C19.9338 14.7319 19.57 14.8045 19.2027 14.8045C18.4608 14.8045 17.7493 14.509 17.2247 13.9829C16.7001 13.4569 16.4054 12.7435 16.4054 11.9996C16.4054 11.2557 16.7001 10.5422 17.2247 10.0162C17.7493 9.4902 18.4608 9.19468 19.2027 9.19468C19.9446 9.19468 20.6561 9.4902 21.1807 10.0162C21.7053 10.5422 22 11.2557 22 11.9996ZM14.7977 19.1951C14.7977 19.939 14.503 20.6524 13.9784 21.1785C13.4538 21.7045 12.7423 22 12.0004 22C11.6331 22 11.2693 21.9274 10.9299 21.7865C10.5905 21.6455 10.2822 21.4389 10.0224 21.1785C9.76267 20.918 9.55662 20.6088 9.41604 20.2685C9.27546 19.9282 9.20311 19.5634 9.20311 19.1951C9.20311 18.4512 9.49782 17.7378 10.0224 17.2117C10.547 16.6857 11.2585 16.3902 12.0004 16.3902C12.7423 16.3902 13.4538 16.6857 13.9784 17.2117C14.503 17.7378 14.7977 18.4512 14.7977 19.1951Z" fill="black"/>
</svg>
