<?xml version="1.0" encoding="UTF-8" standalone="no"?>
<svg
   width="24"
   height="24"
   viewBox="0 0 24 24"
   fill="none"
   version="1.1"
   id="svg8"
   sodipodi:docname="nekogram.svg"
   inkscape:version="1.1 (c68e22c387, 2021-05-23)"
   xmlns:inkscape="http://www.inkscape.org/namespaces/inkscape"
   xmlns:sodipodi="http://sodipodi.sourceforge.net/DTD/sodipodi-0.dtd"
   xmlns="http://www.w3.org/2000/svg"
   xmlns:svg="http://www.w3.org/2000/svg">
  <defs
     id="defs12" />
  <sodipodi:namedview
     id="namedview10"
     pagecolor="#ffffff"
     bordercolor="#666666"
     borderopacity="1.0"
     inkscape:pageshadow="2"
     inkscape:pageopacity="0.0"
     inkscape:pagecheckerboard="0"
     showgrid="false"
     inkscape:zoom="33.833333"
     inkscape:cx="11.985222"
     inkscape:cy="12.014778"
     inkscape:window-width="1920"
     inkscape:window-height="1001"
     inkscape:window-x="-9"
     inkscape:window-y="-9"
     inkscape:window-maximized="1"
     inkscape:current-layer="svg8" />
  <path
     id="path6"
     style="fill:#000000"
     d="m 13.8697,16.7511 c -0.2492,-0.3354 -0.635,-0.5213 -1.0069,-0.5209 -0.1359,0 -0.3428,0.0989 -0.4514,0.1736 -0.3109,0.2141 -0.4367,0.8375 -0.131,1.449 0.2915,0.5828 1.0317,0.6787 1.4885,0.3627 0.4575,-0.3153 0.3786,-1.0478 0.1008,-1.4644 z m 5.4514,-4.2709 c -0.2488,-0.3347 -0.462,-0.4512 -0.8333,-0.4514 -0.1323,-10e-5 -0.3472,0.0433 -0.4861,0.1389 -0.2778,0.1912 -0.4447,0.8786 -0.1389,1.3542 0.3885,0.5232 0.9502,0.5493 1.3541,0.2778 0.2836,-0.1906 0.376,-0.9118 0.1042,-1.3195 z M 20.7356,7.12914 C 20.6797,7.08403 20.6241,7.03886 20.5687,6.99385 20.5044,6.9416 20.4397,6.88908 20.3758,6.83757 19.6485,6.25143 18.5966,5.77402 17.7172,5.44711 17.1242,5.22666 16.5885,5.03994 16.2797,5.00754 16.1985,4.99876 16.1331,4.99718 16.0817,5.00531 c -0.1545,0.0244 -0.1885,0.14008 -0.1858,0.4418 0.0061,0.55354 0.2208,2.48464 0.5253,4.0624 0.0952,0.49509 0.1146,0.70279 0.0779,0.77099 -0.0134,0.0248 -0.1033,0.0583 -0.2275,0.1046 -0.1297,0.0483 -0.2968,0.1106 -0.4531,0.1914 -1.1579,0.6011 -1.5456,0.9285 -2.3779,1.6645 -0.1156,0.1021 -0.1986,0.1805 -0.2621,0.2404 C 13.0091,12.6411 12.9786,12.67 12.8412,12.669 12.7811,12.635 12.7077,12.5924 12.6106,12.5361 12.3589,12.39 11.948,12.1517 11.1986,11.7315 9.80929,10.9517 9.08407,10.5582 8.54887,10.5085 8.21558,10.4776 8.12223,10.6732 8.08074,10.8073 c -0.07248,0.2466 -0.10658,1.6996 -0.05816,2.687 0.08635,1.7608 0.12875,1.9634 0.74324,3.5826 0.37176,0.9804 0.37878,1.0108 0.53776,2.0672 0.03154,0.2092 0.06169,0.4364 0.09436,0.6826 0.0717,0.5403 0.15556,1.1721 0.29268,1.9053 C 5.28116,20.6896 2,16.728 2,12 2,6.47715 6.47715,2 12,2 c 3.7545,0 7.0257,2.06905 8.7356,5.12914 z" />
</svg>
