<svg width="24" height="24" viewBox="0 0 24 24" fill="none" xmlns="http://www.w3.org/2000/svg">
<path d="M5.96582 1.05049V11.9933C5.96582 18.0122 5.97158 22.9419 5.98023 22.9505C5.98887 22.9592 6.36055 22.9217 6.81001 22.8728C7.25948 22.8238 7.87894 22.7604 8.18723 22.7345C8.65975 22.6941 10.0773 22.6048 10.2387 22.6019C10.2876 22.6019 10.2905 22.357 10.2963 17.9661L10.3049 13.3302L10.6478 14.2983C10.6996 14.4481 10.7169 14.4942 10.7688 14.6411L11.2845 3.86831C11.175 3.56002 11.2327 3.72137 11.1088 3.36986C10.6881 2.17992 10.3308 1.17438 10.3164 1.12828L10.2876 1.04761H5.96582V1.05049Z" fill="black" fill-opacity="0.55"/>
<path d="M13.7304 1.06494L13.7218 5.90537L13.7131 10.7458L13.3155 9.62213V9.61925L12.7998 20.395C13.3069 21.824 13.5777 22.5876 13.5806 22.5904C13.5835 22.5933 13.8716 22.6106 14.2202 22.6279C15.2748 22.6798 16.5828 22.7921 17.5768 22.916C17.8073 22.9448 18.0033 22.9592 18.0177 22.9477C18.0321 22.9362 18.035 18.0093 18.0321 11.9962L18.0234 1.06494H13.7304Z" fill="black" fill-opacity="0.55"/>
<path d="M5.96582 1.05049L10.302 13.3388V13.3331L10.6449 14.3012C12.5494 19.6919 13.5722 22.5846 13.578 22.5904C13.5809 22.5933 13.869 22.6106 14.2176 22.6279C15.2721 22.6797 16.5802 22.7921 17.5742 22.916C17.8018 22.9448 18.0006 22.9592 18.0121 22.9477L13.7134 10.7429V10.7458L13.3158 9.62208C12.9268 8.52434 12.6675 7.78963 11.103 3.36986C10.6824 2.17992 10.3251 1.17438 10.3107 1.12828L10.2819 1.04761H8.12384L5.96582 1.05049Z" fill="black"/>
</svg>
