<svg width="24" height="24" viewBox="0 0 24 24" fill="none" xmlns="http://www.w3.org/2000/svg">
<path fill-rule="evenodd" clip-rule="evenodd" d="M5.10465 8.51924C4.08366 8.62779 3.1621 9.18859 2.59087 10.049C1.99179 10.9513 1.83949 12.0635 2.17419 13.0919C2.3723 13.7006 2.72224 14.2323 3.19648 14.645C3.69384 15.0778 4.26893 15.3485 4.9332 15.4625C5.20445 15.509 5.74389 15.5045 6.03046 15.4532C6.58818 15.3535 7.09177 15.1344 7.54202 14.7957C7.72991 14.6544 8.07205 14.3109 8.21317 14.122C8.65303 13.5331 8.88834 12.8648 8.91433 12.1309C8.95012 11.1206 8.57955 10.1893 7.86216 9.48661C7.13117 8.77051 6.11018 8.41235 5.10465 8.51924ZM18.1775 8.51938C17.7764 8.56566 17.3952 8.67737 17.0337 8.85455C16.6537 9.04081 16.3907 9.22985 16.0934 9.53043C15.7961 9.83102 15.6091 10.0969 15.4249 10.4812C14.9583 11.4545 14.9592 12.5505 15.4273 13.5272C16.2615 15.2678 18.3279 15.9924 20.046 15.1468C20.4227 14.9614 20.6848 14.7727 20.9822 14.473C22.4354 13.0081 22.3174 10.6321 20.7247 9.2888C20.0488 8.71873 19.054 8.41823 18.1775 8.51938ZM8.45643 8.59201C8.45643 8.5949 8.9772 9.6399 9.6137 10.9142L10.771 13.2312V14.3239V15.4167H11.9968H13.2227L13.2227 14.3289L13.2227 13.2411L14.371 10.9424C15.0025 9.67813 15.5241 8.63089 15.53 8.61522C15.54 8.58894 15.4441 8.58672 14.2987 8.58672H13.0565L12.5293 9.64533C12.2393 10.2276 12 10.7014 11.9976 10.6984C11.9951 10.6954 11.7561 10.219 11.4665 9.63982L10.9399 8.58672H9.69819C9.01521 8.58672 8.45643 8.5891 8.45643 8.59201ZM5.80758 10.8057C6.02172 10.8734 6.15407 10.9556 6.32338 11.1257C6.45479 11.2578 6.4917 11.308 6.55949 11.447C6.65286 11.6383 6.68986 11.7955 6.69012 12.0017C6.69051 12.3356 6.57047 12.6259 6.33096 12.8702C6.16841 13.036 6.02873 13.1243 5.81901 13.1941C5.64834 13.2509 5.32331 13.2586 5.14751 13.2099C4.71798 13.091 4.37639 12.7386 4.26205 12.2964C4.22315 12.1459 4.22322 11.8571 4.26217 11.707C4.38525 11.2329 4.75102 10.8767 5.21605 10.7782C5.37473 10.7446 5.65544 10.7576 5.80758 10.8057ZM18.9061 10.8121C19.1013 10.8756 19.2457 10.9668 19.4034 11.1262C19.5598 11.2844 19.6499 11.4294 19.7156 11.629C19.7561 11.7518 19.7613 11.7945 19.7613 12.0017C19.7613 12.2089 19.7561 12.2516 19.7156 12.3744C19.6499 12.574 19.5598 12.719 19.4034 12.8772C19.1789 13.1041 18.9288 13.222 18.6256 13.2438C17.8229 13.3014 17.1769 12.5677 17.3278 11.77C17.4225 11.27 17.8294 10.8608 18.3209 10.7714C18.477 10.743 18.7526 10.7622 18.9061 10.8121Z" fill="black"/>
</svg>
