<svg width="24" height="24" viewBox="0 0 24 24" fill="none" xmlns="http://www.w3.org/2000/svg">
<path fill-rule="evenodd" clip-rule="evenodd" d="M3.72558 7.82309C2.50039 7.95335 1.39452 8.62631 0.709049 9.65877C-0.00985571 10.7416 -0.192611 12.0762 0.209027 13.3103C0.446755 14.0407 0.866684 14.6787 1.43577 15.174C2.03261 15.6934 2.72271 16.0182 3.51984 16.155C3.84533 16.2108 4.49266 16.2054 4.83655 16.1439C5.50581 16.0242 6.11012 15.7613 6.65043 15.3549C6.87589 15.1853 7.28646 14.7731 7.4558 14.5464C7.98364 13.8397 8.26601 13.0378 8.2972 12.1571C8.34014 10.9448 7.89546 9.82722 7.0346 8.98394C6.1574 8.12461 4.93222 7.69482 3.72558 7.82309ZM19.413 7.82326C18.9317 7.8788 18.4743 8.01284 18.0404 8.22546C17.5844 8.44897 17.2688 8.67582 16.912 9.03652C16.5553 9.39723 16.3309 9.71633 16.1099 10.1774C15.55 11.3454 15.551 12.6606 16.1127 13.8326C17.1138 15.9213 19.5934 16.7909 21.6552 15.7762C22.1072 15.5537 22.4218 15.3273 22.7787 14.9675C24.5225 13.2097 24.3809 10.3585 22.4697 8.74657C21.6586 8.06248 20.4648 7.70188 19.413 7.82326ZM7.74772 7.91041C7.74772 7.91389 8.37264 9.16789 9.13644 10.6971L10.5252 13.4774V14.7887V16.1H11.9962H13.4672L13.4672 14.7947L13.4672 13.4894L14.8452 10.7309C15.603 9.21375 16.2289 7.95707 16.2361 7.93827C16.248 7.90673 16.1329 7.90407 14.7584 7.90407H13.2678L12.6351 9.1744C12.2871 9.87307 12 10.4417 11.9971 10.4381C11.9941 10.4345 11.7074 9.86281 11.3598 9.16778L10.7279 7.90407H9.23783C8.41826 7.90407 7.74772 7.90692 7.74772 7.91041ZM4.56909 10.5669C4.82606 10.6481 4.98489 10.7467 5.18805 10.9509C5.34575 11.1094 5.39004 11.1696 5.47139 11.3364C5.58344 11.566 5.62783 11.7546 5.62814 12.002C5.62862 12.4027 5.48456 12.7511 5.19715 13.0442C5.00209 13.2432 4.83447 13.3492 4.58282 13.433C4.37801 13.5011 3.98797 13.5103 3.77701 13.4519C3.26158 13.3092 2.85167 12.8863 2.71446 12.3557C2.66778 12.1751 2.66786 11.8285 2.71461 11.6484C2.86231 11.0795 3.30122 10.6521 3.85926 10.5338C4.04967 10.4935 4.38652 10.5091 4.56909 10.5669ZM20.2873 10.5745C20.5215 10.6507 20.6948 10.7601 20.884 10.9515C21.0718 11.1413 21.1799 11.3153 21.2588 11.5548C21.3073 11.7022 21.3136 11.7534 21.3136 12.002C21.3136 12.2507 21.3073 12.3019 21.2588 12.4493C21.1799 12.6887 21.0718 12.8628 20.884 13.0526C20.6147 13.3249 20.3145 13.4664 19.9507 13.4925C18.9875 13.5616 18.2123 12.6813 18.3934 11.724C18.5069 11.124 18.9953 10.6329 19.585 10.5257C19.7724 10.4916 20.1032 10.5146 20.2873 10.5745Z" fill="black"/>
</svg>
