<svg width="24" height="24" viewBox="0 0 24 24" fill="none" xmlns="http://www.w3.org/2000/svg">
<path fill-rule="evenodd" clip-rule="evenodd" d="M12 3.75C11.3097 3.75 10.75 4.30966 10.75 5V7.52552L12 8.24718L13.25 7.52552V5C13.25 4.30966 12.6903 3.75 12 3.75ZM15.25 6.37084V5C15.25 3.20509 13.7949 1.75 12 1.75C10.2051 1.75 8.74999 3.20509 8.74999 5V6.37084L7.56295 5.68552C6.00835 4.78785 4.0207 5.32052 3.12322 6.875C2.22592 8.42948 2.75842 10.4171 4.31285 11.3145L5.50008 12L4.31294 12.6854C2.75844 13.5828 2.22571 15.5706 3.1232 17.125M15.25 6.37084L16.4371 5.68547C17.9916 4.78819 19.9792 5.32052 20.8767 6.87496C21.774 8.42935 21.2418 10.4171 19.6871 11.3145L18.4999 12L19.687 12.6854C21.2417 13.5829 21.7741 15.5707 20.8768 17.125C19.9793 18.6793 17.9917 19.2121 16.4371 18.3145L15.25 17.6292V19C15.25 20.7949 13.7949 22.25 12 22.25C10.2051 22.25 8.74999 20.7949 8.74999 19V17.6292L7.56289 18.3146C6.00853 19.212 4.02062 18.6794 3.1232 17.125M10.75 16.4745V19C10.75 19.6903 11.3097 20.25 12 20.25C12.6903 20.25 13.25 19.6903 13.25 19V16.4745L12 15.7528L10.75 16.4745ZM14 14.5981L17.4371 16.5825C18.035 16.9277 18.7994 16.7229 19.1447 16.125C19.4899 15.5271 19.285 14.7626 18.6872 14.4176L16.5 13.1547L14 14.5981ZM16.5 10.8453L18.6871 9.58249C19.2849 9.23744 19.4899 8.4731 19.1447 7.87504M16.5 10.8453L14 9.40192L14.75 8.96891L17.437 7.41757C18.0351 7.07242 18.7995 7.27734 19.1447 7.87504" fill="black"/>
</svg>
