<?xml version="1.0" encoding="UTF-8" standalone="no"?>
<svg
   width="24"
   height="24"
   viewBox="0 0 24 24"
   fill="none"
   version="1.1"
   id="svg4"
   sodipodi:docname="phonepe.svg"
   inkscape:version="1.1 (c68e22c387, 2021-05-23)"
   xmlns:inkscape="http://www.inkscape.org/namespaces/inkscape"
   xmlns:sodipodi="http://sodipodi.sourceforge.net/DTD/sodipodi-0.dtd"
   xmlns="http://www.w3.org/2000/svg"
   xmlns:svg="http://www.w3.org/2000/svg">
  <defs
     id="defs8" />
  <sodipodi:namedview
     id="namedview6"
     pagecolor="#ffffff"
     bordercolor="#666666"
     borderopacity="1.0"
     inkscape:pageshadow="2"
     inkscape:pageopacity="0.0"
     inkscape:pagecheckerboard="0"
     showgrid="false"
     inkscape:zoom="11.96189"
     inkscape:cx="11.996432"
     inkscape:cy="11.996432"
     inkscape:window-width="1920"
     inkscape:window-height="1001"
     inkscape:window-x="-9"
     inkscape:window-y="-9"
     inkscape:window-maximized="1"
     inkscape:current-layer="svg4" />
  <path
     d="M20 8.70719C20 8.13982 19.4706 7.6535 18.8529 7.6535H16.7353L11.8824 2.54711C11.4412 2.06079 10.7353 1.89868 10.0294 2.06079L8.35294 2.54711C8.08823 2.62817 8 2.95238 8.17647 3.11449L13.4706 7.73455H5.44118C5.17647 7.73455 5 7.89666 5 8.13982V8.95036C5 9.51773 5.52941 10.0041 6.14706 10.0041H7.38235V13.8946C7.38235 16.8126 9.05882 18.5147 11.8824 18.5147C12.7647 18.5147 13.4706 18.4336 14.3529 18.1094V20.7031C14.3529 21.4326 14.9706 22 15.7647 22H17C17.2647 22 17.5294 21.7568 17.5294 21.5137V9.923H19.5588C19.8235 9.923 20 9.76089 20 9.51773V8.70719ZM14.3529 15.6778C13.8235 15.921 13.1176 16.002 12.5882 16.002C11.1765 16.002 10.4706 15.3536 10.4706 13.8946V10.0041H14.3529V15.6778Z"
     fill="white"
     id="path2"
     style="fill:#000000;stroke:none" />
</svg>
