<svg width="24" height="24" viewBox="0 0 24 24" fill="none" xmlns="http://www.w3.org/2000/svg">
<g clip-path="url(#clip0_841_8)">
<path d="M2.21355 14.279C2.21636 14.3725 2.3449 14.4473 2.50583 14.4488H2.51288H2.52134C2.68234 14.4473 2.81226 14.3708 2.81226 14.2774V12.0381C2.81226 11.943 2.6781 11.8666 2.51288 11.8666C2.34908 11.8666 2.21636 11.943 2.2135 12.0364M3.56902 13.9752H3.57607H3.58454C3.74553 13.9739 3.87545 13.9139 3.87545 13.8403V8.09637C3.87545 8.02223 3.74129 7.96151 3.57607 7.96151C3.41227 7.96151 3.27955 8.02095 3.2767 8.09509V13.8416C3.27813 13.9151 3.40804 13.9739 3.56902 13.9752ZM4.63081 14.0935H4.63928H4.64633C4.80869 14.0921 4.93861 14.0221 4.93861 13.9365V10.7164C4.93861 10.6293 4.80302 10.5577 4.63923 10.5577C4.47543 10.5577 4.34128 10.6277 4.33986 10.7141V13.9379C4.34133 14.0235 4.47125 14.0921 4.63081 14.0935ZM5.69319 14.1409H5.70166H5.71013C5.87112 14.1395 6.00104 14.0677 6.00104 13.9798V7.23989C6.00104 7.1505 5.86688 7.07793 5.70166 7.07793C5.53786 7.07793 5.40372 7.14972 5.40229 7.23836V13.9813C5.40372 14.0691 5.53363 14.1395 5.69319 14.1409ZM6.75777 14.0935H6.76481H6.77328C6.93427 14.0921 7.06419 14.0226 7.06419 13.9376V4.41411C7.06419 4.32768 6.93003 4.25745 6.76481 4.25745C6.60101 4.25745 6.46829 4.32619 6.46543 4.41191V13.9414C6.46829 14.0241 6.5954 14.0921 6.75777 14.0935ZM7.82015 14.0935H7.82718H7.83566C7.99802 14.0921 8.12656 14.0225 8.12656 13.9372V6.63279C8.12656 6.54609 7.99241 6.47573 7.82718 6.47573C7.66339 6.47573 7.53066 6.54538 7.52781 6.63131V13.9388C7.53066 14.0239 7.65915 14.0921 7.82015 14.0935ZM8.88191 14.1409H8.89039H8.89743C9.0598 14.1391 9.18971 14.0527 9.18971 13.9472V4.98899C9.18971 4.88159 9.05413 4.79433 8.89033 4.79433C8.72654 4.79433 8.59239 4.87976 8.59097 4.98624V13.9491C8.59244 14.0546 8.72236 14.1391 8.88191 14.1409ZM9.94501 14.2539H9.95358H9.96061C10.1229 14.2524 10.2529 14.1808 10.2529 14.0933V5.63805C10.2529 5.54972 10.1173 5.47741 9.95346 5.47741C9.78964 5.47741 9.65558 5.54824 9.65415 5.63651V14.0947C9.65558 14.1824 9.78416 14.2524 9.94501 14.2539ZM11.0089 14.8219H11.016H11.0244C11.1854 14.8206 11.3153 14.7568 11.3153 14.6788V2.85588C11.3153 2.77654 11.1811 2.7121 11.016 2.7121C10.8521 2.7121 10.7179 2.77516 10.7165 2.85385V14.6816C10.7179 14.7581 10.8478 14.8206 11.0089 14.8219ZM12.0713 15.7962H12.0783H12.0868C12.2478 15.7945 12.3776 15.7189 12.3776 15.6262V5.36641C12.3776 5.27216 12.2436 5.19568 12.0783 5.19568C11.9145 5.19568 11.7818 5.27058 11.7789 5.36402V15.6279C11.7803 15.7205 11.9102 15.7947 12.0713 15.7962ZM13.1334 14.8221H13.1406H13.149C13.3104 14.8206 13.442 14.7566 13.442 14.6781V1.58461C13.442 1.50487 13.3062 1.44011 13.1406 1.44011C12.9778 1.44011 12.8448 1.5042 12.8434 1.58258V14.6788C12.8434 14.7579 12.9721 14.8206 13.1334 14.8221ZM14.1965 14.2539H14.205H14.2134C14.374 14.2527 14.5037 14.1951 14.5037 14.1246V3.64362C14.5037 3.57192 14.3684 3.5137 14.205 3.5137C14.0415 3.5137 13.9078 3.5713 13.9049 3.64177V14.1252C13.9077 14.1963 14.0373 14.2527 14.1965 14.2539ZM15.2579 14.1409H15.2664H15.2749C15.4372 14.1394 15.5671 14.0694 15.5671 13.9836V8.11958C15.5671 8.03233 15.4317 7.96151 15.2664 7.96151C15.104 7.96151 14.9712 8.03161 14.9685 8.11735V13.9851C14.9699 14.0708 15.0984 14.1394 15.2579 14.1409ZM16.3232 14.0935H16.3316H16.3401C16.4997 14.0923 16.6296 14.0382 16.6296 13.9719V5.31799C16.6296 5.25048 16.4955 5.19568 16.3316 5.19568C16.1664 5.19568 16.0337 5.24992 16.0309 5.31681V13.9725C16.0337 14.0394 16.1636 14.0925 16.3232 14.0935ZM17.3852 14.0935H17.3923H17.4008C17.5621 14.0923 17.6924 14.0335 17.6924 13.9615V3.9828C17.6924 3.90957 17.5579 3.85008 17.3922 3.85008C17.228 3.85008 17.095 3.9083 17.0936 3.98091V13.9627C17.095 14.0347 17.2253 14.0923 17.3852 14.0935ZM18.4482 14.1409H18.4566H18.4649C18.6238 14.1397 18.7559 14.0839 18.7559 14.0156V7.59439C18.7559 7.52488 18.621 7.46845 18.4566 7.46845C18.2949 7.46845 18.16 7.52427 18.1572 7.5926V14.0167C18.1586 14.0851 18.2879 14.1397 18.4482 14.1409ZM19.5108 14.0935H19.5192H19.5277C19.6891 14.0921 19.8178 14.0221 19.8178 13.9365V6.6711C19.8178 6.58395 19.6848 6.51323 19.5192 6.51323C19.3565 6.51323 19.2205 6.58324 19.2191 6.66885V13.9379C19.2206 14.0235 19.3509 14.0921 19.5108 14.0935ZM20.5729 13.9752H20.5814H20.5898C20.7508 13.9739 20.8807 13.9171 20.8807 13.8476V8.08966C20.8807 8.01888 20.7466 7.96144 20.5814 7.96144C20.4175 7.96144 20.2848 8.01828 20.2819 8.08783V13.8487C20.2848 13.9183 20.4134 13.9739 20.5729 13.9752ZM21.6383 14.4488H21.644H21.6524C21.8148 14.4475 21.9447 14.3831 21.9447 14.3043V10.237C21.9447 10.1574 21.8091 10.0916 21.644 10.0916C21.4816 10.0916 21.3488 10.156 21.346 10.2348V14.305C21.3474 14.3845 21.4744 14.4475 21.6383 14.4488ZM3.67273 14.7594L1.53134 16.2511L12.1114 19.9597L22.6912 16.2333L20.5996 14.7597C18.4261 15.126 15.9031 14.4769 14.1691 15.2875L14.1633 15.2901C13.8966 15.4111 13.6543 15.5669 13.4353 15.7692C13.0493 16.1148 12.7302 16.5881 12.4984 17.2334L12.1113 19.0121L11.7363 17.2891C11.459 16.4813 11.0498 15.9369 10.5461 15.5727C10.5382 15.5669 10.53 15.5615 10.522 15.5558C10.4898 15.5331 10.4573 15.5107 10.4245 15.4894C8.7117 14.3784 6.00385 15.1523 3.67273 14.7594ZM24.0791 17.7671L23.7644 16.8669L13.2704 20.5367L13.476 21.1248C12.2843 21.7643 11.9353 21.7578 10.6822 21.1248L10.8878 20.5367L0.393789 16.8669L0.0791016 17.7671L10.0991 21.2709L9.87619 21.89C12.0292 22.7782 12.0292 22.7782 14.2463 21.8828L14.0323 21.2738" fill="black"/>
</g>
<defs>
<clipPath id="clip0_841_8">
<rect width="24" height="24" fill="white"/>
</clipPath>
</defs>
</svg>
