<?xml version="1.0" encoding="UTF-8" standalone="no"?>
<svg
   width="24"
   height="24"
   viewBox="0 0 24 24"
   fill="none"
   version="1.1"
   id="svg42"
   sodipodi:docname="audiobooklite.svg"
   inkscape:version="1.1 (c68e22c387, 2021-05-23)"
   xmlns:inkscape="http://www.inkscape.org/namespaces/inkscape"
   xmlns:sodipodi="http://sodipodi.sourceforge.net/DTD/sodipodi-0.dtd"
   xmlns="http://www.w3.org/2000/svg"
   xmlns:svg="http://www.w3.org/2000/svg">
  <defs
     id="defs46" />
  <sodipodi:namedview
     id="namedview44"
     pagecolor="#ffffff"
     bordercolor="#666666"
     borderopacity="1.0"
     inkscape:pageshadow="2"
     inkscape:pageopacity="0.0"
     inkscape:pagecheckerboard="0"
     showgrid="false"
     inkscape:zoom="16.916667"
     inkscape:cx="12.029557"
     inkscape:cy="12.029557"
     inkscape:window-width="1920"
     inkscape:window-height="1001"
     inkscape:window-x="-9"
     inkscape:window-y="-9"
     inkscape:window-maximized="1"
     inkscape:current-layer="svg42" />
  <path
     id="path40"
     style="fill:#000000"
     d="m 3.79275,13.7836 c 0.00236,0.0785 0.11032,0.1413 0.24549,0.1426 h 0.00592 0.00711 c 0.13522,-0.0013 0.24434,-0.0655 0.24434,-0.144 v -1.8808 c 0,-0.0799 -0.11268,-0.144 -0.25145,-0.144 -0.13758,0 -0.24905,0.0641 -0.25145,0.1426 m 1.13852,1.6284 H 4.93715 4.94426 C 5.07948,13.5273 5.1886,13.4769 5.1886,13.4151 V 8.59069 c 0,-0.06227 -0.11268,-0.11327 -0.25145,-0.11327 -0.13758,0 -0.24905,0.04993 -0.25145,0.1122 v 4.82658 c 0.0012,0.0617 0.11032,0.1111 0.24553,0.1122 z m 0.89181,0.0994 h 0.00711 0.00592 c 0.13637,-0.0012 0.24549,-0.06 0.24549,-0.1319 v -2.7046 c 0,-0.0732 -0.11388,-0.1333 -0.25145,-0.1333 -0.13758,0 -0.25025,0.0588 -0.25145,0.1314 v 2.7077 c 0.00124,0.0719 0.11036,0.1295 0.24438,0.1307 z m 0.8923,0.0398 H 6.72246 6.72957 C 6.86479,13.6664 6.97391,13.6061 6.97391,13.5323 V 7.87132 c 0,-0.07508 -0.11268,-0.13603 -0.25145,-0.13603 -0.13758,0 -0.25025,0.0603 -0.25145,0.13475 v 5.66346 c 0.0012,0.0738 0.11032,0.1329 0.24433,0.1341 z M 7.6095,13.6278 h 0.00591 0.00711 c 0.13522,-0.0012 0.24434,-0.0596 0.24434,-0.131 V 5.49791 c 0,-0.0726 -0.11268,-0.13158 -0.25145,-0.13158 -0.13758,0 -0.24905,0.05773 -0.25145,0.12973 V 13.5 c 0.0024,0.0695 0.10916,0.1266 0.24554,0.1278 z m 0.8923,0 H 8.50771 8.51483 C 8.6512,13.6266 8.75916,13.5681 8.75916,13.4965 V 7.36141 c 0,-0.07282 -0.11267,-0.13192 -0.25145,-0.13192 -0.13757,0 -0.24905,0.0585 -0.25145,0.13068 v 6.13763 c 0.0024,0.0715 0.11032,0.1288 0.24554,0.13 z m 0.89179,0.0398 H 9.40071 9.40662 C 9.543,13.6661 9.65211,13.5935 9.65211,13.5049 V 5.98076 c 0,-0.09021 -0.11387,-0.1635 -0.25145,-0.1635 -0.13757,0 -0.25024,0.07175 -0.25144,0.16119 v 7.52805 c 0.00124,0.0886 0.11036,0.1596 0.24437,0.1611 z m 0.89291,0.0949 h 0.0072 0.0059 c 0.1363,-0.0013 0.2455,-0.0614 0.2455,-0.1349 V 6.52591 c 0,-0.07419 -0.1139,-0.13492 -0.2515,-0.13492 -0.1376,0 -0.2502,0.05949 -0.2514,0.13363 v 7.10418 c 0.0012,0.0736 0.1092,0.1324 0.2443,0.1337 z m 0.8936,0.4771 h 0.0059 0.0071 c 0.1352,-0.0011 0.2443,-0.0547 0.2443,-0.1202 V 4.18913 c 0,-0.06664 -0.1127,-0.12077 -0.2514,-0.12077 -0.1376,0 -0.2503,0.05297 -0.2515,0.11906 v 9.93428 c 0.0012,0.0643 0.1103,0.1168 0.2456,0.1179 z m 0.8923,0.8183 h 0.0059 0.0071 c 0.1352,-0.0014 0.2443,-0.0649 0.2443,-0.1428 V 6.29776 c 0,-0.07916 -0.1126,-0.1434 -0.2514,-0.1434 -0.1376,0 -0.2491,0.06291 -0.2515,0.14139 v 8.62075 c 0.0012,0.0778 0.1103,0.1401 0.2456,0.1414 z m 0.8921,-0.8182 h 0.006 0.0071 c 0.1355,-0.0012 0.2461,-0.055 0.2461,-0.1209 V 3.12137 C 13.2237,3.05439 13.1096,3 12.9705,3 12.8338,3 12.7221,3.05383 12.7209,3.11966 V 14.1194 c 0,0.0664 0.1081,0.1191 0.2436,0.1203 z m 0.8929,-0.4772 h 0.0071 0.0071 c 0.1349,-10e-4 0.2438,-0.0494 0.2438,-0.1086 V 4.85076 c 0,-0.06022 -0.1136,-0.10912 -0.2509,-0.10912 -0.1373,0 -0.2496,0.04838 -0.252,0.10757 v 8.80519 c 0.0023,0.0597 0.1112,0.1071 0.2449,0.1081 z m 0.8915,-0.0949 h 0.0071 0.0071 c 0.1364,-0.0013 0.2455,-0.0601 0.2455,-0.1321 V 8.61019 c 0,-0.07329 -0.1138,-0.13277 -0.2526,-0.13277 -0.1364,0 -0.2479,0.05888 -0.2502,0.13089 v 4.92839 c 0.0012,0.072 0.1091,0.1296 0.2431,0.1309 z m 0.8947,-0.0398 h 0.0071 0.0071 c 0.1341,-0.001 0.2432,-0.0465 0.2432,-0.1022 V 6.25709 c 0,-0.0567 -0.1127,-0.10273 -0.2503,-0.10273 -0.1388,0 -0.2502,0.04556 -0.2526,0.10174 v 7.27 c 0.0024,0.0562 0.1115,0.1008 0.2455,0.1017 z m 0.892,0 h 0.006 0.0071 c 0.1355,-0.001 0.2449,-0.0504 0.2449,-0.1109 V 5.13564 c 0,-0.0615 -0.1129,-0.11147 -0.2521,-0.11147 -0.1379,0 -0.2496,0.0489 -0.2508,0.10989 v 8.38384 c 0.0012,0.0605 0.1106,0.1089 0.2449,0.1099 z m 0.8928,0.0398 h 0.0071 0.007 c 0.1334,-10e-4 0.2444,-0.0479 0.2444,-0.1053 V 8.16907 c 0,-0.05838 -0.1133,-0.10578 -0.2514,-0.10578 -0.1358,0 -0.2491,0.04689 -0.2515,0.10428 v 5.39573 c 0.0012,0.0574 0.1098,0.1033 0.2444,0.1043 z m 0.8925,-0.0398 h 0.0071 0.0071 c 0.1356,-0.0012 0.2437,-0.06 0.2437,-0.1319 V 7.39359 c 0,-0.0732 -0.1117,-0.1326 -0.2508,-0.1326 -0.1367,0 -0.2509,0.0588 -0.2521,0.13071 v 6.1054 c 0.0013,0.0719 0.1107,0.1295 0.245,0.1307 z m 0.8921,-0.0994 h 0.0071 0.0071 c 0.1352,-0.0011 0.2443,-0.0488 0.2443,-0.1072 V 8.58506 c 0,-0.05945 -0.1126,-0.1077 -0.2514,-0.1077 -0.1376,0 -0.2491,0.04774 -0.2515,0.10616 v 4.83868 c 0.0024,0.0584 0.1104,0.1051 0.2444,0.1062 z m 0.8948,0.3978 h 0.0048 0.0071 c 0.1364,-0.0011 0.2455,-0.0552 0.2455,-0.1214 v -3.4162 c 0,-0.0668 -0.1139,-0.1221 -0.2526,-0.1221 -0.1364,0 -0.2479,0.0541 -0.2503,0.1203 v 3.4186 c 0.0012,0.0668 0.1079,0.1197 0.2455,0.1208 z M 5.01833,14.1871 3.21975,15.44 12.1061,18.5549 20.9922,15.425 19.2354,14.1873 c -1.8255,0.3077 -3.9446,-0.2375 -5.401,0.4433 l -0.0049,0.0022 -6e-4,3e-4 c -0.224,0.1016 -0.4269,0.2322 -0.6109,0.4021 -0.3242,0.2903 -0.5922,0.6878 -0.7869,1.2298 L 12.106,17.759 11.791,16.3118 C 11.5581,15.6333 11.2144,15.1761 10.7914,14.8702 10.7847,14.8653 10.7778,14.8608 10.7711,14.856 10.7441,14.8369 10.7168,14.8181 10.6892,14.8002 9.25063,13.8671 6.97636,14.5173 5.01842,14.1873 Z m 17.13957,2.5262 -0.2643,-0.7561 -8.8141,3.0823 0.1727,0.494 c -1.0009,0.5371 -1.294,0.5316 -2.3465,0 l 0.1727,-0.494 -8.81409,-3.0823 h -5e-5 L 2,16.7133 l 8.4159,2.9429 -0.1872,0.52 c 1.8083,0.746 1.8083,0.746 3.6705,-0.0061 l -0.1797,-0.5115" />
</svg>
