<?xml version="1.0" encoding="UTF-8" standalone="no"?>
<svg
   width="24"
   height="24"
   viewBox="0 0 24 24"
   fill="none"
   version="1.1"
   id="svg12"
   sodipodi:docname="proton_calendar.svg"
   inkscape:version="1.1 (c68e22c387, 2021-05-23)"
   xmlns:inkscape="http://www.inkscape.org/namespaces/inkscape"
   xmlns:sodipodi="http://sodipodi.sourceforge.net/DTD/sodipodi-0.dtd"
   xmlns="http://www.w3.org/2000/svg"
   xmlns:svg="http://www.w3.org/2000/svg">
  <defs
     id="defs16" />
  <sodipodi:namedview
     id="namedview14"
     pagecolor="#ffffff"
     bordercolor="#666666"
     borderopacity="1.0"
     inkscape:pageshadow="2"
     inkscape:pageopacity="0.0"
     inkscape:pagecheckerboard="0"
     showgrid="false"
     inkscape:zoom="11.96189"
     inkscape:cx="11.996432"
     inkscape:cy="11.996432"
     inkscape:window-width="1920"
     inkscape:window-height="1001"
     inkscape:window-x="-9"
     inkscape:window-y="-9"
     inkscape:window-maximized="1"
     inkscape:current-layer="svg12" />
  <path
     id="path10"
     style="fill:#000000"
     d="m 20.9484,15.693 v 3.2865 h -0.6948 v -2.627 h -0.0193 l -0.7526,0.4718 v -0.6162 l 0.8136,-0.5151 z m -3.1938,3.3314 c -0.2397,0 -0.4531,-0.0412 -0.6403,-0.1236 -0.1862,-0.0834 -0.3333,-0.1979 -0.4413,-0.3434 -0.107,-0.1465 -0.1621,-0.3156 -0.1653,-0.5071 h 0.6997 c 0.0042,0.0803 0.0304,0.1509 0.0786,0.2119 0.0492,0.0599 0.1145,0.1064 0.1958,0.1396 0.0813,0.0331 0.1727,0.0497 0.2744,0.0497 0.1059,0 0.1995,-0.0187 0.2808,-0.0561 0.0813,-0.0375 0.145,-0.0894 0.191,-0.1557 0.046,-0.0663 0.069,-0.1428 0.069,-0.2295 0,-0.0877 -0.0246,-0.1653 -0.0738,-0.2327 -0.0482,-0.0684 -0.1177,-0.1219 -0.2087,-0.1604 -0.0898,-0.0386 -0.1968,-0.0578 -0.3209,-0.0578 H 17.3871 V 17.049 h 0.3065 c 0.1048,0 0.1974,-0.0182 0.2776,-0.0546 0.0813,-0.0364 0.1444,-0.0866 0.1894,-0.1508 0.0449,-0.0653 0.0674,-0.1412 0.0674,-0.2279 0,-0.0824 -0.0198,-0.1546 -0.0594,-0.2166 -0.0385,-0.0632 -0.0931,-0.1124 -0.1637,-0.1477 -0.0695,-0.0353 -0.1508,-0.0529 -0.2439,-0.0529 -0.0942,0 -0.1803,0.0171 -0.2584,0.0513 -0.0781,0.0332 -0.1407,0.0808 -0.1877,0.1428 -0.0471,0.0621 -0.0722,0.1348 -0.0754,0.2183 h -0.666 c 0.0032,-0.1894 0.0572,-0.3563 0.1621,-0.5007 0.1048,-0.1444 0.246,-0.2573 0.4236,-0.3386 0.1787,-0.0824 0.3803,-0.1236 0.605,-0.1236 0.2268,0 0.4253,0.0412 0.5954,0.1236 0.1701,0.0824 0.3022,0.1936 0.3963,0.3338 0.0952,0.1391 0.1423,0.2953 0.1412,0.4686 0.0011,0.184 -0.0561,0.3375 -0.1717,0.4605 -0.1144,0.1231 -0.2637,0.2012 -0.4477,0.2343 v 0.0257 c 0.2418,0.031 0.4258,0.115 0.552,0.2519 0.1274,0.1359 0.1905,0.306 0.1894,0.5104 0.0011,0.1872 -0.0529,0.3535 -0.1621,0.499 -0.108,0.1455 -0.2573,0.26 -0.4477,0.3434 -0.1904,0.0835 -0.4087,0.1252 -0.6547,0.1252 z M 14.5604,16.2429 V 21 h -1.8393 v -1.8714 c 0,-0.4775 0.1708,-0.9391 0.4815,-1.3016 z M 2,19 V 7 h 14 c 1.1046,0 2,0.89543 2,2 v 4.4454 h -1.4396 c -0.6354,0 -1.2017,0.2963 -1.568,0.7584 -0.0103,0.0111 -0.0205,0.0224 -0.0305,0.0341 l -2.5185,2.9383 c -0.4661,0.5437 -0.7223,1.2362 -0.7223,1.9524 V 21 H 4 C 3.93096,21 3.86275,20.9965 3.79551,20.9897 2.787,20.8873 2,20.0355 2,19 Z M 4,4 C 2.89543,4 2,4.89543 2,6 h 14 c 1.6569,0 3,1.34315 3,3 v 4.4454 h 3 V 6 C 22,4.89543 21.1046,4 20,4 Z" />
</svg>
