<?xml version="1.0" encoding="UTF-8" standalone="no"?>
<svg
   width="24"
   height="24"
   viewBox="0 0 24 24"
   fill="none"
   version="1.1"
   id="svg4"
   sodipodi:docname="protonmail.svg"
   inkscape:version="1.1 (c68e22c387, 2021-05-23)"
   xmlns:inkscape="http://www.inkscape.org/namespaces/inkscape"
   xmlns:sodipodi="http://sodipodi.sourceforge.net/DTD/sodipodi-0.dtd"
   xmlns="http://www.w3.org/2000/svg"
   xmlns:svg="http://www.w3.org/2000/svg">
  <defs
     id="defs8" />
  <sodipodi:namedview
     id="namedview6"
     pagecolor="#ffffff"
     bordercolor="#666666"
     borderopacity="1.0"
     inkscape:pageshadow="2"
     inkscape:pageopacity="0.0"
     inkscape:pagecheckerboard="0"
     showgrid="false"
     inkscape:zoom="33.833333"
     inkscape:cx="11.985222"
     inkscape:cy="12.014778"
     inkscape:window-width="1920"
     inkscape:window-height="1001"
     inkscape:window-x="-9"
     inkscape:window-y="-9"
     inkscape:window-maximized="1"
     inkscape:current-layer="svg4" />
  <path
     id="path2"
     style="fill:#000000;stroke:none"
     d="M 2.21228,7.90894 V 17.5 c 0,1.1046 0.89543,2 2,2 H 19.7123 c 1.1046,0 2,-0.8954 2,-2 V 5.07472 c 0,-0.42513 -0.4969,-0.65629 -0.8221,-0.38246 l -6.7943,5.72154 c -0.0685,0.0576 -0.1388,0.1117 -0.2109,0.1623 0.0581,-0.0408 0.1152,-0.0839 0.171,-0.1293 l -3.0493,2.554 c -0.7363,0.6167 -1.80698,0.6229 -2.55041,0.0149 z m 8.15232,4.32526 0.4266,-0.3574 C 10.3923,11.7312 10.0113,11.5199 9.66469,11.2426 L 3.21228,6.08062 v 1.35432 l 5.8771,4.80666 c 0.37171,0.304 0.90705,0.3009 1.27522,-0.0074 z" />
</svg>
