<svg width="24" height="24" viewBox="0 0 24 24" fill="none" xmlns="http://www.w3.org/2000/svg">
<path d="M5.30784 15.5C4.34534 15.5 3.52139 15.1573 2.83599 14.4719C2.15057 13.7864 1.80786 12.9625 1.80786 12C1.80786 11.0375 2.15057 10.2136 2.83599 9.52816C3.52139 8.84274 4.34534 8.50003 5.30784 8.50003C6.27032 8.50003 7.09427 8.84274 7.77969 9.52816C8.46509 10.2136 8.80779 11.0375 8.80779 12C8.80779 12.9625 8.46509 13.7864 7.77969 14.4719C7.09427 15.1573 6.27032 15.5 5.30784 15.5ZM5.30784 14C5.85784 14 6.32867 13.8042 6.72034 13.4125C7.112 13.0208 7.30784 12.55 7.30784 12C7.30784 11.45 7.112 10.9792 6.72034 10.5875C6.32867 10.1958 5.85784 10 5.30784 10C4.75784 10 4.287 10.1958 3.89534 10.5875C3.50367 10.9792 3.30784 11.45 3.30784 12C3.30784 12.55 3.50367 13.0208 3.89534 13.4125C4.287 13.8042 4.75784 14 5.30784 14ZM16.6947 17.5C15.1675 17.5 13.8687 16.9655 12.7982 15.8965C11.7277 14.8275 11.1924 13.5294 11.1924 12.0023C11.1924 10.4751 11.7269 9.17631 12.7959 8.10581C13.8649 7.03529 15.163 6.50003 16.6901 6.50003C18.2173 6.50003 19.5161 7.03453 20.5866 8.10353C21.6571 9.17253 22.1924 10.4706 22.1924 11.9977C22.1924 13.5249 21.6579 14.8237 20.5889 15.8942C19.5199 16.9647 18.2218 17.5 16.6947 17.5Z" fill="#1C1B1F"/>
</svg>
