<?xml version="1.0" encoding="UTF-8" standalone="no"?>
<svg
   width="24"
   height="24"
   viewBox="0 0 24 24"
   fill="none"
   version="1.1"
   id="svg4"
   sodipodi:docname="retro_music.svg"
   inkscape:version="1.1 (c68e22c387, 2021-05-23)"
   xmlns:inkscape="http://www.inkscape.org/namespaces/inkscape"
   xmlns:sodipodi="http://sodipodi.sourceforge.net/DTD/sodipodi-0.dtd"
   xmlns="http://www.w3.org/2000/svg"
   xmlns:svg="http://www.w3.org/2000/svg">
  <defs
     id="defs8" />
  <sodipodi:namedview
     id="namedview6"
     pagecolor="#ffffff"
     bordercolor="#666666"
     borderopacity="1.0"
     inkscape:pageshadow="2"
     inkscape:pageopacity="0.0"
     inkscape:pagecheckerboard="0"
     showgrid="false"
     inkscape:zoom="16.916667"
     inkscape:cx="12.029557"
     inkscape:cy="12.029557"
     inkscape:window-width="1920"
     inkscape:window-height="1001"
     inkscape:window-x="-9"
     inkscape:window-y="-9"
     inkscape:window-maximized="1"
     inkscape:current-layer="svg4" />
  <path
     id="path2"
     style="fill:#000000;stroke:none"
     d="M 21.3532,10.2723 7.51393,2.28199 C 6.13384,1.48532 4.41091,2.48101 4.41091,4.07498 v 1.72048 h 5.18058 c 0.70941,0 1.41181,0.13973 2.06721,0.4112 0.6554,0.27147 1.2509,0.66937 1.7525,1.17098 0.5016,0.50161 0.8995,1.09711 1.171,1.75249 0.2714,0.65539 0.4112,1.35807 0.4112,2.06747 -3e-4,1.116 -0.3462,2.2045 -0.9902,3.1159 -0.4139,0.5857 -0.9378,1.0798 -1.5385,1.4572 l 0.0676,0.1171 -0.0018,6e-4 0.9313,1.6146 0.3933,0.6846 7.4981,-4.3299 c 1.3807,-0.7967 1.3807,-2.7887 0,-3.5854 z m -9.389,4.6317 c 0.4764,-0.3049 0.8923,-0.7005 1.2223,-1.1676 0.5248,-0.7427 0.8067,-1.6297 0.8069,-2.5391 0,-0.578 -0.1139,-1.1504 -0.3351,-1.68448 C 13.4371,8.97876 13.1128,8.4935 12.7041,8.08474 12.2953,7.67599 11.8101,7.35175 11.276,7.13054 10.742,6.90932 10.1696,6.79546 9.59149,6.79546 H 7.28178 Z M 6.12702,6.79546 11.0639,15.3446 11.0627,15.345 H 4.41091 V 6.79546 Z M 4.41091,16.345 h 6.31499 c 0.2249,0 0.4494,-0.0192 0.671,-0.0575 v 0 c 0.0579,-0.0205 0.1153,-0.042 0.1723,-0.0644 l 1.0255,1.7779 0.3944,0.6867 -5.47269,3.1603 c -1.38009,0.7967 -3.1055,-0.199 -3.1055,-1.793 z" />
</svg>
