<svg width="24" height="24" viewBox="0 0 24 24" fill="none" xmlns="http://www.w3.org/2000/svg">
<path d="M6 20V4H11.6024C13.4398 4 14.8554 4.46615 15.8494 5.39846C16.8434 6.32391 17.3404 7.54756 17.3404 9.06941C17.3404 10.4747 16.8434 11.647 15.8494 12.5861C14.8554 13.5253 13.4398 13.9949 11.6024 13.9949H8.66566V20H6ZM8.66566 11.2596H11.6024C12.747 11.2596 13.5452 11.0883 13.997 10.7455C14.4488 10.3959 14.6747 9.83376 14.6747 9.05913C14.6747 8.28449 14.4488 7.70523 13.997 7.32134C13.5452 6.93059 12.747 6.73522 11.6024 6.73522H8.66566V11.2596ZM14.9187 20L11.4759 12.6478L14.7289 13.1517L18 20H14.9187Z" fill="black"/>
</svg>
