<svg width="24" height="24" viewBox="0 0 24 24" fill="none" xmlns="http://www.w3.org/2000/svg">
<path d="M3.68596 15.14C3.04596 15.14 2.51929 15 2.10596 14.72C1.69262 14.44 1.44262 14.03 1.35596 13.49L2.41596 13.22C2.46262 13.4733 2.54596 13.6733 2.66596 13.82C2.78596 13.9667 2.93262 14.07 3.10596 14.13C3.28596 14.19 3.47929 14.22 3.68596 14.22C3.99929 14.22 4.23262 14.1633 4.38596 14.05C4.54596 13.9367 4.62596 13.7933 4.62596 13.62C4.62596 13.44 4.54929 13.3067 4.39596 13.22C4.24929 13.1333 4.02262 13.06 3.71596 13L3.40596 12.95C3.06596 12.8833 2.75596 12.7933 2.47596 12.68C2.19596 12.56 1.96929 12.4 1.79596 12.2C1.62929 11.9933 1.54596 11.7333 1.54596 11.42C1.54596 10.94 1.72262 10.57 2.07596 10.31C2.43596 10.05 2.90596 9.91999 3.48596 9.91999C4.03929 9.91999 4.49596 10.0433 4.85596 10.29C5.21596 10.5367 5.44929 10.8667 5.55596 11.28L4.49596 11.6C4.44262 11.32 4.32596 11.1233 4.14596 11.01C3.96596 10.89 3.74596 10.83 3.48596 10.83C3.21929 10.83 3.01262 10.8767 2.86596 10.97C2.72596 11.0633 2.65596 11.1967 2.65596 11.37C2.65596 11.5433 2.72929 11.6733 2.87596 11.76C3.02262 11.8467 3.21929 11.91 3.46596 11.95L3.77596 12.01C4.14262 12.0767 4.47262 12.1633 4.76596 12.27C5.06596 12.3767 5.30262 12.53 5.47596 12.73C5.64929 12.93 5.73596 13.2 5.73596 13.54C5.73596 14.0533 5.54929 14.45 5.17596 14.73C4.80929 15.0033 4.31262 15.14 3.68596 15.14Z" fill="black"/>
<path d="M6.89986 15V7.99999H8.04986V15H6.89986Z" fill="black"/>
<path d="M9.50729 15V10.06H10.6573V15H9.50729ZM10.0773 9.42999C9.87062 9.42999 9.69062 9.36333 9.53728 9.22999C9.39062 9.08999 9.31729 8.90666 9.31729 8.67999C9.31729 8.45333 9.39062 8.27333 9.53728 8.13999C9.69062 7.99999 9.87062 7.92999 10.0773 7.92999C10.2973 7.92999 10.4773 7.99999 10.6173 8.13999C10.764 8.27333 10.8373 8.45333 10.8373 8.67999C10.8373 8.90666 10.764 9.08999 10.6173 9.22999C10.4773 9.36333 10.2973 9.42999 10.0773 9.42999Z" fill="black"/>
<path d="M14.4247 15.14C13.9447 15.14 13.5114 15.04 13.1247 14.84C12.738 14.64 12.4314 14.35 12.2047 13.97C11.9847 13.59 11.8747 13.1333 11.8747 12.6V12.46C11.8747 11.9267 11.9847 11.47 12.2047 11.09C12.4314 10.71 12.738 10.42 13.1247 10.22C13.5114 10.02 13.9447 9.91999 14.4247 9.91999C14.898 9.91999 15.3014 10.0033 15.6347 10.17C15.9747 10.3367 16.248 10.5667 16.4547 10.86C16.6614 11.1467 16.7947 11.47 16.8547 11.83L15.7447 12.06C15.718 11.8533 15.6547 11.6667 15.5547 11.5C15.4547 11.3267 15.3114 11.19 15.1247 11.09C14.9447 10.99 14.7214 10.94 14.4547 10.94C14.1814 10.94 13.9347 11 13.7147 11.12C13.5014 11.2333 13.3314 11.4067 13.2047 11.64C13.0847 11.8733 13.0247 12.1533 13.0247 12.48V12.58C13.0247 12.9067 13.0847 13.1867 13.2047 13.42C13.3314 13.6467 13.5014 13.82 13.7147 13.94C13.9347 14.06 14.1814 14.12 14.4547 14.12C14.8614 14.12 15.168 14.0167 15.3747 13.81C15.588 13.5967 15.7214 13.3233 15.7747 12.99L16.8847 13.25C16.8047 13.5967 16.6614 13.9133 16.4547 14.2C16.248 14.4867 15.9747 14.7167 15.6347 14.89C15.3014 15.0567 14.898 15.14 14.4247 15.14Z" fill="black"/>
<path d="M20.2634 15.14C19.77 15.14 19.3334 15.0367 18.9534 14.83C18.58 14.6167 18.2867 14.32 18.0734 13.94C17.8667 13.5533 17.7634 13.1033 17.7634 12.59V12.47C17.7634 11.95 17.8667 11.5 18.0734 11.12C18.28 10.74 18.57 10.4467 18.9434 10.24C19.3167 10.0267 19.7467 9.91999 20.2334 9.91999C20.7134 9.91999 21.1334 10.0267 21.4934 10.24C21.8534 10.4467 22.1334 10.74 22.3334 11.12C22.5334 11.5 22.6334 11.9433 22.6334 12.45V12.86H18.9234C18.9367 13.2467 19.0734 13.5567 19.3334 13.79C19.5934 14.0233 19.9134 14.14 20.2934 14.14C20.6667 14.14 20.9434 14.06 21.1234 13.9C21.3034 13.7333 21.44 13.5467 21.5334 13.34L22.4834 13.83C22.39 14.01 22.2534 14.2033 22.0734 14.41C21.9 14.61 21.6667 14.7833 21.3734 14.93C21.08 15.07 20.71 15.14 20.2634 15.14ZM18.9334 11.99H21.4634C21.4367 11.6633 21.31 11.4033 21.0834 11.21C20.8634 11.0167 20.5767 10.92 20.2234 10.92C19.8567 10.92 19.5634 11.0167 19.3434 11.21C19.1234 11.4033 18.9867 11.6633 18.9334 11.99Z" fill="black"/>
</svg>
