<?xml version="1.0" encoding="UTF-8" standalone="no"?>
<svg
   width="192"
   height="192"
   fill="none"
   viewBox="0 0 192 192"
   version="1.1"
   id="svg6"
   sodipodi:docname="solid_explorer.svg"
   inkscape:version="1.1 (c68e22c387, 2021-05-23)"
   xmlns:inkscape="http://www.inkscape.org/namespaces/inkscape"
   xmlns:sodipodi="http://sodipodi.sourceforge.net/DTD/sodipodi-0.dtd"
   xmlns="http://www.w3.org/2000/svg"
   xmlns:svg="http://www.w3.org/2000/svg">
  <defs
     id="defs10" />
  <sodipodi:namedview
     id="namedview8"
     pagecolor="#ffffff"
     bordercolor="#666666"
     borderopacity="1.0"
     inkscape:pageshadow="2"
     inkscape:pageopacity="0.0"
     inkscape:pagecheckerboard="0"
     showgrid="false"
     inkscape:zoom="1.3971354"
     inkscape:cx="95.552656"
     inkscape:cy="85.532153"
     inkscape:window-width="1920"
     inkscape:window-height="1001"
     inkscape:window-x="-9"
     inkscape:window-y="-9"
     inkscape:window-maximized="1"
     inkscape:current-layer="svg6" />
  <path
     id="path2"
     style="fill:#000000;stroke:none"
     d="m 80,38 4.243,-4.243 A 6,6 0 0 0 80,32 Z m 16,16 -4.243,4.243 A 6,6 0 0 0 96,60 Z m 58,94 H 38 v 12 H 154 Z M 28,138 V 54 H 16 v 84 z M 38,44 H 80 V 32 H 38 Z m 37.757,-1.757 16,16 8.486,-8.486 -16,-16 z M 164,70 v 68 h 12 V 70 Z M 96,60 h 58 V 48 H 96 Z m -58,88 c -5.523,0 -10,-4.477 -10,-10 H 16 c 0,12.15 9.85,22 22,22 z m 116,12 c 12.15,0 22,-9.85 22,-22 h -12 c 0,5.523 -4.477,10 -10,10 z m 22,-90 c 0,-12.15 -9.85,-22 -22,-22 v 12 c 5.523,0 10,4.477 10,10 z M 28,54 C 28,48.477 32.477,44 38,44 V 32 C 25.85,32 16,41.85 16,54 Z" />
  <path
     id="path4"
     style="fill:#000000"
     d="m 42.546,120.993 -4.243,-4.242 a 6,6 0 0 0 -1.252,6.651 z m 28.992,-28.991 2.408,-5.496 a 6,6 0 0 0 -6.651,1.253 z m -20.153,31.466 a 15.941,15.941 0 0 1 -3.344,-4.883 l -10.99,4.817 a 27.94,27.94 0 0 0 5.849,8.551 z m 22.627,0 c -6.248,6.249 -16.379,6.249 -22.627,0 l -8.485,8.485 c 10.934,10.935 28.663,10.935 39.598,0 z m 0,-22.627 c 6.249,6.248 6.249,16.379 0,22.627 l 8.486,8.485 c 10.934,-10.934 10.934,-28.663 0,-39.597 z m -4.883,-3.344 a 15.941,15.941 0 0 1 4.883,3.344 l 8.486,-8.485 a 27.947,27.947 0 0 0 -8.552,-5.85 L 69.13,97.497 Z m -1.834,-9.738 -28.992,28.992 8.486,8.485 28.991,-28.992 z m 16.97,-8.485 4.243,4.242 a 6,6 0 0 0 1.253,-6.651 z m -28.991,28.991 -2.409,5.496 a 6.001,6.001 0 0 0 6.651,-1.253 z M 75.426,76.799 a 15.945,15.945 0 0 1 3.344,4.883 l 10.99,-4.817 a 27.945,27.945 0 0 0 -5.848,-8.551 z m -22.627,0 c 6.248,-6.249 16.379,-6.249 22.627,0 l 8.486,-8.485 c -10.935,-10.935 -28.664,-10.935 -39.598,0 z m 0,22.627 c -6.248,-6.248 -6.248,-16.379 0,-22.627 l -8.485,-8.485 c -10.935,10.934 -10.935,28.663 0,39.598 z m 4.883,3.344 a 15.943,15.943 0 0 1 -4.883,-3.344 l -8.485,8.486 a 27.956,27.956 0 0 0 8.551,5.849 z m 1.834,9.738 28.992,-28.992 -8.485,-8.485 -28.992,28.992 z" />
</svg>
