<svg width="24" height="24" viewBox="0 0 24 24" fill="none" xmlns="http://www.w3.org/2000/svg">
<path fill-rule="evenodd" clip-rule="evenodd" d="M12.0007 1.5L2.55078 8.85V10.2473C2.91939 10.0142 3.32518 9.82847 3.76814 9.69004C4.37293 9.48844 5.00293 9.38764 5.65812 9.38764C6.52751 9.38764 7.27091 9.48214 7.8883 9.67114C8.51829 9.84754 9.05379 10.1058 9.49478 10.446C9.94838 10.7862 10.3327 11.1957 10.6477 11.6745L8.66319 13.5834C8.39859 13.2558 8.1088 12.9849 7.7938 12.7707C7.4914 12.5565 7.16381 12.3927 6.81101 12.2793C6.47081 12.1659 6.11802 12.1092 5.75262 12.1092C5.37462 12.1092 5.04703 12.1596 4.76983 12.2604C4.50523 12.3486 4.29734 12.4809 4.14614 12.6573C3.99494 12.8211 3.91934 13.0227 3.91934 13.2621C3.91934 13.4763 3.98234 13.659 4.10834 13.8102C4.23434 13.9614 4.40443 14.1 4.61863 14.226C4.83283 14.3394 5.07853 14.4402 5.35573 14.5284C5.63292 14.604 5.92272 14.667 6.22512 14.7174C6.91811 14.856 7.5418 15.0387 8.0962 15.2655C8.66319 15.4923 9.14829 15.7695 9.55148 16.0971C9.96728 16.4247 10.2823 16.8153 10.4965 17.2689C10.7233 17.7099 10.8367 18.2265 10.8367 18.8187C10.8367 19.7385 10.6099 20.5197 10.1563 21.1623C9.76384 21.723 9.23669 22.1689 8.57485 22.5H21.4506V8.85L12.0007 1.5ZM2.55078 19.0077C2.97547 19.455 3.40015 19.7763 3.82484 19.9716C4.46743 20.2614 5.12893 20.4063 5.80932 20.4063C6.14952 20.4063 6.45821 20.3622 6.73541 20.274C7.01261 20.1858 7.22681 20.0598 7.37801 19.896C7.5292 19.7196 7.6048 19.5054 7.6048 19.2534C7.6048 19.0644 7.5544 18.8943 7.4536 18.7431C7.36541 18.5919 7.23941 18.4596 7.07561 18.3462C6.91181 18.2328 6.71651 18.132 6.48971 18.0438C6.26292 17.943 6.02352 17.8611 5.77152 17.7981C5.51952 17.7225 5.26123 17.6595 4.99663 17.6091C4.26584 17.4453 3.62954 17.2437 3.08775 17.0043C2.89793 16.9205 2.71894 16.8304 2.55078 16.7342V19.0077Z" fill="black"/>
</svg>
