<svg width="24" height="24" viewBox="0 0 24 24" fill="none" xmlns="http://www.w3.org/2000/svg">
<path d="M21.9943 7.26427C21.856 10.4554 19.2252 13 16 13C12.6863 13 10 10.3137 10 7H3C1.89543 7 1 7.89543 1 9V19C1 20.1046 1.89543 21 3 21H21C22.1046 21 23 20.1046 23 19V9C23 8.25736 22.5952 7.60926 21.9943 7.26427Z" fill="black"/>
<path d="M15.3 9.3L18.825 5.775L18.125 5.075L15.3 7.9L13.875 6.475L13.175 7.175L15.3 9.3ZM16 12C15.3083 12 14.6583 11.8687 14.05 11.6062C13.4417 11.3437 12.9125 10.9875 12.4625 10.5375C12.0125 10.0875 11.6563 9.55833 11.3938 8.95C11.1313 8.34167 11 7.69167 11 7C11 6.30833 11.1313 5.65833 11.3938 5.05C11.6563 4.44167 12.0125 3.9125 12.4625 3.4625C12.9125 3.0125 13.4417 2.65625 14.05 2.39375C14.6583 2.13125 15.3083 2 16 2C16.6917 2 17.3417 2.13125 17.95 2.39375C18.5583 2.65625 19.0875 3.0125 19.5375 3.4625C19.9875 3.9125 20.3438 4.44167 20.6063 5.05C20.8688 5.65833 21 6.30833 21 7C21 7.69167 20.8688 8.34167 20.6063 8.95C20.3438 9.55833 19.9875 10.0875 19.5375 10.5375C19.0875 10.9875 18.5583 11.3437 17.95 11.6062C17.3417 11.8687 16.6917 12 16 12Z" fill="black"/>
</svg>
