<svg xmlns="http://www.w3.org/2000/svg" height="24" viewBox="0 96 960 960" width="24"><path d="M233.755 878.306q-46.832 0-79.524-32.756t-32.692-79.551H53.847v-417.69q0-30.308 21-51.308t51.307-21h544.615v152.308h106.152l129.232 173.077v164.613h-72.307q0 46.795-32.783 79.551t-79.615 32.756q-46.832 0-79.524-32.756-32.693-32.756-32.693-79.551H346.153q0 46.923-32.783 79.615-32.782 32.692-79.615 32.692Zm.091-59.998q22 0 37.154-15.154 15.154-15.154 15.154-37.155 0-22-15.154-37.154-15.154-15.154-37.154-15.154-22.001 0-37.155 15.154t-15.154 37.154q0 22.001 15.154 37.155t37.155 15.154Zm-120-112.307h28.923q12.768-22.231 36.884-37.27 24.116-15.039 54.193-15.039 29.308 0 53.808 14.847 24.5 14.846 37.269 37.462H610.77V336H126.154q-4.615 0-8.462 3.846-3.846 3.847-3.846 8.463v357.692Zm607.693 112.307q22 0 37.154-15.154 15.154-15.154 15.154-37.155 0-22-15.154-37.154-15.154-15.154-37.154-15.154-22.001 0-37.155 15.154t-15.154 37.154q0 22.001 15.154 37.155t37.155 15.154Zm-50.77-192.307H850L746.153 488.307h-75.384v137.694ZM362.308 521Z"/></svg>