<svg width="24" height="24" viewBox="0 0 24 24" fill="none" xmlns="http://www.w3.org/2000/svg">
<path d="M16.7435 11.2696C16.6574 11.2283 16.5699 11.1886 16.4812 11.1505C16.3269 8.30606 14.7726 6.6776 12.1628 6.66094C12.151 6.66086 12.1392 6.66086 12.1274 6.66086C10.5664 6.66086 9.26811 7.32718 8.46904 8.53966L9.90435 9.52425C10.5013 8.61857 11.4381 8.4255 12.1281 8.4255C12.136 8.4255 12.144 8.4255 12.1519 8.42557C13.0112 8.43105 13.6597 8.6809 14.0794 9.16813C14.3848 9.52284 14.589 10.013 14.6902 10.6316C13.9283 10.5022 13.1044 10.4623 12.2235 10.5128C9.74224 10.6558 8.14707 12.1029 8.25421 14.1137C8.30857 15.1337 8.81672 16.0112 9.68498 16.5845C10.4191 17.0691 11.3646 17.306 12.3472 17.2524C13.6449 17.1812 14.6629 16.6861 15.3731 15.7808C15.9125 15.0933 16.2536 14.2024 16.4042 13.0798C17.0227 13.453 17.481 13.9442 17.7341 14.5346C18.1646 15.5382 18.1897 17.1875 16.8439 18.5321C15.6649 19.71 14.2476 20.2196 12.1057 20.2353C9.72969 20.2177 7.93277 19.4557 6.76447 17.9705C5.67045 16.5798 5.10505 14.571 5.08396 12C5.10505 9.42894 5.67045 7.42017 6.76447 6.02945C7.93277 4.54426 9.72965 3.78229 12.1056 3.76464C14.4988 3.78243 16.3271 4.54806 17.5401 6.04042C18.1349 6.77225 18.5833 7.69258 18.8789 8.76566L20.5609 8.3169C20.2026 6.99606 19.6387 5.85789 18.8714 4.91396C17.3163 3.0007 15.042 2.02033 12.1115 2H12.0998C9.17525 2.02026 6.92634 3.00435 5.41553 4.92493C4.07111 6.634 3.37762 9.01205 3.35432 11.993L3.35425 12L3.35432 12.007C3.37762 14.9879 4.07111 17.366 5.41553 19.0751C6.92634 20.9956 9.17525 21.9798 12.0998 22H12.1115C14.7115 21.982 16.5442 21.3013 18.054 19.7928C20.0294 17.8194 19.9699 15.3457 19.3188 13.8272C18.8517 12.7382 17.9612 11.8538 16.7435 11.2696ZM12.2543 15.4903C11.1668 15.5516 10.037 15.0634 9.98129 14.0179C9.94 13.2427 10.533 12.3777 12.321 12.2747C12.5258 12.2629 12.7267 12.2571 12.9241 12.2571C13.5736 12.2571 14.1812 12.3202 14.7336 12.4409C14.5276 15.0141 13.319 15.4319 12.2543 15.4903Z" fill="black"/>
</svg>
