<svg width="24" height="24" viewBox="0 0 24 24" fill="none" xmlns="http://www.w3.org/2000/svg">
<path d="M2.53999 8.32C2.53999 9.45 3.27999 10.18 4.25999 10.18C5.22999 10.18 5.97999 9.43 5.97999 8.32V4H7.02999V11H5.98999V10.35C5.51999 10.84 4.86999 11.12 4.13999 11.12C2.63999 11.12 1.48999 10.03 1.48999 8.38V4H2.53999V8.32Z" fill="black"/>
<path d="M8.06226 11V4H9.07226V6.55C9.53226 6.08 10.1723 5.79 10.8823 5.79C12.3823 5.79 13.5623 6.98 13.5623 8.46C13.5623 9.93 12.3823 11.12 10.8823 11.12C10.1723 11.12 9.52226 10.83 9.06226 10.36V11H8.06226ZM9.05226 8.46C9.05226 9.44 9.83226 10.23 10.8123 10.23C11.7723 10.23 12.5623 9.44 12.5623 8.46C12.5623 7.47 11.7723 6.69 10.8123 6.69C9.84226 6.69 9.05226 7.47 9.05226 8.46Z" fill="black"/>
<path d="M14.1613 8.45C14.1613 7.01 15.2913 5.8 16.7813 5.8C18.2513 5.8 19.3313 6.93 19.3313 8.45V8.78H15.1813C15.3213 9.61 16.0113 10.23 16.8713 10.23C17.4613 10.23 17.9613 9.99 18.3413 9.48L19.0713 10.02C18.5613 10.7 17.8013 11.11 16.8713 11.11C15.3413 11.11 14.1613 9.97 14.1613 8.45ZM16.7613 6.68C16.0113 6.68 15.3813 7.2 15.2013 7.98H18.3113C18.1413 7.2 17.5113 6.68 16.7613 6.68Z" fill="black"/>
<path d="M22.6928 6.8H22.2728C21.6128 6.8 21.1328 7.31 21.1328 8.1V11H20.1228V5.9H21.1228V6.53C21.3728 6.12 21.7828 5.86 22.3428 5.86H22.6928V6.8Z" fill="black"/>
<path d="M5.77999 20.08V21H1.52999V14H2.57999V20.08H5.77999Z" fill="black"/>
<path d="M7.09765 15.19C6.75765 15.19 6.48765 14.92 6.48765 14.58C6.48765 14.25 6.75765 13.98 7.09765 13.98C7.42765 13.98 7.68765 14.25 7.68765 14.58C7.68765 14.92 7.42765 15.19 7.09765 15.19ZM7.59765 15.9V21H6.58765V15.9H7.59765Z" fill="black"/>
<path d="M10.3898 21C9.60983 21 9.17983 20.54 9.17983 19.9V16.79H8.20983V15.9H9.17983V14.4H10.1898V15.9H11.3598V16.79H10.1898V19.68C10.1898 19.96 10.3798 20.11 10.6898 20.11H11.3598V21H10.3898Z" fill="black"/>
<path d="M11.7101 18.45C11.7101 17.01 12.8401 15.8 14.3301 15.8C15.8001 15.8 16.8801 16.93 16.8801 18.45V18.78H12.7301C12.8701 19.61 13.5601 20.23 14.4201 20.23C15.0101 20.23 15.5101 19.99 15.8901 19.48L16.6201 20.02C16.1101 20.7 15.3501 21.11 14.4201 21.11C12.8901 21.11 11.7101 19.97 11.7101 18.45ZM14.3101 16.68C13.5601 16.68 12.9301 17.2 12.7501 17.98H15.8601C15.6901 17.2 15.0601 16.68 14.3101 16.68Z" fill="black"/>
</svg>
