<?xml version="1.0" encoding="UTF-8" standalone="no"?>
<svg
   width="24"
   height="24"
   viewBox="0 0 24 24"
   fill="none"
   version="1.1"
   id="svg8"
   sodipodi:docname="whatsapp_business.svg"
   inkscape:version="1.1 (c68e22c387, 2021-05-23)"
   xmlns:inkscape="http://www.inkscape.org/namespaces/inkscape"
   xmlns:sodipodi="http://sodipodi.sourceforge.net/DTD/sodipodi-0.dtd"
   xmlns="http://www.w3.org/2000/svg"
   xmlns:svg="http://www.w3.org/2000/svg">
  <defs
     id="defs12" />
  <sodipodi:namedview
     id="namedview10"
     pagecolor="#ffffff"
     bordercolor="#666666"
     borderopacity="1.0"
     inkscape:pageshadow="2"
     inkscape:pageopacity="0.0"
     inkscape:pagecheckerboard="0"
     showgrid="false"
     inkscape:zoom="16.916667"
     inkscape:cx="6.2068965"
     inkscape:cy="13.034483"
     inkscape:window-width="1920"
     inkscape:window-height="1001"
     inkscape:window-x="-9"
     inkscape:window-y="-9"
     inkscape:window-maximized="1"
     inkscape:current-layer="svg8" />
  <path
     id="path904"
     style="fill:#000000;stroke-width:0.867003;stroke:none"
     d="m 11.698415,6.797987 c -0.374942,4.116e-4 -0.75121,0.012077 -1.115927,0.023707 -0.345284,0.011002 -0.681061,0.021832 -0.9940054,0.022014 -0.6769906,1.041e-4 -0.6679791,0.5223715 -0.653639,1.3614656 0.00193,0.1128838 0.00461,0.2317293 0.00508,0.3556067 0.00504,1.3205322 0.00329,4.4394757 0.00169,6.6295247 l -0.00169,1.43936 c -1.994e-4,0.381915 0.094945,0.450636 0.194737,0.521556 l 0.00847,0.0051 c 0.064514,0.04612 0.1972562,0.04615 0.5012361,0.04572 0.6383913,-6.07e-4 1.2332783,-0.0021 1.7678723,-0.0034 h 0.0017 c 0.544478,-0.0014 1.026125,-0.0034 1.425813,-0.0034 3.698722,0 3.602187,-4.608308 1.872862,-5.183391 0.04656,-0.09771 0.123022,-0.212448 0.213364,-0.345447 0.40072,-0.59016 1.061666,-1.562903 0.479214,-3.2461722 C 14.918213,7.0128585 13.323166,6.7962031 11.698415,6.797987 Z m 0.17611,1.7797268 c 0.612419,-0.00466 1.257764,0.034859 1.559589,0.2133639 0.74701,0.4417901 0.51855,1.7422103 -0.0034,2.0929993 -0.553928,0.164297 -0.989061,0.162338 -1.723846,0.157483 -0.272759,-0.0018 -0.586985,-0.0044 -0.963524,0.0017 V 8.6200479 c 0.0443,-0.00218 0.09165,-0.00404 0.143935,-0.00677 0.262865,-0.013724 0.619781,-0.032764 0.987232,-0.035561 z m 1.03634,4.2401862 c 0.692389,0.08141 1.192671,0.373746 1.205676,1.261558 0.01777,0.942431 -0.695605,1.385391 -1.495242,1.386865 -0.706087,0.0013 -1.528713,0 -1.877941,0 v -2.639956 c 0.754726,0 1.507978,-10e-4 2.167507,-0.0085 z M 12.039062,2 c -5.4599995,0 -9.9082026,4.4501562 -9.9082026,9.910156 0,1.75 0.4583593,3.449219 1.3183594,4.949219 L 2.0507812,22 l 5.25,-1.380859 c 1.45,0.79 3.0782808,1.210937 4.7382808,1.210937 5.460001,0 9.910157,-4.450156 9.910157,-9.910156 0,-2.65 -1.028438,-5.1397658 -2.898438,-7.0097658 C 17.180781,3.0301563 14.689062,2 12.039062,2 Z m 0.01172,1.6699219 c 2.2,0 4.25836,0.8599219 5.81836,2.4199219 1.55,1.5599999 2.410156,3.6300782 2.410156,5.8300782 0,4.54 -3.700235,8.230469 -8.240235,8.230469 -1.48,0 -2.9294526,-0.390391 -4.1894526,-1.150391 L 7.5507812,18.830078 4.4296875,19.650391 5.2597656,16.609375 5.0605469,16.289062 c -0.82,-1.289999 -1.2597656,-2.818906 -1.2597657,-4.378906 0.01,-4.5399998 3.7,-8.2402341 8.2499998,-8.2402341 z" />
</svg>
