<svg width="24" height="24" viewBox="0 0 24 24" fill="none" xmlns="http://www.w3.org/2000/svg">
<g clip-path="url(#clip0_5243_84782)">
<path d="M13.2116 0.914842C12.4957 0.361719 11.5043 0.36172 10.7884 0.914843C9.367 2.01306 7.0073 3.8962 5.4516 5.45203C5.24995 5.6537 5.0428 5.86888 4.83257 6.09377L9.115 8.47284L15.5127 11.6716L21.7177 9.05903C20.7296 7.83852 19.5686 6.47236 18.5484 5.45203C16.9927 3.8962 14.633 2.01306 13.2116 0.914842Z" fill="black"/>
<path d="M22.7007 10.2947L17.3473 12.5889L15.2892 13.6201V13.6179L10.7615 15.8817V23.0663C10.7705 23.0733 10.7795 23.0803 10.7884 23.0872C11.5043 23.6403 12.4957 23.6403 13.2116 23.0872C14.633 21.989 16.9927 20.1058 18.5484 18.55C20.1041 16.9941 21.9871 14.6342 23.0852 13.2127C23.6383 12.4967 23.6383 11.5053 23.0852 10.7893C22.9658 10.6348 22.8372 10.4692 22.7007 10.2947Z" fill="black"/>
<path d="M9.115 21.7655V10.1193L3.84515 7.19164C2.73903 8.46269 1.65069 9.8367 0.914806 10.7893C0.361731 11.5053 0.361732 12.4967 0.914807 13.2127C2.01293 14.6342 3.8959 16.9941 5.4516 18.55C6.48768 19.5861 7.88036 20.7675 9.115 21.7655Z" fill="black"/>
</g>
<defs>
<clipPath id="clip0_5243_84782">
<rect width="24" height="24" fill="white"/>
</clipPath>
</defs>
</svg>
