<?xml version="1.0" encoding="UTF-8" standalone="no"?>
<svg
   width="24"
   height="24"
   viewBox="0 0 24 24"
   fill="none"
   version="1.1"
   id="svg6"
   sodipodi:docname="yuzu.svg"
   inkscape:version="1.1 (c68e22c387, 2021-05-23)"
   xmlns:inkscape="http://www.inkscape.org/namespaces/inkscape"
   xmlns:sodipodi="http://sodipodi.sourceforge.net/DTD/sodipodi-0.dtd"
   xmlns="http://www.w3.org/2000/svg"
   xmlns:svg="http://www.w3.org/2000/svg">
  <defs
     id="defs10" />
  <sodipodi:namedview
     id="namedview8"
     pagecolor="#ffffff"
     bordercolor="#666666"
     borderopacity="1.0"
     inkscape:pageshadow="2"
     inkscape:pageopacity="0.0"
     inkscape:pagecheckerboard="0"
     showgrid="false"
     inkscape:zoom="16.916667"
     inkscape:cx="12.029557"
     inkscape:cy="12.029557"
     inkscape:window-width="1920"
     inkscape:window-height="1001"
     inkscape:window-x="-9"
     inkscape:window-y="-9"
     inkscape:window-maximized="1"
     inkscape:current-layer="svg6" />
  <path
     d="M 10.25,2.5 C 9.33075,2.5 8.4205,2.69399 7.57122,3.0709 6.72194,3.44781 5.95026,4.00026 5.30025,4.6967 4.65024,5.39314 4.13463,6.21993 3.78284,7.12987 3.43106,8.03982 3.25,9.01509 3.25,10 c 0,0.9849 0.18106,1.9602 0.53284,2.8701 0.35179,0.91 0.8674,1.7368 1.51741,2.4332 0.65001,0.6964 1.42169,1.2489 2.27097,1.6258 C 8.4205,17.306 9.33075,17.5 10.25,17.5 Z"
     stroke="#000000"
     stroke-width="1.5"
     id="path2"
     style="stroke-width:2" />
  <path
     d="m 13.75,21.5 c 1.8565,0 3.637,-0.7902 4.9497,-2.1967 C 20.0125,17.8968 20.75,15.9891 20.75,14 20.75,12.0109 20.0125,10.1032 18.6997,8.6967 17.387,7.29018 15.6065,6.5 13.75,6.5 Z"
     stroke="#000000"
     stroke-width="1.5"
     id="path4"
     style="stroke-width:2" />
</svg>
