<svg width="24" height="24" viewBox="0 0 24 24" fill="none" xmlns="http://www.w3.org/2000/svg">
<path d="M10.5 2.5C9.58075 2.5 8.6705 2.69399 7.82122 3.0709C6.97194 3.44781 6.20026 4.00026 5.55025 4.6967C4.90024 5.39314 4.38463 6.21993 4.03284 7.12987C3.68106 8.03982 3.5 9.01509 3.5 10C3.5 10.9849 3.68106 11.9602 4.03284 12.8701C4.38463 13.7801 4.90024 14.6069 5.55025 15.3033C6.20026 15.9997 6.97194 16.5522 7.82122 16.9291C8.6705 17.306 9.58075 17.5 10.5 17.5V2.5Z" stroke="black" stroke-width="1.5"/>
<path d="M13.5 21.5C15.3565 21.5 17.137 20.7098 18.4497 19.3033C19.7625 17.8968 20.5 15.9891 20.5 14C20.5 12.0109 19.7625 10.1032 18.4497 8.6967C17.137 7.29018 15.3565 6.5 13.5 6.5V21.5Z" stroke="black" stroke-width="1.5"/>
</svg>
