<svg width="24" height="24" viewBox="0 0 24 24" fill="none" xmlns="http://www.w3.org/2000/svg">
<path d="M2.73867 16.5V15.468L5.99067 11.124V11.268H2.73867V10.2H7.33467V11.208L4.13067 15.492L4.08267 15.432H7.40667V16.5H2.73867ZM8.83917 16.5V7.62H10.0752V16.5H8.83917ZM12.0309 16.5V10.2H13.2669V16.5H12.0309ZM12.6309 8.808C12.3669 8.808 12.1629 8.74 12.0189 8.604C11.8749 8.468 11.8029 8.276 11.8029 8.028C11.8029 7.796 11.8749 7.608 12.0189 7.464C12.1709 7.32 12.3749 7.248 12.6309 7.248C12.8949 7.248 13.0989 7.316 13.2429 7.452C13.3869 7.588 13.4589 7.78 13.4589 8.028C13.4589 8.26 13.3829 8.448 13.2309 8.592C13.0869 8.736 12.8869 8.808 12.6309 8.808ZM18.4787 16.62C18.2067 16.62 17.9347 16.576 17.6627 16.488C17.3987 16.4 17.1547 16.284 16.9307 16.14C16.7147 15.988 16.5307 15.824 16.3787 15.648C16.2347 15.464 16.1387 15.28 16.0907 15.096L16.4027 14.928V16.464H15.1667V7.62H16.4027V11.64L16.2107 11.532C16.2507 11.348 16.3387 11.172 16.4747 11.004C16.6107 10.828 16.7827 10.672 16.9907 10.536C17.2067 10.392 17.4387 10.28 17.6867 10.2C17.9347 10.112 18.1867 10.068 18.4427 10.068C19.0107 10.068 19.5147 10.208 19.9547 10.488C20.3947 10.768 20.7427 11.156 20.9987 11.652C21.2547 12.14 21.3827 12.7 21.3827 13.332C21.3827 13.964 21.2547 14.528 20.9987 15.024C20.7507 15.52 20.4067 15.912 19.9667 16.2C19.5267 16.48 19.0307 16.62 18.4787 16.62ZM18.2747 15.492C18.6427 15.492 18.9707 15.4 19.2587 15.216C19.5467 15.024 19.7747 14.768 19.9427 14.448C20.1107 14.12 20.1947 13.748 20.1947 13.332C20.1947 12.924 20.1107 12.56 19.9427 12.24C19.7827 11.912 19.5587 11.656 19.2707 11.472C18.9827 11.288 18.6507 11.196 18.2747 11.196C17.8987 11.196 17.5667 11.288 17.2787 11.472C16.9907 11.656 16.7627 11.912 16.5947 12.24C16.4267 12.56 16.3427 12.924 16.3427 13.332C16.3427 13.748 16.4267 14.12 16.5947 14.448C16.7627 14.768 16.9907 15.024 17.2787 15.216C17.5667 15.4 17.8987 15.492 18.2747 15.492Z" fill="black"/>
</svg>
