<svg width="24" height="24" viewBox="0 0 24 24" fill="none" xmlns="http://www.w3.org/2000/svg">
<path fill-rule="evenodd" clip-rule="evenodd" d="M22 12C22 17.5228 17.5228 22 12 22C6.79531 22 2.51931 18.0238 2.04392 12.9434L4.16875 12.9062C4.76178 12.8953 5.34982 13.0163 5.8903 13.2606C6.43078 13.5049 6.91017 13.8663 7.29375 14.3187C9.85 17.0937 15.325 16.9437 17.825 14.0687C18.775 12.975 18.825 12.1062 17.9812 11C15.9375 8.30624 10.125 7.62499 7.8375 10.0687C6.4125 11.575 4.96875 11.7562 2.95625 11.8562L2.00062 11.8875C2.06094 6.41647 6.51471 2 12 2C17.5228 2 22 6.47715 22 12ZM2.00014 11.9459C2.00005 11.9639 2 11.982 2 12C2 12.1284 2.00242 12.2562 2.00722 12.3834C2.00366 12.2388 2.0008 12.0848 2.00014 11.9459Z" fill="black"/>
</svg>
