<svg width="24" height="24" viewBox="0 0 24 24" fill="none" xmlns="http://www.w3.org/2000/svg">
<path d="M21.762 6.893C21.9157 7.0739 22.0001 7.3036 22 7.541V16.459C22.0001 16.65 21.9455 16.837 21.8426 16.9979C21.7398 17.1588 21.593 17.2869 21.4197 17.367C21.2464 17.4472 21.0537 17.476 20.8645 17.4501C20.6753 17.4243 20.4974 17.3447 20.352 17.221L17 14.37V9.628L20.352 6.779C20.4521 6.69387 20.5679 6.62929 20.6929 6.58894C20.8179 6.5486 20.9497 6.53328 21.0806 6.54387C21.2116 6.55445 21.3391 6.59074 21.456 6.65064C21.573 6.71055 21.6769 6.7929 21.762 6.893Z" fill="black"/>
<path d="M2 7.5C2 6.94771 2.44772 6.5 3 6.5H13C14.6569 6.5 16 7.84315 16 9.5V16.5C16 17.0523 15.5523 17.5 15 17.5H5C3.34315 17.5 2 16.1569 2 14.5V7.5Z" fill="black"/>
</svg>
